STARTFONT 2.1
COMMENT
COMMENT Converted from OpenType font "Patriot-Medium.otf" by "otf2bdf 3.0".
COMMENT
FONT -FreeType-Patriot Medium-Medium-R-Normal--66-480-100-100-P-324-ISO10646-1
SIZE 48 100 100
FONTBOUNDINGBOX 112 89 -26 -18
STARTPROPERTIES 19
FOUNDRY "FreeType"
FAMILY_NAME "Patriot Medium"
WEIGHT_NAME "Medium"
SLANT "R"
SETWIDTH_NAME "Normal"
ADD_STYLE_NAME ""
PIXEL_SIZE 66
POINT_SIZE 480
RESOLUTION_X 100
RESOLUTION_Y 100
SPACING "P"
AVERAGE_WIDTH 324
CHARSET_REGISTRY "ISO10646"
CHARSET_ENCODING "1"
FONT_ASCENT 67
FONT_DESCENT 13
COPYRIGHT "Copyright © 2020 by Behalf Studio. All rights reserved."
_OTF_FONTFILE "Patriot-Medium.otf"
_OTF_PSNAME "Patriot-Medium"
ENDPROPERTIES
CHARS 426
STARTCHAR 0020
ENCODING 32
SWIDTH 375 0
DWIDTH 25 0
BBX 0 0 0 0
BITMAP
ENDCHAR
STARTCHAR 0021
ENCODING 33
SWIDTH 270 0
DWIDTH 18 0
BBX 10 48 4 -1
BITMAP
7F00
7F00
7F00
7F00
7F00
7F00
7F00
7F00
7F00
7F00
7F00
7F00
7F00
7F00
7F00
7F00
7F00
7F00
7F00
7F00
7F00
7F00
7F00
7F00
7F00
7F00
7F00
7F00
7F00
7F00
7F00
0000
0000
0000
0000
0000
0000
1C00
3F80
7F80
FFC0
FFC0
FFC0
FFC0
FFC0
7FC0
7F80
1E00
ENDCHAR
STARTCHAR 0022
ENCODING 34
SWIDTH 330 0
DWIDTH 22 0
BBX 15 15 4 32
BITMAP
F83E
F83E
F83E
F83E
F83E
F83E
F83E
F83E
F83E
F83E
F83E
F83E
F83E
F83E
F83E
ENDCHAR
STARTCHAR 0023
ENCODING 35
SWIDTH 645 0
DWIDTH 43 0
BBX 35 47 4 0
BITMAP
003F807F00
003F807F00
003F807F00
003F007E00
003F007E00
007F00FE00
007F00FE00
007F00FE00
007F00FE00
007F00FE00
007E00FC00
007E00FC00
00FE01FC00
00FE01FC00
3FFFFFFFE0
3FFFFFFFE0
3FFFFFFFE0
3FFFFFFFE0
3FFFFFFFE0
3FFFFFFFE0
01FC03F800
01FC03F800
01FC03F800
01FC03F800
01F803F000
01F803F000
03F807F000
03F807F000
FFFFFFFFC0
FFFFFFFFC0
FFFFFFFFC0
FFFFFFFFC0
FFFFFFFFC0
FFFFFFFFC0
07F00FE000
07F00FE000
07F00FE000
07F00FE000
07E00FC000
07E00FC000
0FE01FC000
0FE01FC000
0FE01FC000
0FE01FC000
0FE01FC000
0FC01F8000
0FC01F8000
ENDCHAR
STARTCHAR 0024
ENCODING 36
SWIDTH 555 0
DWIDTH 37 0
BBX 30 60 4 -7
BITMAP
000FC000
000FC000
000FC000
000FC000
000FC000
001FC000
00FFF800
03FFFE00
07FFFF00
0FFFFF80
1FFFFFC0
1FFFFFE0
3FFFFFE0
3FF87FF0
3FE01FF0
3FC01FF0
7FC00FF8
7FC00FE0
7FC00600
3FC00000
3FE00000
3FF00000
1FF80000
1FFE0000
0FFF0000
07FFC000
03FFE000
01FFF800
00FFFC00
007FFF00
001FFF80
000FFFC0
0003FFE0
0000FFF0
00007FF0
00003FF8
00001FF8
00000FF8
000007F8
010007FC
1F0007FC
FF0007FC
FF8007F8
FF800FF8
7FC00FF8
7FF03FF8
3FFFFFF0
3FFFFFF0
1FFFFFE0
0FFFFFC0
07FFFF80
03FFFF00
00FFFC00
001FF000
000FC000
000FC000
000FC000
000FC000
000FC000
000FC000
ENDCHAR
STARTCHAR 0025
ENCODING 37
SWIDTH 915 0
DWIDTH 61 0
BBX 54 49 4 -1
BITMAP
00FE0000000000
03FF800000FC00
0FFFE00001F800
1FFFF00003F800
3FFFF80003F000
7FFFFC0007E000
7FC3FC000FE000
FF01FE001FC000
FE00FE001F8000
FE00FE003F8000
FC007E007F0000
FC007F007E0000
FC007E00FC0000
FE007E01FC0000
FE00FE01F80000
FF01FE03F00000
7F83FC07F00000
7FFFFC0FE00000
3FFFF80FC00000
1FFFF01FC00000
0FFFE03F800000
07FFC03F000000
00FE007E000000
000000FE000000
000000FC000000
000001F8000000
000003F803FC00
000007F00FFF00
000007E03FFF80
00000FE07FFFE0
00001FC0FFFFE0
00001F80FFFFF0
00003F01FF0FF8
00007F01FC07F8
00007E03F803F8
0000FC03F801FC
0001FC03F801FC
0003F803F001FC
0003F003F801FC
0007F003F801FC
000FE003F803F8
000FC001FC07F8
001F8001FF0FF8
003F8000FFFFF0
003F0000FFFFE0
007E00007FFFC0
00FE00003FFF80
01FC00000FFF00
0000000001F800
ENDCHAR
STARTCHAR 0026
ENCODING 38
SWIDTH 675 0
DWIDTH 45 0
BBX 37 49 4 -1
BITMAP
0001000000
003FFC0000
00FFFF0000
03FFFF8000
07FFFFE000
0FFFFFF000
1FFFFFF800
1FFFFFF800
3FF83FF800
3FF00FF000
3FE007E000
7FC003C000
7FC0018000
7F80000000
7F80000000
7FC0000000
7FC0000000
3FC0000000
3FE0000000
1FF8000000
1FFFFFFFF8
0FFFFFFFF8
07FFFFFFF8
07FFFFFFF8
0FFFFFFFF8
1FFFFFFFF8
3FFFFFFFF8
3FFFFFFFF8
7FF0007FC0
7FC0007FC0
FF80007FC0
FF80007F80
FF00007F80
FF00007F80
FF0000FF80
FF0000FF80
FF8001FF00
FF8001FF00
FFC003FF00
FFE007FE00
7FF81FFE00
7FFFFFFC00
3FFFFFF800
1FFFFFF800
0FFFFFF000
07FFFFE000
03FFFF8000
00FFFE0000
000FF00000
ENDCHAR
STARTCHAR 0027
ENCODING 39
SWIDTH 180 0
DWIDTH 12 0
BBX 5 15 4 32
BITMAP
F8
F8
F8
F8
F8
F8
F8
F8
F8
F8
F8
F8
F8
F8
F8
ENDCHAR
STARTCHAR 0028
ENCODING 40
SWIDTH 345 0
DWIDTH 23 0
BBX 15 62 4 -9
BITMAP
0030
007C
007E
00FE
01FC
01FC
03F8
03F8
07F0
07E0
0FE0
0FC0
1FC0
1F80
1F80
3F80
3F00
3F00
7F00
7E00
7E00
7E00
FC00
FC00
FC00
FC00
FC00
FC00
FC00
FC00
FC00
FC00
FC00
FC00
FC00
FC00
FC00
FC00
FC00
FC00
7E00
7E00
7E00
7E00
3F00
3F00
3F00
1F80
1F80
1FC0
0FC0
0FE0
07E0
07F0
03F8
03F8
01FC
01FC
00FE
007E
007C
0030
ENDCHAR
STARTCHAR 0029
ENCODING 41
SWIDTH 345 0
DWIDTH 23 0
BBX 16 63 4 -10
BITMAP
0800
1800
7C00
FE00
FE00
7F00
7F00
3F80
1FC0
1FC0
0FE0
0FE0
07F0
07F0
03F0
03F8
01F8
01F8
00FC
00FC
00FC
00FC
007E
007E
007E
007E
007E
007E
003E
003F
003F
003F
003F
003F
003F
003E
007E
007E
007E
007E
007E
007E
00FC
00FC
00FC
00FC
01F8
01F8
03F8
03F0
03F0
07F0
07E0
0FE0
1FC0
1FC0
3F80
7F00
7F00
FE00
FE00
3C00
1800
ENDCHAR
STARTCHAR 002A
ENCODING 42
SWIDTH 450 0
DWIDTH 30 0
BBX 23 23 4 25
BITMAP
001000
007C00
00FC00
00FC00
00FC00
00FC00
00FC00
FC7CFC
FF79FE
FFBBFE
FFFFFE
FFFFFC
3FFFF8
007C00
01FF00
07EF80
0FEFC0
0FEFE0
1FCFE0
1FC7F0
1F87E0
0F03E0
0600C0
ENDCHAR
STARTCHAR 002B
ENCODING 43
SWIDTH 570 0
DWIDTH 38 0
BBX 31 30 4 7
BITMAP
000FC000
000FC000
000FC000
000FC000
000FC000
000FC000
000FC000
000FC000
000FC000
000FC000
000FC000
000FC000
FFFFFFFE
FFFFFFFE
FFFFFFFE
FFFFFFFE
FFFFFFFE
FFFFFFFE
000FC000
000FC000
000FC000
000FC000
000FC000
000FC000
000FC000
000FC000
000FC000
000FC000
000FC000
000FC000
ENDCHAR
STARTCHAR 002C
ENCODING 44
SWIDTH 270 0
DWIDTH 18 0
BBX 11 13 4 -8
BITMAP
0FE0
1FC0
1FC0
1F80
3F80
3F00
3F00
7E00
7E00
7C00
FC00
F800
F800
ENDCHAR
STARTCHAR 002D
ENCODING 45
SWIDTH 435 0
DWIDTH 29 0
BBX 22 5 4 13
BITMAP
FFFFFC
FFFFFC
FFFFFC
FFFFFC
FFFFFC
ENDCHAR
STARTCHAR 002E
ENCODING 46
SWIDTH 270 0
DWIDTH 18 0
BBX 10 11 4 -1
BITMAP
1C00
3F80
7F80
FFC0
FFC0
FFC0
FFC0
FFC0
7FC0
7F80
1E00
ENDCHAR
STARTCHAR 002F
ENCODING 47
SWIDTH 420 0
DWIDTH 28 0
BBX 20 49 4 -1
BITMAP
0003F0
0007F0
0007F0
0007E0
000FE0
000FE0
000FE0
000FC0
001FC0
001FC0
001F80
003F80
003F80
003F80
003F00
007F00
007F00
007E00
00FE00
00FE00
00FE00
00FC00
01FC00
01FC00
01F800
03F800
03F800
03F800
03F000
07F000
07F000
07E000
0FE000
0FE000
0FC000
0FC000
1FC000
1FC000
1F8000
3F8000
3F8000
3F0000
3F0000
7F0000
7F0000
7E0000
FE0000
FE0000
FC0000
ENDCHAR
STARTCHAR 0030
ENCODING 48
SWIDTH 720 0
DWIDTH 48 0
BBX 44 49 2 -1
BITMAP
00000F000000
0001FFF80000
0007FFFF0000
001FFFFFC000
007FFFFFE000
00FFFFFFF800
01FFFFFFFC00
03FFFFFFFC00
07FFC03FFE00
0FFF0007FF00
0FFC0003FF80
1FF80000FF80
1FF000007FC0
3FE000007FC0
3FE000003FE0
3FC000003FE0
7FC000001FE0
7F8000001FE0
7F8000000FF0
7F8000000FF0
7F0000000FF0
FF0000000FF0
FF0000000FF0
FF0000000FF0
FF0000000FF0
FF0000000FF0
FF0000000FF0
FF0000000FF0
FF0000000FF0
7F8000000FF0
7F8000000FF0
7F8000001FE0
7F8000001FE0
3FC000001FE0
3FC000003FE0
3FE000007FC0
1FF000007FC0
1FF80000FF80
0FFC0001FF80
0FFE0007FF00
07FF801FFE00
03FFFFFFFE00
01FFFFFFFC00
00FFFFFFF800
007FFFFFF000
003FFFFFC000
000FFFFF0000
0003FFFC0000
00003FE00000
ENDCHAR
STARTCHAR 0031
ENCODING 49
SWIDTH 330 0
DWIDTH 22 0
BBX 15 47 3 0
BITMAP
01FE
01FE
01FE
01FE
FFFE
FFFE
FFFE
FFFE
FFFE
FFFE
FFFE
FFFE
01FE
01FE
01FE
01FE
01FE
01FE
01FE
01FE
01FE
01FE
01FE
01FE
01FE
01FE
01FE
01FE
01FE
01FE
01FE
01FE
01FE
01FE
01FE
01FE
01FE
01FE
01FE
01FE
01FE
01FE
01FE
01FE
01FE
01FE
01FE
ENDCHAR
STARTCHAR 0032
ENCODING 50
SWIDTH 555 0
DWIDTH 37 0
BBX 33 48 2 0
BITMAP
0003E00000
003FFE0000
00FFFF8000
01FFFFE000
03FFFFF000
07FFFFF800
0FFFFFFC00
1FFFFFFC00
1FFC0FFE00
3FF003FE00
3FE001FF00
7FC001FF00
7FC000FF00
7F8000FF00
7F8000FF00
7F8000FF00
018000FF00
000000FF00
000001FF00
000001FE00
000001FE00
000003FE00
000007FC00
000007FC00
00000FF800
00001FF000
00003FF000
00007FE000
00007FC000
0000FF8000
0001FF0000
0003FF0000
0007FE0000
000FFC0000
001FF80000
003FF00000
007FE00000
00FFC00000
01FF800000
03FF000000
07FE000000
0FFFFFFF80
1FFFFFFF80
3FFFFFFF80
7FFFFFFF80
FFFFFFFF80
FFFFFFFF80
FFFFFFFF80
ENDCHAR
STARTCHAR 0033
ENCODING 51
SWIDTH 525 0
DWIDTH 35 0
BBX 32 48 2 -1
BITMAP
7FFFFFFC
7FFFFFFC
7FFFFFFC
7FFFFFF8
7FFFFFF0
7FFFFFE0
7FFFFFE0
7FFFFF80
0000FF80
0001FF00
0003FE00
0007FC00
000FF800
001FF000
003FE000
007FF000
00FFFC00
01FFFF00
03FFFF80
07FFFFE0
0FFFFFF0
0FFFFFF0
07FCFFF8
03E01FFC
018007FC
000003FE
000003FE
000001FE
000001FE
000001FE
000000FF
000000FF
000001FE
000001FE
000001FE
000001FE
020003FE
0F0007FC
1F800FFC
7FC01FF8
FFFFFFF8
7FFFFFF0
3FFFFFE0
1FFFFFC0
0FFFFF80
03FFFF00
00FFFC00
001FE000
ENDCHAR
STARTCHAR 0034
ENCODING 52
SWIDTH 555 0
DWIDTH 37 0
BBX 34 47 1 0
BITMAP
0000007C00
00003FFC00
0001FFFC00
0007FFFC00
001FFFFC00
003FFFFC00
007FFFFC00
00FFFFFC00
01FFFBFC00
03FFC3FC00
07FF03FC00
07FE03FC00
0FFC03FC00
1FF803FC00
1FF003FC00
1FE003FC00
3FE003FC00
3FC003FC00
7FC003FC00
7F8003FC00
7F8003FC00
7F8003FC00
7F8003FC00
FF8003FC00
FF0003FC00
FF0003FC00
FF0003FC00
FFFFFFFFC0
FFFFFFFFC0
FFFFFFFFC0
FFFFFFFFC0
FFFFFFFFC0
FFFFFFFFC0
FFFFFFFFC0
000003FC00
000003FC00
000003FC00
000003FC00
000003FC00
000003FC00
000003FC00
000003FC00
000003FC00
000003FC00
000003FC00
000003FC00
000003FC00
ENDCHAR
STARTCHAR 0035
ENCODING 53
SWIDTH 540 0
DWIDTH 36 0
BBX 32 48 3 -1
BITMAP
1FFFFFFC
1FFFFFFC
1FFFFFFC
1FFFFFFC
3FFFFFFC
3FFFFFFC
3FFFFFFC
3FFFFFFC
3F800000
3F800000
3F800000
3F800000
3F800000
3F800000
3F800000
7F9FF800
7FFFFE00
7FFFFF80
7FFFFFC0
7FFFFFE0
7FFFFFF0
7FFFFFF8
7FF87FF8
7FC00FFC
1F8007FC
070003FE
000003FE
000001FE
000001FE
000001FE
000000FF
000000FF
000001FE
000001FE
000001FE
000001FE
060003FE
0F0007FC
1F800FFC
7FC01FF8
FFFFFFF8
7FFFFFF0
3FFFFFE0
1FFFFFC0
0FFFFF80
07FFFF00
01FFFC00
001FE000
ENDCHAR
STARTCHAR 0036
ENCODING 54
SWIDTH 615 0
DWIDTH 41 0
BBX 36 48 3 -1
BITMAP
00007FC000
0000FFC000
0001FF8000
0001FF0000
0003FE0000
0007FE0000
0007FC0000
000FF80000
001FF80000
003FF00000
003FE00000
007FC00000
00FFC00000
00FFBE0000
01FFFFC000
03FFFFF000
07FFFFFC00
07FFFFFE00
0FFFFFFF00
1FFFFFFF80
1FFE07FF80
3FF800FFC0
3FE0007FE0
7FC0003FE0
7FC0001FE0
7F80001FF0
FF80000FF0
FF00000FF0
FF00000FF0
FF00000FF0
FF00000FF0
FF00000FF0
FF00000FF0
FF00000FF0
FF80001FF0
7F80001FE0
7FC0003FE0
7FE0007FE0
3FF000FFC0
3FFC01FFC0
1FFFFFFF80
0FFFFFFF00
07FFFFFE00
03FFFFFC00
01FFFFF800
00FFFFF000
003FFFC000
0003FE0000
ENDCHAR
STARTCHAR 0037
ENCODING 55
SWIDTH 480 0
DWIDTH 32 0
BBX 30 47 2 0
BITMAP
FFFFFFFC
FFFFFFFC
FFFFFFFC
FFFFFFFC
FFFFFFFC
FFFFFFF8
FFFFFFF8
FFFFFFF8
00000FF0
00000FF0
00001FE0
00001FE0
00003FE0
00003FC0
00003FC0
00007F80
00007F80
0000FF80
0000FF00
1FFFFFF0
1FFFFFF0
1FFFFFF0
1FFFFFF0
1FFFFFF0
1FFFFFF0
1FFFFFF0
0007F800
0007F800
000FF000
000FF000
001FF000
001FE000
001FE000
003FC000
003FC000
007FC000
007F8000
007F8000
00FF0000
00FF0000
01FF0000
01FE0000
01FE0000
03FC0000
03FC0000
07FC0000
07F80000
ENDCHAR
STARTCHAR 0038
ENCODING 56
SWIDTH 570 0
DWIDTH 38 0
BBX 34 49 2 -1
BITMAP
0001E00000
001FFE0000
003FFF0000
00FFFFC000
01FFFFE000
03FFFFF000
03FFFFF000
07FF3FF800
07FC0FF800
07F807F800
07F003F800
0FF003FC00
0FF003FC00
07F003FC00
07F807F800
07F807F800
07FE1FF800
03FFFFF000
03FFFFF000
01FFFFE000
03FFFFF000
07FFFFF800
0FFFFFFC00
1FFFFFFE00
3FF807FF00
3FE001FF00
7FC000FF80
7F80007F80
7F80007F80
FF00003FC0
FF00003FC0
FF00003FC0
FF00003FC0
FF00003FC0
FF00003FC0
FF00003FC0
FF80007FC0
7F80007F80
7FC000FF80
3FE001FF00
3FF807FF00
1FFFFFFE00
1FFFFFFE00
0FFFFFFC00
07FFFFF800
03FFFFF000
00FFFFC000
003FFF0000
0007F80000
ENDCHAR
STARTCHAR 0039
ENCODING 57
SWIDTH 600 0
DWIDTH 40 0
BBX 37 48 2 0
BITMAP
0000700000
000FFF8000
003FFFE000
00FFFFF800
01FFFFFC00
07FFFFFF00
07FFFFFF00
0FFFFFFF80
1FFE03FFC0
3FF800FFC0
3FE0007FE0
3FE0003FE0
7FC0001FF0
7F80000FF0
7F80000FF0
FF80000FF0
FF000007F8
FF000007F8
FF000007F8
FF000007F8
FF80000FF0
7F80000FF0
7F80000FF0
7FC0001FF0
7FC0003FE0
3FE0003FE0
3FF800FFC0
1FFC03FFC0
0FFFFFFF80
0FFFFFFF80
07FFFFFF00
03FFFFFE00
00FFFFFE00
003FFFFC00
000FEFF800
00001FF800
00001FF000
00003FE000
00007FC000
0000FFC000
0000FF8000
0001FF0000
0003FF0000
0007FE0000
0007FC0000
000FF80000
001FF80000
001FF00000
ENDCHAR
STARTCHAR 003A
ENCODING 58
SWIDTH 270 0
DWIDTH 18 0
BBX 11 34 4 -1
BITMAP
1F00
7F80
FFC0
FFC0
FFC0
FFE0
FFC0
FFC0
7F80
3F00
0400
0000
0000
0000
0000
0000
0000
0000
0000
0000
0000
0000
0000
1C00
3F80
7F80
FFC0
FFC0
FFC0
FFC0
FFC0
7FC0
7F80
1E00
ENDCHAR
STARTCHAR 003B
ENCODING 59
SWIDTH 285 0
DWIDTH 19 0
BBX 12 41 4 -8
BITMAP
0F80
1FE0
3FE0
3FF0
7FF0
7FF0
3FF0
3FF0
3FE0
1FC0
0200
0000
0000
0000
0000
0000
0000
0000
0000
0000
0000
0000
0000
0000
0000
0000
0000
0000
0FE0
1FC0
1FC0
1F80
3F80
3F00
3F00
7E00
7E00
7C00
FC00
F800
F800
ENDCHAR
STARTCHAR 003C
ENCODING 60
SWIDTH 570 0
DWIDTH 38 0
BBX 31 30 4 6
BITMAP
00000002
0000000E
0000007E
000003FE
00000FFE
00007FFE
0003FFFE
001FFFF0
007FFF80
03FFFC00
1FFFF000
7FFF8000
FFFC0000
FFE00000
FF000000
FF000000
FFE00000
FFFC0000
FFFF8000
1FFFE000
03FFFC00
00FFFF80
001FFFF0
0003FFFE
0000FFFE
00001FFE
000003FE
000000FE
0000001E
00000002
ENDCHAR
STARTCHAR 003D
ENCODING 61
SWIDTH 570 0
DWIDTH 38 0
BBX 31 20 4 12
BITMAP
FFFFFFFE
FFFFFFFE
FFFFFFFE
FFFFFFFE
FFFFFFFE
FFFFFFFE
00000000
00000000
00000000
00000000
00000000
00000000
00000000
00000000
FFFFFFFE
FFFFFFFE
FFFFFFFE
FFFFFFFE
FFFFFFFE
FFFFFFFE
ENDCHAR
STARTCHAR 003E
ENCODING 62
SWIDTH 570 0
DWIDTH 38 0
BBX 31 28 4 7
BITMAP
C0000000
F8000000
FF000000
FFE00000
FFF80000
FFFF0000
3FFFE000
07FFF800
00FFFF00
003FFFE0
0007FFFC
0000FFFE
00001FFE
000003FE
000001FE
00000FFE
00007FFE
0003FFFC
001FFFE0
00FFFF80
07FFFC00
3FFFE000
FFFF8000
FFFC0000
FFE00000
FF000000
FC000000
E0000000
ENDCHAR
STARTCHAR 003F
ENCODING 63
SWIDTH 435 0
DWIDTH 29 0
BBX 22 49 4 -1
BITMAP
001000
03FF00
0FFFC0
1FFFE0
3FFFF0
7FFFF8
7FFFF8
FFDFFC
FF03FC
FE03FC
3C03FC
0401FC
0003FC
0003FC
0007F8
0007F8
000FF0
001FF0
001FE0
003FC0
007F80
007F80
00FF00
00FE00
01FE00
01FC00
01FC00
03FC00
03FC00
03F800
03F800
03F800
03F800
000000
000000
000000
000000
000000
006000
01FC00
03FE00
07FE00
07FF00
07FF00
07FF00
07FE00
03FE00
01FC00
00F000
ENDCHAR
STARTCHAR 0040
ENCODING 64
SWIDTH 810 0
DWIDTH 54 0
BBX 47 49 4 -1
BITMAP
00000FFC0000
0000FFFFC000
0003FFFFF000
000FFFFFFC00
003FFFFFFE00
007FE001FF00
00FF00007F80
01FC00001FC0
03F800000FE0
07F0000003F0
0FC0000003F0
1FC0000001F8
1F80000000F8
3F001FE000FC
3E003FF7C07C
7E00FFFFC07C
7E00FFFFC07C
7C01FFFFC07E
FC03FF3FC07E
FC03FC1FC07E
F807F80F807E
F807F00F807E
F807F00F807E
F807F00F807C
F807F00F807C
F807F01F80FC
F807F01F80F8
F807F01F81F8
F807F83F81F8
FC07FFFFC3F0
FC03FFFFFFE0
7C03FFFFFFE0
7C01FFF7FFC0
7E00FFC3FF00
3E003F81FC00
3F0000000000
1F8000000000
1F8000000000
0FC000000000
07E000000300
07F800000780
03FC00001FC0
01FF00007FC0
007FE001FF80
003FFFFFFE00
001FFFFFFC00
0007FFFFF000
0000FFFFC000
00001FFC0000
ENDCHAR
STARTCHAR 0041
ENCODING 65
SWIDTH 555 0
DWIDTH 37 0
BBX 34 48 3 0
BITMAP
0007800000
007FF80000
01FFFE0000
03FFFF0000
07FFFF8000
0FFFFFC000
1FFFFFE000
3FFFFFE000
3FF87FF000
7FE01FF000
7FC00FF800
7FC00FF800
7F8007F800
7F8007F800
FF8007FC00
FF8007FC00
FF8007FC00
FF8007FC00
FF8007FC00
FF8007FC00
FF8007FC00
FF8007FC00
FF8007FC00
FF8007FC00
FF8007FC00
FF8007FC00
FF8007FC00
FF8007FC00
FF8007FC00
FF8007FC00
FF8007FC00
FF8007FC00
FF8007FC00
FF8007FC00
FF8007FC00
FF8007FC00
FF8007FC00
FF8007FC00
FF8007FC00
FF8007FC00
FFFFFFFFC0
FFFFFFFFC0
FFFFFFFFC0
FFFFFFFFC0
FFFFFFFFC0
FFFFFFFFC0
FFFFFFFFC0
FFFFFFFFC0
ENDCHAR
STARTCHAR 0042
ENCODING 66
SWIDTH 615 0
DWIDTH 41 0
BBX 38 47 2 0
BITMAP
07FFFE0000
07FFFFF000
07FFFFFE00
07FFFFFF00
07FFFFFF80
07FFFFFFC0
07FFFFFFE0
07FFFFFFE0
07F800FFF0
07F8003FF0
07F8001FF0
07F8000FF8
07F8000FF8
07F8000FF8
07F8000FF8
07F8000FF8
07F8000FF0
07F8001FF0
07F8003FF0
07F807FFE0
FFFFFFFFE0
FFFFFFFFC0
FFFFFFFF80
FFFFFFFFC0
FFFFFFFFE0
FFFFFFFFF0
FFFFFFFFF0
07F8007FF8
07F8001FF8
07F8000FF8
07F80007FC
07F80007FC
07F80007FC
07F80003FC
07F80007FC
07F80007FC
07F80007FC
07F8000FF8
07F8003FF8
07FFFFFFF8
07FFFFFFF0
07FFFFFFE0
07FFFFFFE0
07FFFFFFC0
07FFFFFF00
07FFFFFC00
07FFFFE000
ENDCHAR
STARTCHAR 0043
ENCODING 67
SWIDTH 675 0
DWIDTH 45 0
BBX 43 49 2 -1
BITMAP
000001F00000
00007FFF8000
0001FFFFF000
000FFFFFF800
001FFFFFFE00
007FFFFFFF00
00FFFFFFFF80
01FFFFFFFFC0
03FFF807FFE0
07FFC000FFC0
07FF00007F00
0FFE00001E00
1FFC00000C00
1FF800000000
3FF000000000
3FE000000000
3FE000000000
7FC000000000
7FC000000000
7F8000000000
7F8000000000
FF8000000000
FF8000000000
FF8000000000
FF8000000000
FF8000000000
FF8000000000
FF8000000000
7F8000000000
7F8000000000
7FC000000000
7FC000000000
3FE000000000
3FE000000000
3FF000000000
1FF800000000
1FF800000C00
0FFE00001E00
07FF00003F00
07FFC000FF80
03FFF003FFC0
01FFFFFFFFE0
00FFFFFFFFC0
007FFFFFFF80
001FFFFFFE00
000FFFFFFC00
0003FFFFF000
0000FFFFC000
00000FFC0000
ENDCHAR
STARTCHAR 0044
ENCODING 68
SWIDTH 660 0
DWIDTH 44 0
BBX 39 47 4 0
BITMAP
FFFF000000
FFFFFC0000
FFFFFF8000
FFFFFFE000
FFFFFFF800
FFFFFFFC00
FFFFFFFF00
FFFFFFFF80
FF003FFF80
FF0007FFC0
FF0001FFE0
FF00007FF0
FF00003FF0
FF00001FF8
FF00000FF8
FF00000FF8
FF000007FC
FF000007FC
FF000007FC
FF000003FC
FF000003FC
FF000003FC
FF000003FE
FF000003FE
FF000003FE
FF000003FC
FF000003FC
FF000003FC
FF000003FC
FF000007FC
FF000007FC
FF00000FF8
FF00000FF8
FF00001FF8
FF00003FF0
FF00007FF0
FF0000FFE0
FF0003FFE0
FF001FFFC0
FFFFFFFF80
FFFFFFFF00
FFFFFFFE00
FFFFFFFC00
FFFFFFF000
FFFFFFC000
FFFFFF0000
FFFFF00000
ENDCHAR
STARTCHAR 0045
ENCODING 69
SWIDTH 510 0
DWIDTH 34 0
BBX 32 47 2 0
BITMAP
0FFFFF00
0FFFFF00
0FFFFF00
0FFFFF00
0FFFFF00
0FFFFF00
0FFFFF00
0FFFFF00
0FF00000
0FF00000
0FF00000
0FF00000
0FF00000
0FF00000
0FF00000
0FF00000
0FF00000
0FF00000
0FF00000
0FF00000
FFFFFFC0
FFFFFFC0
FFFFFFC0
FFFFFFC0
FFFFFFC0
FFFFFFC0
FFFFFFC0
0FF00000
0FF00000
0FF00000
0FF00000
0FF00000
0FF00000
0FF00000
0FF00000
0FF00000
0FF00000
0FF00000
0FF00000
0FFFFFFF
0FFFFFFF
0FFFFFFF
0FFFFFFF
0FFFFFFF
0FFFFFFF
0FFFFFFF
0FFFFFFF
ENDCHAR
STARTCHAR 0046
ENCODING 70
SWIDTH 465 0
DWIDTH 31 0
BBX 29 47 2 0
BITMAP
07FFFFF8
07FFFFF8
07FFFFF8
07FFFFF8
07FFFFF8
07FFFFF8
07FFFFF8
07FFFFF8
07F80000
07F80000
07F80000
07F80000
07F80000
07F80000
07F80000
07F80000
07F80000
07F80000
07F80000
07F80000
07F80000
FFFFFFF0
FFFFFFF0
FFFFFFF0
FFFFFFF0
FFFFFFF0
FFFFFFF0
FFFFFFF0
FFFFFFF0
07F80000
07F80000
07F80000
07F80000
07F80000
07F80000
07F80000
07F80000
07F80000
07F80000
07F80000
07F80000
07F80000
07F80000
07F80000
07F80000
07F80000
07F80000
ENDCHAR
STARTCHAR 0047
ENCODING 71
SWIDTH 825 0
DWIDTH 55 0
BBX 53 49 2 -1
BITMAP
000000F0000000
00007FFF800000
0001FFFFF00000
0007FFFFFC0000
001FFFFFFE0000
003FFFFFFF0000
00FFFFFFFFC000
01FFFFFFFFC000
03FFF807FFE000
07FFC000FFC000
07FF00003F8000
0FFE00001F0000
1FFC00000E0000
1FF80000040000
3FF00000000000
3FE00000000000
3FE00000000000
7FC00000000000
7FC00000000000
7F800000000000
7F800000000000
FF8000FFFFFFF8
FF8000FFFFFFF8
FF8000FFFFFFF8
FF8000FFFFFFF8
FF8000FFFFFFF8
FF8000FFFFFFF8
FF8000FFFFFFF8
7F80000000FF80
7F80000000FF80
7FC0000000FF80
7FC0000001FF00
3FC0000001FF00
3FE0000003FF00
3FF0000003FE00
1FF8000007FE00
1FF800000FFC00
0FFE00001FFC00
07FF00003FF800
07FFC000FFF800
03FFF003FFF000
01FFFFFFFFE000
00FFFFFFFFC000
007FFFFFFF8000
001FFFFFFF0000
000FFFFFFC0000
0003FFFFF00000
00007FFFC00000
00000FFC000000
ENDCHAR
STARTCHAR 0048
ENCODING 72
SWIDTH 570 0
DWIDTH 38 0
BBX 33 47 2 0
BITMAP
0FF0007F80
0FF0007F80
0FF0007F80
0FF0007F80
0FF0007F80
0FF0007F80
0FF0007F80
0FF0007F80
0FF0007F80
0FF0007F80
0FF0007F80
0FF0007F80
0FF0007F80
0FF0007F80
0FF0007F80
0FF0007F80
0FF0007F80
0FF0007F80
0FF0007F80
0FF0007F80
FFFFFFFF80
FFFFFFFF80
FFFFFFFF80
FFFFFFFF80
FFFFFFFF80
FFFFFFFF80
FFFFFFFF80
FFFFFFFF80
0FF0007F80
0FF0007F80
0FF0007F80
0FF0007F80
0FF0007F80
0FF0007F80
0FF0007F80
0FF0007F80
0FF0007F80
0FF0007F80
0FF0007F80
0FF0007F80
0FF0007F80
0FF0007F80
0FF0007F80
0FF0007F80
0FF0007F80
0FF0007F80
0FF0007F80
ENDCHAR
STARTCHAR 0049
ENCODING 73
SWIDTH 225 0
DWIDTH 15 0
BBX 19 54 -2 0
BITMAP
004000
004000
004000
00E000
00E000
00E000
01F000
FFFFE0
7FFFC0
3FFF80
1FFE00
07FC00
07FC00
07FC00
07FC00
0FBE00
0E0E00
0C0600
000000
000000
000000
000000
000000
000000
000000
07FC00
07FC00
07FC00
07FC00
07FC00
07FC00
07FC00
07FC00
07FC00
07FC00
07FC00
07FC00
07FC00
07FC00
07FC00
07FC00
07FC00
07FC00
07FC00
07FC00
07FC00
07FC00
07FC00
07FC00
07FC00
07FC00
07FC00
07FC00
07FC00
ENDCHAR
STARTCHAR 004A
ENCODING 74
SWIDTH 480 0
DWIDTH 32 0
BBX 27 48 1 -1
BITMAP
0003FFE0
0003FFE0
0003FFE0
0003FFE0
0003FFE0
0003FFE0
0003FFE0
0003FFE0
00001FE0
00001FE0
00001FE0
00001FE0
00001FE0
00001FE0
00001FE0
00001FE0
00001FE0
00001FE0
00001FE0
00001FE0
00001FE0
00001FE0
00001FE0
00001FE0
00001FE0
00001FE0
00001FE0
00001FE0
00001FE0
00001FE0
00001FE0
00001FE0
00001FE0
00001FE0
00001FE0
00001FE0
07003FE0
0F003FE0
3F807FC0
FFC0FFC0
FFFFFFC0
7FFFFF80
3FFFFF00
3FFFFF00
1FFFFE00
0FFFFC00
03FFF000
007F8000
ENDCHAR
STARTCHAR 004B
ENCODING 75
SWIDTH 555 0
DWIDTH 37 0
BBX 33 47 2 0
BITMAP
0FF007FC00
0FF007FC00
0FF007FC00
0FF007FC00
0FF007FC00
0FF007FC00
0FF007FC00
0FF007FC00
0FF007FC00
0FF007FC00
0FF007FC00
0FF007FC00
0FF007FC00
0FF007FC00
0FF007F800
0FF007F800
0FF00FF800
0FF01FF800
0FF03FF000
FFFFFFF000
FFFFFFE000
FFFFFFE000
FFFFFFF000
FFFFFFF800
FFFFFFF800
FFFFFFFC00
FFFFFFFE00
0FF007FE00
0FF003FE00
0FF001FF00
0FF001FF00
0FF000FF00
0FF000FF00
0FF000FF00
0FF000FF00
0FF000FF80
0FF000FF80
0FF000FF80
0FF000FF80
0FF000FF80
0FF000FF80
0FF000FF80
0FF000FF80
0FF000FF80
0FF000FF80
0FF000FF80
0FF000FF80
ENDCHAR
STARTCHAR 004C
ENCODING 76
SWIDTH 450 0
DWIDTH 30 0
BBX 25 47 4 0
BITMAP
FF000000
FF000000
FF000000
FF000000
FF000000
FF000000
FF000000
FF000000
FF000000
FF000000
FF000000
FF000000
FF000000
FF000000
FF000000
FF000000
FF000000
FF000000
FF000000
FF000000
FF000000
FF000000
FF000000
FF000000
FF000000
FF000000
FF000000
FF000000
FF000000
FF000000
FF000000
FF000000
FF000000
FF000000
FF000000
FF000000
FF000000
FF000000
FF000000
FFFFFF80
FFFFFF80
FFFFFF80
FFFFFF80
FFFFFF80
FFFFFF80
FFFFFF80
FFFFFF80
ENDCHAR
STARTCHAR 004D
ENCODING 77
SWIDTH 870 0
DWIDTH 58 0
BBX 54 48 1 0
BITMAP
04000000000000
0E0000700003FC
1F00007C0003FC
3FC0007E0003FC
3FE0007F0003FC
7FF0007F8003FC
FFF8007FE003FC
7FFE007FF003FC
1FFF007FF803FC
0FFF807FFC03FC
07FFE07FFF03FC
07FFF07FFF83FC
07FFF87FFFC3FC
07FFFC7FFFF3FC
07FFFF7FFFFBFC
07FFFFFFFFFFFC
07FBFFFFDFFFFC
07F9FFFFCFFFFC
07F8FFFFC7FFFC
07F83FFFC1FFFC
07F81FFFC0FFFC
07F80FFFC07FFC
07F807FFC01FFC
07F801FFC00FFC
07F800FFC007FC
07F8007FC003FC
07F8007FC003FC
07F8007FC003FC
07F8007FC003FC
07F8007FC003FC
07F8007FC003FC
07F8007FC003FC
07F8007FC003FC
07F8007FC003FC
07F8007FC003FC
07F8007FC003FC
07F8007FC003FC
07F8007FC003FC
07F8007FC003FC
07F8007FC003FC
07F8007FC003FC
07F8007FC003FC
07F8007FC003FC
07F8007FC003FC
07F8007FC003FC
07F8007FC003FC
07F8007FC003FC
07F8007FC003FC
ENDCHAR
STARTCHAR 004E
ENCODING 78
SWIDTH 555 0
DWIDTH 37 0
BBX 33 48 1 0
BITMAP
0400000000
0E0000FF80
1F0000FF80
3FC000FF80
3FE000FF80
7FF000FF80
FFF800FF80
7FFE00FF80
1FFF00FF80
0FFF80FF80
0FFFE0FF80
0FFFF0FF80
0FFFF8FF80
0FFFFCFF80
0FFFFFFF80
0FFFFFFF80
0FF7FFFF80
0FF3FFFF80
0FF0FFFF80
0FF07FFF80
0FF03FFF80
0FF01FFF80
0FF007FF80
0FF003FF80
0FF001FF80
0FF000FF80
0FF000FF80
0FF000FF80
0FF000FF80
0FF000FF80
0FF000FF80
0FF000FF80
0FF000FF80
0FF000FF80
0FF000FF80
0FF000FF80
0FF000FF80
0FF000FF80
0FF000FF80
0FF000FF80
0FF000FF80
0FF000FF80
0FF000FF80
0FF000FF80
0FF000FF80
0FF000FF80
0FF000FF80
0FF000FF80
ENDCHAR
STARTCHAR 004F
ENCODING 79
SWIDTH 810 0
DWIDTH 54 0
BBX 50 49 2 -1
BITMAP
000000F0000000
00007FFF800000
0001FFFFF00000
0007FFFFFC0000
001FFFFFFF0000
003FFFFFFF8000
00FFFFFFFFC000
01FFFFFFFFE000
03FFFC07FFF000
07FFC000FFF800
07FF00003FFC00
0FFE00000FFE00
1FFC000007FE00
1FF8000003FF00
3FF0000001FF00
3FE0000000FF80
3FE0000000FF80
7FC00000007F80
7FC00000007FC0
7F800000007FC0
7F800000003FC0
FF800000003FC0
FF800000003FC0
FF800000003FC0
FF800000003FC0
FF800000003FC0
FF800000003FC0
FF800000003FC0
7F800000003FC0
7F800000007FC0
7FC00000007FC0
7FC00000007FC0
3FE0000000FF80
3FE0000000FF80
3FF0000001FF00
1FF8000003FF00
1FF8000007FE00
0FFE00000FFE00
07FF00001FFC00
07FFC0007FFC00
03FFF003FFF800
01FFFFFFFFF000
00FFFFFFFFE000
007FFFFFFFC000
001FFFFFFF0000
000FFFFFFE0000
0003FFFFF80000
00007FFFC00000
00000FFE000000
ENDCHAR
STARTCHAR 0050
ENCODING 80
SWIDTH 570 0
DWIDTH 38 0
BBX 35 47 2 0
BITMAP
1FFFF00000
1FFFFFC000
1FFFFFF000
1FFFFFFC00
1FFFFFFE00
1FFFFFFF00
1FFFFFFF80
1FFFFFFF80
1FE003FFC0
1FE000FFC0
1FE0007FE0
1FE0003FE0
1FE0001FE0
1FE0001FE0
1FE0001FE0
1FE0001FE0
1FE0001FE0
1FE0003FE0
1FE0003FE0
1FE0007FC0
1FE000FFC0
1FE003FFC0
FFFFFFFF80
FFFFFFFF00
FFFFFFFF00
FFFFFFFE00
FFFFFFF800
FFFFFFF000
FFFFFF8000
FFFFF00000
1FE0000000
1FE0000000
1FE0000000
1FE0000000
1FE0000000
1FE0000000
1FE0000000
1FE0000000
1FE0000000
1FE0000000
1FE0000000
1FE0000000
1FE0000000
1FE0000000
1FE0000000
1FE0000000
1FE0000000
ENDCHAR
STARTCHAR 0051
ENCODING 81
SWIDTH 810 0
DWIDTH 54 0
BBX 50 50 2 -2
BITMAP
000000F0000000
00007FFF800000
0001FFFFF00000
0007FFFFFC0000
001FFFFFFF0000
003FFFFFFF8000
00FFFFFFFFC000
01FFFFFFFFE000
03FFFC07FFF000
07FFC000FFF800
07FF00003FFC00
0FFE00000FFE00
1FFC000007FE00
1FF8000003FF00
3FF0000001FF00
3FE0000000FF80
3FE0000000FF80
7FC00000007F80
7FC00000007FC0
7F800000007FC0
7F800000003FC0
FF800000003FC0
FF800000003FC0
FF800000003FC0
FF800000003FC0
FF800000003FC0
FF800000003FC0
FF800000003FC0
7F800000003FC0
7F800000007FC0
7FC00000007FC0
7FC00000007FC0
3FE0000018FF80
3FE000003CFF80
3FF000007FFF00
1FF80000FFFF00
1FF80001FFFE00
0FFE0003FFFE00
07FF0001FFFC00
07FFC000FFFC00
03FFF003FFF800
01FFFFFFFFFC00
00FFFFFFFFFE00
007FFFFFFFFF00
001FFFFFFFFF00
000FFFFFFFFE00
0003FFFFF9FC00
00007FFFC0F800
00000FFE007000
00000000002000
ENDCHAR
STARTCHAR 0052
ENCODING 82
SWIDTH 600 0
DWIDTH 40 0
BBX 36 47 2 0
BITMAP
0FFFFE0000
0FFFFFE000
0FFFFFF800
0FFFFFFE00
0FFFFFFF00
0FFFFFFF80
0FFFFFFFC0
0FFFFFFFE0
0FF001FFE0
0FF0007FE0
0FF0001FF0
0FF0001FF0
0FF0000FF0
0FF0000FF0
0FF0000FF0
0FF0000FF0
0FF0000FF0
0FF0000FF0
0FF0001FF0
0FF0003FE0
0FF000FFE0
FFFFFFFFE0
FFFFFFFFC0
FFFFFFFF80
FFFFFFFF00
FFFFFFFE00
FFFFFFFC00
FFFFFFFE00
FFFFFFFF00
0FF007FF00
0FF001FF80
0FF000FF80
0FF0007F80
0FF0007FC0
0FF0007FC0
0FF0003FC0
0FF0003FC0
0FF0003FC0
0FF0003FC0
0FF0003FC0
0FF0003FC0
0FF0003FC0
0FF0003FC0
0FF0003FC0
0FF0003FC0
0FF0003FC0
0FF0003FC0
ENDCHAR
STARTCHAR 0053
ENCODING 83
SWIDTH 495 0
DWIDTH 33 0
BBX 30 49 2 -1
BITMAP
000FC000
00FFF800
01FFFE00
07FFFF80
0FFFFFC0
0FFFFFC0
1FFFFFE0
1FFFFFF0
3FF87FF0
3FE01FF0
3FE00FF8
3FC00FF8
3FC007E0
3FC00700
3FE00000
3FE00000
3FF00000
1FF80000
1FFE0000
0FFF0000
07FFC000
03FFF000
01FFF800
00FFFE00
003FFF00
001FFF80
0007FFC0
0003FFE0
0000FFF0
00007FF0
00001FF8
00000FF8
000007FC
000007FC
010007FC
0F0003FC
FF8007FC
FF8007FC
7FC007FC
7FE00FF8
7FF03FF8
3FFFFFF8
3FFFFFF0
1FFFFFE0
0FFFFFE0
07FFFFC0
01FFFF00
00FFFE00
001FF000
ENDCHAR
STARTCHAR 0054
ENCODING 84
SWIDTH 510 0
DWIDTH 34 0
BBX 31 47 2 0
BITMAP
FFFFFFFE
FFFFFFFE
FFFFFFFE
FFFFFFFE
FFFFFFFE
FFFFFFFE
FFFFFFFE
FFFFFFFE
001FE000
001FE000
001FE000
001FE000
001FE000
001FE000
001FE000
001FE000
001FE000
001FE000
001FE000
001FE000
001FE000
001FE000
001FE000
001FE000
001FE000
001FE000
001FE000
001FE000
001FE000
001FE000
001FE000
001FE000
001FE000
001FE000
001FE000
001FE000
001FE000
001FE000
001FE000
001FE000
001FE000
001FE000
001FE000
001FE000
001FE000
001FE000
001FE000
ENDCHAR
STARTCHAR 0055
ENCODING 85
SWIDTH 525 0
DWIDTH 35 0
BBX 29 48 3 -1
BITMAP
FF0007F8
FF0007F8
FF0007F8
FF0007F8
FF0007F8
FF0007F8
FF0007F8
FF0007F8
FF0007F8
FF0007F8
FF0007F8
FF0007F8
FF0007F8
FF0007F8
FF0007F8
FF0007F8
FF0007F8
FF0007F8
FF0007F8
FF0007F8
FF0007F8
FF0007F8
FF0007F8
FF0007F8
FF0007F8
FF0007F8
FF0007F8
FF0007F8
FF0007F8
FF0007F8
FF0007F8
FF0007F8
FF0007F8
FF0007F8
FF8007F8
FF800FF8
FF800FF8
7FC00FF0
7FC01FF0
7FF03FF0
3FFFFFE0
3FFFFFE0
1FFFFFC0
0FFFFF80
07FFFF00
03FFFE00
00FFF800
001FE000
ENDCHAR
STARTCHAR 0056
ENCODING 86
SWIDTH 480 0
DWIDTH 32 0
BBX 28 47 1 0
BITMAP
FF000FF0
FF000FF0
FF000FF0
FF000FF0
FF000FF0
FF000FF0
FF000FF0
FF000FF0
FF000FF0
FF000FF0
FF000FF0
FF000FF0
FF000FF0
FF000FF0
FF000FF0
FF000FF0
FF000FF0
FF000FF0
FF000FF0
FF000FF0
FF000FF0
FF000FF0
FF000FF0
FF000FF0
FF000FF0
FF000FF0
FF801FF0
FF801FF0
FF801FF0
7F801FE0
7F801FE0
7F803FE0
7FC03FE0
7FC03FE0
3FC03FC0
3FE07FC0
3FE07FC0
1FF0FF80
1FF0FF80
0FF9FF00
0FF9FF00
07FFFE00
03FFFC00
03FFFC00
01FFF800
00FFF000
007FE000
ENDCHAR
STARTCHAR 0057
ENCODING 87
SWIDTH 780 0
DWIDTH 52 0
BBX 48 47 1 0
BITMAP
FF000FF000FF
FF000FF000FF
FF000FF000FF
FF000FF000FF
FF000FF000FF
FF000FF000FF
FF000FF000FF
FF000FF000FF
FF000FF000FF
FF000FF000FF
FF000FF000FF
FF000FF000FF
FF000FF000FF
FF000FF000FF
FF000FF000FF
FF000FF000FF
FF000FF000FF
FF000FF000FF
FF000FF000FF
FF000FF000FF
FF000FF000FF
FF000FF000FF
FF000FF000FF
FF000FF000FF
FF000FF000FF
FF000FF000FF
FF801FF800FF
FF801FF801FF
FF801FF801FF
7F801FF801FE
7F801FF801FE
7F803FFC01FE
7FC03FFC03FE
7FC03FFC03FE
3FC03FFC03FC
3FE07FFE07FC
3FE07FFE07FC
1FF0FFFF0FF8
1FF0FFFF0FF8
0FF9FFFF9FF0
0FF9FFFF9FF0
07FFFE7FFFE0
03FFFC3FFFC0
03FFFC1FFFC0
01FFF81FFF80
00FFF00FFF00
007FE007FE00
ENDCHAR
STARTCHAR 0058
ENCODING 88
SWIDTH 525 0
DWIDTH 35 0
BBX 30 47 3 0
BITMAP
FF8007FC
FF8007FC
FF8007FC
FF8007FC
FF8007FC
FF8007FC
FF8007FC
FF8007FC
FF8007FC
FF8007FC
FF8007FC
FF8007F8
7F8007F8
7FC00FF8
7FC00FF8
7FE01FF0
3FF87FF0
3FFFFFF0
1FFFFFE0
0FFFFFC0
07FFFF80
0FFFFFC0
1FFFFFE0
1FFFFFE0
3FFFFFF0
3FF03FF0
7FE01FF8
7FC00FF8
7F8007F8
7F8007F8
FF8007F8
FF8007FC
FF8007FC
FF8007FC
FF8007FC
FF8007FC
FF8007FC
FF8007FC
FF8007FC
FF8007FC
FF8007FC
FF8007FC
FF8007FC
FF8007FC
FF8007FC
FF8007FC
FF8007FC
ENDCHAR
STARTCHAR 0059
ENCODING 89
SWIDTH 510 0
DWIDTH 34 0
BBX 29 47 3 0
BITMAP
FF0007F8
FF0007F8
FF0007F8
FF0007F8
FF0007F8
FF0007F8
FF0007F8
FF0007F8
FF0007F8
FF0007F8
FF0007F8
FF0007F8
FF0007F8
FF0007F8
FF0007F8
FF0007F8
FF0007F8
FF0007F8
FF0007F8
FF0007F8
FF0007F8
FF0007F8
FF000FF8
FF000FF8
FF800FF8
FF800FF0
7FC01FF0
7FE03FF0
7FFFFFE0
3FFFFFE0
1FFFFFC0
1FFFFF80
0FFFFF00
07FFFE00
01FFFC00
007FE000
003FE000
003FE000
003FE000
003FE000
003FE000
003FE000
003FE000
003FE000
003FE000
003FE000
003FE000
ENDCHAR
STARTCHAR 005A
ENCODING 90
SWIDTH 525 0
DWIDTH 35 0
BBX 31 47 2 0
BITMAP
FFFFFFFE
FFFFFFFE
FFFFFFFE
FFFFFFFE
FFFFFFFE
FFFFFFFE
FFFFFFFC
FFFFFFF8
00000FF8
00001FF0
00001FF0
00003FE0
00007FC0
00007FC0
0000FF80
0000FF80
0001FF00
0003FE00
0003FE00
0007FC00
0007FC00
000FF800
001FF800
001FF000
003FE000
003FE000
007FC000
00FFC000
00FF8000
01FF0000
01FF0000
03FE0000
03FE0000
07FC0000
0FF80000
0FF80000
1FF00000
1FF00000
3FE00000
7FFFFFFC
7FFFFFFC
FFFFFFFC
FFFFFFFC
FFFFFFFC
FFFFFFFC
FFFFFFFC
FFFFFFFC
ENDCHAR
STARTCHAR 005B
ENCODING 91
SWIDTH 255 0
DWIDTH 17 0
BBX 10 65 4 -10
BITMAP
FFC0
FFC0
FFC0
FFC0
FFC0
F800
F800
F800
F800
F800
F800
F800
F800
F800
F800
F800
F800
F800
F800
F800
F800
F800
F800
F800
F800
F800
F800
F800
F800
F800
F800
F800
F800
F800
F800
F800
F800
F800
F800
F800
F800
F800
F800
F800
F800
F800
F800
F800
F800
F800
F800
F800
F800
F800
F800
F800
F800
F800
F800
F800
FFC0
FFC0
FFC0
FFC0
FFC0
ENDCHAR
STARTCHAR 005C
ENCODING 92
SWIDTH 420 0
DWIDTH 28 0
BBX 20 49 4 -1
BITMAP
FC0000
FE0000
FE0000
7E0000
7F0000
7F0000
7F0000
3F0000
3F8000
3F8000
1F8000
1FC000
1FC000
1FC000
0FC000
0FE000
0FE000
07E000
07F000
07F000
07F000
03F000
03F800
03F800
01F800
01FC00
01FC00
01FC00
00FC00
00FE00
00FE00
007E00
007F00
007F00
007F00
003F00
003F80
003F80
001F80
001FC0
001FC0
001FC0
000FC0
000FE0
000FE0
0007E0
0007F0
0007F0
0003F0
ENDCHAR
STARTCHAR 005D
ENCODING 93
SWIDTH 255 0
DWIDTH 17 0
BBX 10 65 4 -10
BITMAP
FFC0
FFC0
FFC0
FFC0
FFC0
0FC0
0FC0
0FC0
0FC0
0FC0
0FC0
0FC0
0FC0
0FC0
0FC0
0FC0
0FC0
0FC0
0FC0
0FC0
0FC0
0FC0
0FC0
0FC0
0FC0
0FC0
0FC0
0FC0
0FC0
0FC0
0FC0
0FC0
0FC0
0FC0
0FC0
0FC0
0FC0
0FC0
0FC0
0FC0
0FC0
0FC0
0FC0
0FC0
0FC0
0FC0
0FC0
0FC0
0FC0
0FC0
0FC0
0FC0
0FC0
0FC0
0FC0
0FC0
0FC0
0FC0
0FC0
0FC0
FFC0
FFC0
FFC0
FFC0
FFC0
ENDCHAR
STARTCHAR 005E
ENCODING 94
SWIDTH 510 0
DWIDTH 34 0
BBX 26 17 4 23
BITMAP
007F8000
00FFC000
00FFE000
01FFE000
01FFF000
03F3F000
03F3F800
07E1F800
0FE1FC00
0FC0FC00
1FC0FE00
1F807F00
3F803F00
3F003F80
7F001F80
7E001FC0
FC000FC0
ENDCHAR
STARTCHAR 005F
ENCODING 95
SWIDTH 540 0
DWIDTH 36 0
BBX 29 5 4 -8
BITMAP
FFFFFFF8
FFFFFFF8
FFFFFFF8
FFFFFFF8
FFFFFFF8
ENDCHAR
STARTCHAR 0060
ENCODING 96
SWIDTH 150 0
DWIDTH 10 0
BBX 10 8 0 51
BITMAP
FE00
7E00
3F00
1F00
1F80
0F80
07C0
03C0
ENDCHAR
STARTCHAR 0061
ENCODING 97
SWIDTH 555 0
DWIDTH 37 0
BBX 34 48 3 0
BITMAP
0007800000
007FF80000
01FFFE0000
03FFFF0000
07FFFF8000
0FFFFFC000
1FFFFFE000
3FFFFFE000
3FF87FF000
7FE01FF000
7FC00FF800
7FC00FF800
7F8007F800
7F8007F800
FF8007FC00
FF8007FC00
FF8007FC00
FF8007FC00
FF8007FC00
FF8007FC00
FF8007FC00
FF8007FC00
FF8007FC00
FF8007FC00
FF8007FC00
FF8007FC00
FF8007FC00
FF8007FC00
FF8007FC00
FF8007FC00
FF8007FC00
FF8007FC00
FF8007FC00
FF8007FC00
FF8007FC00
FF8007FC00
FF8007FC00
FF8007FC00
FF8007FC00
FF8007FC00
FFFFFFFFC0
FFFFFFFFC0
FFFFFFFFC0
FFFFFFFFC0
FFFFFFFFC0
FFFFFFFFC0
FFFFFFFFC0
FFFFFFFFC0
ENDCHAR
STARTCHAR 0062
ENCODING 98
SWIDTH 615 0
DWIDTH 41 0
BBX 38 47 2 0
BITMAP
07FFFE0000
07FFFFF000
07FFFFFE00
07FFFFFF00
07FFFFFF80
07FFFFFFC0
07FFFFFFE0
07FFFFFFE0
07F800FFF0
07F8003FF0
07F8001FF0
07F8000FF8
07F8000FF8
07F8000FF8
07F8000FF8
07F8000FF8
07F8000FF0
07F8001FF0
07F8003FF0
07F807FFE0
FFFFFFFFE0
FFFFFFFFC0
FFFFFFFF80
FFFFFFFFC0
FFFFFFFFE0
FFFFFFFFF0
FFFFFFFFF0
07F8007FF8
07F8001FF8
07F8000FF8
07F80007FC
07F80007FC
07F80007FC
07F80003FC
07F80007FC
07F80007FC
07F80007FC
07F8000FF8
07F8003FF8
07FFFFFFF8
07FFFFFFF0
07FFFFFFE0
07FFFFFFE0
07FFFFFFC0
07FFFFFF00
07FFFFFC00
07FFFFE000
ENDCHAR
STARTCHAR 0063
ENCODING 99
SWIDTH 675 0
DWIDTH 45 0
BBX 43 49 2 -1
BITMAP
000001F00000
00007FFF8000
0001FFFFF000
000FFFFFF800
001FFFFFFE00
007FFFFFFF00
00FFFFFFFF80
01FFFFFFFFC0
03FFF807FFE0
07FFC000FFC0
07FF00007F00
0FFE00001E00
1FFC00000C00
1FF800000000
3FF000000000
3FE000000000
3FE000000000
7FC000000000
7FC000000000
7F8000000000
7F8000000000
FF8000000000
FF8000000000
FF8000000000
FF8000000000
FF8000000000
FF8000000000
FF8000000000
7F8000000000
7F8000000000
7FC000000000
7FC000000000
3FE000000000
3FE000000000
3FF000000000
1FF800000000
1FF800000C00
0FFE00001E00
07FF00003F00
07FFC000FF80
03FFF003FFC0
01FFFFFFFFE0
00FFFFFFFFC0
007FFFFFFF80
001FFFFFFE00
000FFFFFFC00
0003FFFFF000
0000FFFFC000
00000FFC0000
ENDCHAR
STARTCHAR 0064
ENCODING 100
SWIDTH 660 0
DWIDTH 44 0
BBX 39 47 4 0
BITMAP
FFFF000000
FFFFFC0000
FFFFFF8000
FFFFFFE000
FFFFFFF800
FFFFFFFC00
FFFFFFFF00
FFFFFFFF80
FF003FFF80
FF0007FFC0
FF0001FFE0
FF00007FF0
FF00003FF0
FF00001FF8
FF00000FF8
FF00000FF8
FF000007FC
FF000007FC
FF000007FC
FF000003FC
FF000003FC
FF000003FC
FF000003FE
FF000003FE
FF000003FE
FF000003FC
FF000003FC
FF000003FC
FF000003FC
FF000007FC
FF000007FC
FF00000FF8
FF00000FF8
FF00001FF8
FF00003FF0
FF00007FF0
FF0000FFE0
FF0003FFE0
FF001FFFC0
FFFFFFFF80
FFFFFFFF00
FFFFFFFE00
FFFFFFFC00
FFFFFFF000
FFFFFFC000
FFFFFF0000
FFFFF00000
ENDCHAR
STARTCHAR 0065
ENCODING 101
SWIDTH 510 0
DWIDTH 34 0
BBX 32 47 2 0
BITMAP
0FFFFF00
0FFFFF00
0FFFFF00
0FFFFF00
0FFFFF00
0FFFFF00
0FFFFF00
0FFFFF00
0FF00000
0FF00000
0FF00000
0FF00000
0FF00000
0FF00000
0FF00000
0FF00000
0FF00000
0FF00000
0FF00000
0FF00000
FFFFFFC0
FFFFFFC0
FFFFFFC0
FFFFFFC0
FFFFFFC0
FFFFFFC0
FFFFFFC0
0FF00000
0FF00000
0FF00000
0FF00000
0FF00000
0FF00000
0FF00000
0FF00000
0FF00000
0FF00000
0FF00000
0FF00000
0FFFFFFF
0FFFFFFF
0FFFFFFF
0FFFFFFF
0FFFFFFF
0FFFFFFF
0FFFFFFF
0FFFFFFF
ENDCHAR
STARTCHAR 0066
ENCODING 102
SWIDTH 465 0
DWIDTH 31 0
BBX 29 47 2 0
BITMAP
07FFFFF8
07FFFFF8
07FFFFF8
07FFFFF8
07FFFFF8
07FFFFF8
07FFFFF8
07FFFFF8
07F80000
07F80000
07F80000
07F80000
07F80000
07F80000
07F80000
07F80000
07F80000
07F80000
07F80000
07F80000
07F80000
FFFFFFF0
FFFFFFF0
FFFFFFF0
FFFFFFF0
FFFFFFF0
FFFFFFF0
FFFFFFF0
FFFFFFF0
07F80000
07F80000
07F80000
07F80000
07F80000
07F80000
07F80000
07F80000
07F80000
07F80000
07F80000
07F80000
07F80000
07F80000
07F80000
07F80000
07F80000
07F80000
ENDCHAR
STARTCHAR 0067
ENCODING 103
SWIDTH 825 0
DWIDTH 55 0
BBX 53 49 2 -1
BITMAP
000000F0000000
00007FFF800000
0001FFFFF00000
0007FFFFFC0000
001FFFFFFE0000
003FFFFFFF0000
00FFFFFFFFC000
01FFFFFFFFC000
03FFF807FFE000
07FFC000FFC000
07FF00003F8000
0FFE00001F0000
1FFC00000E0000
1FF80000040000
3FF00000000000
3FE00000000000
3FE00000000000
7FC00000000000
7FC00000000000
7F800000000000
7F800000000000
FF8000FFFFFFF8
FF8000FFFFFFF8
FF8000FFFFFFF8
FF8000FFFFFFF8
FF8000FFFFFFF8
FF8000FFFFFFF8
FF8000FFFFFFF8
7F80000000FF80
7F80000000FF80
7FC0000000FF80
7FC0000001FF00
3FC0000001FF00
3FE0000003FF00
3FF0000003FE00
1FF8000007FE00
1FF800000FFC00
0FFE00001FFC00
07FF00003FF800
07FFC000FFF800
03FFF003FFF000
01FFFFFFFFE000
00FFFFFFFFC000
007FFFFFFF8000
001FFFFFFF0000
000FFFFFFC0000
0003FFFFF00000
00007FFFC00000
00000FFC000000
ENDCHAR
STARTCHAR 0068
ENCODING 104
SWIDTH 570 0
DWIDTH 38 0
BBX 33 47 2 0
BITMAP
0FF0007F80
0FF0007F80
0FF0007F80
0FF0007F80
0FF0007F80
0FF0007F80
0FF0007F80
0FF0007F80
0FF0007F80
0FF0007F80
0FF0007F80
0FF0007F80
0FF0007F80
0FF0007F80
0FF0007F80
0FF0007F80
0FF0007F80
0FF0007F80
0FF0007F80
0FF0007F80
FFFFFFFF80
FFFFFFFF80
FFFFFFFF80
FFFFFFFF80
FFFFFFFF80
FFFFFFFF80
FFFFFFFF80
FFFFFFFF80
0FF0007F80
0FF0007F80
0FF0007F80
0FF0007F80
0FF0007F80
0FF0007F80
0FF0007F80
0FF0007F80
0FF0007F80
0FF0007F80
0FF0007F80
0FF0007F80
0FF0007F80
0FF0007F80
0FF0007F80
0FF0007F80
0FF0007F80
0FF0007F80
0FF0007F80
ENDCHAR
STARTCHAR 0069
ENCODING 105
SWIDTH 225 0
DWIDTH 15 0
BBX 19 54 -2 0
BITMAP
004000
004000
004000
00E000
00E000
00E000
01F000
FFFFE0
7FFFC0
3FFF80
1FFE00
07FC00
07FC00
07FC00
07FC00
0FBE00
0E0E00
0C0600
000000
000000
000000
000000
000000
000000
000000
07FC00
07FC00
07FC00
07FC00
07FC00
07FC00
07FC00
07FC00
07FC00
07FC00
07FC00
07FC00
07FC00
07FC00
07FC00
07FC00
07FC00
07FC00
07FC00
07FC00
07FC00
07FC00
07FC00
07FC00
07FC00
07FC00
07FC00
07FC00
07FC00
ENDCHAR
STARTCHAR 006A
ENCODING 106
SWIDTH 480 0
DWIDTH 32 0
BBX 27 48 1 -1
BITMAP
0003FFE0
0003FFE0
0003FFE0
0003FFE0
0003FFE0
0003FFE0
0003FFE0
0003FFE0
00001FE0
00001FE0
00001FE0
00001FE0
00001FE0
00001FE0
00001FE0
00001FE0
00001FE0
00001FE0
00001FE0
00001FE0
00001FE0
00001FE0
00001FE0
00001FE0
00001FE0
00001FE0
00001FE0
00001FE0
00001FE0
00001FE0
00001FE0
00001FE0
00001FE0
00001FE0
00001FE0
00001FE0
07003FE0
0F003FE0
3F807FC0
FFC0FFC0
FFFFFFC0
7FFFFF80
3FFFFF00
3FFFFF00
1FFFFE00
0FFFFC00
03FFF000
007F8000
ENDCHAR
STARTCHAR 006B
ENCODING 107
SWIDTH 555 0
DWIDTH 37 0
BBX 33 47 2 0
BITMAP
0FF007FC00
0FF007FC00
0FF007FC00
0FF007FC00
0FF007FC00
0FF007FC00
0FF007FC00
0FF007FC00
0FF007FC00
0FF007FC00
0FF007FC00
0FF007FC00
0FF007FC00
0FF007FC00
0FF007F800
0FF007F800
0FF00FF800
0FF01FF800
0FF03FF000
FFFFFFF000
FFFFFFE000
FFFFFFE000
FFFFFFF000
FFFFFFF800
FFFFFFF800
FFFFFFFC00
FFFFFFFE00
0FF007FE00
0FF003FE00
0FF001FF00
0FF001FF00
0FF000FF00
0FF000FF00
0FF000FF00
0FF000FF00
0FF000FF80
0FF000FF80
0FF000FF80
0FF000FF80
0FF000FF80
0FF000FF80
0FF000FF80
0FF000FF80
0FF000FF80
0FF000FF80
0FF000FF80
0FF000FF80
ENDCHAR
STARTCHAR 006C
ENCODING 108
SWIDTH 450 0
DWIDTH 30 0
BBX 25 47 4 0
BITMAP
FF000000
FF000000
FF000000
FF000000
FF000000
FF000000
FF000000
FF000000
FF000000
FF000000
FF000000
FF000000
FF000000
FF000000
FF000000
FF000000
FF000000
FF000000
FF000000
FF000000
FF000000
FF000000
FF000000
FF000000
FF000000
FF000000
FF000000
FF000000
FF000000
FF000000
FF000000
FF000000
FF000000
FF000000
FF000000
FF000000
FF000000
FF000000
FF000000
FFFFFF80
FFFFFF80
FFFFFF80
FFFFFF80
FFFFFF80
FFFFFF80
FFFFFF80
FFFFFF80
ENDCHAR
STARTCHAR 006D
ENCODING 109
SWIDTH 870 0
DWIDTH 58 0
BBX 54 48 1 0
BITMAP
04000000000000
0E0000700003FC
1F00007C0003FC
3FC0007E0003FC
3FE0007F0003FC
7FF0007F8003FC
FFF8007FE003FC
7FFE007FF003FC
1FFF007FF803FC
0FFF807FFC03FC
07FFE07FFF03FC
07FFF07FFF83FC
07FFF87FFFC3FC
07FFFC7FFFF3FC
07FFFF7FFFFBFC
07FFFFFFFFFFFC
07FBFFFFDFFFFC
07F9FFFFCFFFFC
07F8FFFFC7FFFC
07F83FFFC1FFFC
07F81FFFC0FFFC
07F80FFFC07FFC
07F807FFC01FFC
07F801FFC00FFC
07F800FFC007FC
07F8007FC003FC
07F8007FC003FC
07F8007FC003FC
07F8007FC003FC
07F8007FC003FC
07F8007FC003FC
07F8007FC003FC
07F8007FC003FC
07F8007FC003FC
07F8007FC003FC
07F8007FC003FC
07F8007FC003FC
07F8007FC003FC
07F8007FC003FC
07F8007FC003FC
07F8007FC003FC
07F8007FC003FC
07F8007FC003FC
07F8007FC003FC
07F8007FC003FC
07F8007FC003FC
07F8007FC003FC
07F8007FC003FC
ENDCHAR
STARTCHAR 006E
ENCODING 110
SWIDTH 555 0
DWIDTH 37 0
BBX 33 48 1 0
BITMAP
0400000000
0E0000FF80
1F0000FF80
3FC000FF80
3FE000FF80
7FF000FF80
FFF800FF80
7FFE00FF80
1FFF00FF80
0FFF80FF80
0FFFE0FF80
0FFFF0FF80
0FFFF8FF80
0FFFFCFF80
0FFFFFFF80
0FFFFFFF80
0FF7FFFF80
0FF3FFFF80
0FF0FFFF80
0FF07FFF80
0FF03FFF80
0FF01FFF80
0FF007FF80
0FF003FF80
0FF001FF80
0FF000FF80
0FF000FF80
0FF000FF80
0FF000FF80
0FF000FF80
0FF000FF80
0FF000FF80
0FF000FF80
0FF000FF80
0FF000FF80
0FF000FF80
0FF000FF80
0FF000FF80
0FF000FF80
0FF000FF80
0FF000FF80
0FF000FF80
0FF000FF80
0FF000FF80
0FF000FF80
0FF000FF80
0FF000FF80
0FF000FF80
ENDCHAR
STARTCHAR 006F
ENCODING 111
SWIDTH 810 0
DWIDTH 54 0
BBX 50 49 2 -1
BITMAP
000000F0000000
00007FFF800000
0001FFFFF00000
0007FFFFFC0000
001FFFFFFF0000
003FFFFFFF8000
00FFFFFFFFC000
01FFFFFFFFE000
03FFFC07FFF000
07FFC000FFF800
07FF00003FFC00
0FFE00000FFE00
1FFC000007FE00
1FF8000003FF00
3FF0000001FF00
3FE0000000FF80
3FE0000000FF80
7FC00000007F80
7FC00000007FC0
7F800000007FC0
7F800000003FC0
FF800000003FC0
FF800000003FC0
FF800000003FC0
FF800000003FC0
FF800000003FC0
FF800000003FC0
FF800000003FC0
7F800000003FC0
7F800000007FC0
7FC00000007FC0
7FC00000007FC0
3FE0000000FF80
3FE0000000FF80
3FF0000001FF00
1FF8000003FF00
1FF8000007FE00
0FFE00000FFE00
07FF00001FFC00
07FFC0007FFC00
03FFF003FFF800
01FFFFFFFFF000
00FFFFFFFFE000
007FFFFFFFC000
001FFFFFFF0000
000FFFFFFE0000
0003FFFFF80000
00007FFFC00000
00000FFE000000
ENDCHAR
STARTCHAR 0070
ENCODING 112
SWIDTH 570 0
DWIDTH 38 0
BBX 35 47 2 0
BITMAP
1FFFF00000
1FFFFFC000
1FFFFFF000
1FFFFFFC00
1FFFFFFE00
1FFFFFFF00
1FFFFFFF80
1FFFFFFF80
1FE003FFC0
1FE000FFC0
1FE0007FE0
1FE0003FE0
1FE0001FE0
1FE0001FE0
1FE0001FE0
1FE0001FE0
1FE0001FE0
1FE0003FE0
1FE0003FE0
1FE0007FC0
1FE000FFC0
1FE003FFC0
FFFFFFFF80
FFFFFFFF00
FFFFFFFF00
FFFFFFFE00
FFFFFFF800
FFFFFFF000
FFFFFF8000
FFFFF00000
1FE0000000
1FE0000000
1FE0000000
1FE0000000
1FE0000000
1FE0000000
1FE0000000
1FE0000000
1FE0000000
1FE0000000
1FE0000000
1FE0000000
1FE0000000
1FE0000000
1FE0000000
1FE0000000
1FE0000000
ENDCHAR
STARTCHAR 0071
ENCODING 113
SWIDTH 810 0
DWIDTH 54 0
BBX 50 50 2 -2
BITMAP
000000F0000000
00007FFF800000
0001FFFFF00000
0007FFFFFC0000
001FFFFFFF0000
003FFFFFFF8000
00FFFFFFFFC000
01FFFFFFFFE000
03FFFC07FFF000
07FFC000FFF800
07FF00003FFC00
0FFE00000FFE00
1FFC000007FE00
1FF8000003FF00
3FF0000001FF00
3FE0000000FF80
3FE0000000FF80
7FC00000007F80
7FC00000007FC0
7F800000007FC0
7F800000003FC0
FF800000003FC0
FF800000003FC0
FF800000003FC0
FF800000003FC0
FF800000003FC0
FF800000003FC0
FF800000003FC0
7F800000003FC0
7F800000007FC0
7FC00000007FC0
7FC00000007FC0
3FE0000018FF80
3FE000003CFF80
3FF000007FFF00
1FF80000FFFF00
1FF80001FFFE00
0FFE0003FFFE00
07FF0001FFFC00
07FFC000FFFC00
03FFF003FFF800
01FFFFFFFFFC00
00FFFFFFFFFE00
007FFFFFFFFF00
001FFFFFFFFF00
000FFFFFFFFE00
0003FFFFF9FC00
00007FFFC0F800
00000FFE007000
00000000002000
ENDCHAR
STARTCHAR 0072
ENCODING 114
SWIDTH 600 0
DWIDTH 40 0
BBX 36 47 2 0
BITMAP
0FFFFE0000
0FFFFFE000
0FFFFFF800
0FFFFFFE00
0FFFFFFF00
0FFFFFFF80
0FFFFFFFC0
0FFFFFFFE0
0FF001FFE0
0FF0007FE0
0FF0001FF0
0FF0001FF0
0FF0000FF0
0FF0000FF0
0FF0000FF0
0FF0000FF0
0FF0000FF0
0FF0000FF0
0FF0001FF0
0FF0003FE0
0FF000FFE0
FFFFFFFFE0
FFFFFFFFC0
FFFFFFFF80
FFFFFFFF00
FFFFFFFE00
FFFFFFFC00
FFFFFFFE00
FFFFFFFF00
0FF007FF00
0FF001FF80
0FF000FF80
0FF0007F80
0FF0007FC0
0FF0007FC0
0FF0003FC0
0FF0003FC0
0FF0003FC0
0FF0003FC0
0FF0003FC0
0FF0003FC0
0FF0003FC0
0FF0003FC0
0FF0003FC0
0FF0003FC0
0FF0003FC0
0FF0003FC0
ENDCHAR
STARTCHAR 0073
ENCODING 115
SWIDTH 495 0
DWIDTH 33 0
BBX 30 49 2 -1
BITMAP
000FC000
00FFF800
01FFFE00
07FFFF80
0FFFFFC0
0FFFFFC0
1FFFFFE0
1FFFFFF0
3FF87FF0
3FE01FF0
3FE00FF8
3FC00FF8
3FC007E0
3FC00700
3FE00000
3FE00000
3FF00000
1FF80000
1FFE0000
0FFF0000
07FFC000
03FFF000
01FFF800
00FFFE00
003FFF00
001FFF80
0007FFC0
0003FFE0
0000FFF0
00007FF0
00001FF8
00000FF8
000007FC
000007FC
010007FC
0F0003FC
FF8007FC
FF8007FC
7FC007FC
7FE00FF8
7FF03FF8
3FFFFFF8
3FFFFFF0
1FFFFFE0
0FFFFFE0
07FFFFC0
01FFFF00
00FFFE00
001FF000
ENDCHAR
STARTCHAR 0074
ENCODING 116
SWIDTH 510 0
DWIDTH 34 0
BBX 31 47 2 0
BITMAP
FFFFFFFE
FFFFFFFE
FFFFFFFE
FFFFFFFE
FFFFFFFE
FFFFFFFE
FFFFFFFE
FFFFFFFE
001FE000
001FE000
001FE000
001FE000
001FE000
001FE000
001FE000
001FE000
001FE000
001FE000
001FE000
001FE000
001FE000
001FE000
001FE000
001FE000
001FE000
001FE000
001FE000
001FE000
001FE000
001FE000
001FE000
001FE000
001FE000
001FE000
001FE000
001FE000
001FE000
001FE000
001FE000
001FE000
001FE000
001FE000
001FE000
001FE000
001FE000
001FE000
001FE000
ENDCHAR
STARTCHAR 0075
ENCODING 117
SWIDTH 525 0
DWIDTH 35 0
BBX 29 48 3 -1
BITMAP
FF0007F8
FF0007F8
FF0007F8
FF0007F8
FF0007F8
FF0007F8
FF0007F8
FF0007F8
FF0007F8
FF0007F8
FF0007F8
FF0007F8
FF0007F8
FF0007F8
FF0007F8
FF0007F8
FF0007F8
FF0007F8
FF0007F8
FF0007F8
FF0007F8
FF0007F8
FF0007F8
FF0007F8
FF0007F8
FF0007F8
FF0007F8
FF0007F8
FF0007F8
FF0007F8
FF0007F8
FF0007F8
FF0007F8
FF0007F8
FF8007F8
FF800FF8
FF800FF8
7FC00FF0
7FC01FF0
7FF03FF0
3FFFFFE0
3FFFFFE0
1FFFFFC0
0FFFFF80
07FFFF00
03FFFE00
00FFF800
001FE000
ENDCHAR
STARTCHAR 0076
ENCODING 118
SWIDTH 480 0
DWIDTH 32 0
BBX 28 47 1 0
BITMAP
FF000FF0
FF000FF0
FF000FF0
FF000FF0
FF000FF0
FF000FF0
FF000FF0
FF000FF0
FF000FF0
FF000FF0
FF000FF0
FF000FF0
FF000FF0
FF000FF0
FF000FF0
FF000FF0
FF000FF0
FF000FF0
FF000FF0
FF000FF0
FF000FF0
FF000FF0
FF000FF0
FF000FF0
FF000FF0
FF000FF0
FF801FF0
FF801FF0
FF801FF0
7F801FE0
7F801FE0
7F803FE0
7FC03FE0
7FC03FE0
3FC03FC0
3FE07FC0
3FE07FC0
1FF0FF80
1FF0FF80
0FF9FF00
0FF9FF00
07FFFE00
03FFFC00
03FFFC00
01FFF800
00FFF000
007FE000
ENDCHAR
STARTCHAR 0077
ENCODING 119
SWIDTH 780 0
DWIDTH 52 0
BBX 48 47 1 0
BITMAP
FF000FF000FF
FF000FF000FF
FF000FF000FF
FF000FF000FF
FF000FF000FF
FF000FF000FF
FF000FF000FF
FF000FF000FF
FF000FF000FF
FF000FF000FF
FF000FF000FF
FF000FF000FF
FF000FF000FF
FF000FF000FF
FF000FF000FF
FF000FF000FF
FF000FF000FF
FF000FF000FF
FF000FF000FF
FF000FF000FF
FF000FF000FF
FF000FF000FF
FF000FF000FF
FF000FF000FF
FF000FF000FF
FF000FF000FF
FF801FF800FF
FF801FF801FF
FF801FF801FF
7F801FF801FE
7F801FF801FE
7F803FFC01FE
7FC03FFC03FE
7FC03FFC03FE
3FC03FFC03FC
3FE07FFE07FC
3FE07FFE07FC
1FF0FFFF0FF8
1FF0FFFF0FF8
0FF9FFFF9FF0
0FF9FFFF9FF0
07FFFE7FFFE0
03FFFC3FFFC0
03FFFC1FFFC0
01FFF81FFF80
00FFF00FFF00
007FE007FE00
ENDCHAR
STARTCHAR 0078
ENCODING 120
SWIDTH 525 0
DWIDTH 35 0
BBX 30 47 3 0
BITMAP
FF8007FC
FF8007FC
FF8007FC
FF8007FC
FF8007FC
FF8007FC
FF8007FC
FF8007FC
FF8007FC
FF8007FC
FF8007FC
FF8007F8
7F8007F8
7FC00FF8
7FC00FF8
7FE01FF0
3FF87FF0
3FFFFFF0
1FFFFFE0
0FFFFFC0
07FFFF80
0FFFFFC0
1FFFFFE0
1FFFFFE0
3FFFFFF0
3FF03FF0
7FE01FF8
7FC00FF8
7F8007F8
7F8007F8
FF8007F8
FF8007FC
FF8007FC
FF8007FC
FF8007FC
FF8007FC
FF8007FC
FF8007FC
FF8007FC
FF8007FC
FF8007FC
FF8007FC
FF8007FC
FF8007FC
FF8007FC
FF8007FC
FF8007FC
ENDCHAR
STARTCHAR 0079
ENCODING 121
SWIDTH 510 0
DWIDTH 34 0
BBX 29 47 3 0
BITMAP
FF0007F8
FF0007F8
FF0007F8
FF0007F8
FF0007F8
FF0007F8
FF0007F8
FF0007F8
FF0007F8
FF0007F8
FF0007F8
FF0007F8
FF0007F8
FF0007F8
FF0007F8
FF0007F8
FF0007F8
FF0007F8
FF0007F8
FF0007F8
FF0007F8
FF0007F8
FF000FF8
FF000FF8
FF800FF8
FF800FF0
7FC01FF0
7FE03FF0
7FFFFFE0
3FFFFFE0
1FFFFFC0
1FFFFF80
0FFFFF00
07FFFE00
01FFFC00
007FE000
003FE000
003FE000
003FE000
003FE000
003FE000
003FE000
003FE000
003FE000
003FE000
003FE000
003FE000
ENDCHAR
STARTCHAR 007A
ENCODING 122
SWIDTH 525 0
DWIDTH 35 0
BBX 31 47 2 0
BITMAP
FFFFFFFE
FFFFFFFE
FFFFFFFE
FFFFFFFE
FFFFFFFE
FFFFFFFE
FFFFFFFC
FFFFFFF8
00000FF8
00001FF0
00001FF0
00003FE0
00007FC0
00007FC0
0000FF80
0000FF80
0001FF00
0003FE00
0003FE00
0007FC00
0007FC00
000FF800
001FF800
001FF000
003FE000
003FE000
007FC000
00FFC000
00FF8000
01FF0000
01FF0000
03FE0000
03FE0000
07FC0000
0FF80000
0FF80000
1FF00000
1FF00000
3FE00000
7FFFFFFC
7FFFFFFC
FFFFFFFC
FFFFFFFC
FFFFFFFC
FFFFFFFC
FFFFFFFC
FFFFFFFC
ENDCHAR
STARTCHAR 007B
ENCODING 123
SWIDTH 345 0
DWIDTH 23 0
BBX 15 65 4 -10
BITMAP
007E
01FE
03FE
03FE
07FE
07FE
07E0
0FC0
0FC0
0FC0
0FC0
0FC0
0FC0
0FC0
0FC0
0FC0
0FC0
0FC0
0FC0
0FC0
0FC0
0FC0
0FC0
0FC0
0FC0
0FC0
0FC0
1FC0
3F80
FF80
FF00
FE00
FE00
FF00
FF00
FF80
3F80
1FC0
0FC0
0FC0
0FC0
0FC0
0FC0
0FC0
0FC0
0FC0
0FC0
0FC0
0FC0
0FC0
0FC0
0FC0
0FC0
0FC0
0FC0
0FC0
0FC0
0FC0
07E0
07FE
07FE
03FE
03FE
01FE
007E
ENDCHAR
STARTCHAR 007C
ENCODING 124
SWIDTH 165 0
DWIDTH 11 0
BBX 4 54 4 -7
BITMAP
F0
F0
F0
F0
F0
F0
F0
F0
F0
F0
F0
F0
F0
F0
F0
F0
F0
F0
F0
F0
F0
F0
F0
F0
F0
F0
F0
F0
F0
F0
F0
F0
F0
F0
F0
F0
F0
F0
F0
F0
F0
F0
F0
F0
F0
F0
F0
F0
F0
F0
F0
F0
F0
F0
ENDCHAR
STARTCHAR 007D
ENCODING 125
SWIDTH 345 0
DWIDTH 23 0
BBX 15 65 4 -10
BITMAP
FC00
FF00
FF80
FFC0
FFC0
FFC0
0FE0
07E0
07E0
07E0
07E0
07E0
07E0
07E0
07E0
07E0
07E0
07E0
07E0
07E0
07E0
07E0
07E0
07E0
07E0
07E0
07E0
03F0
03F8
03FE
01FE
00FE
00FE
00FE
01FE
03FE
03F8
03F0
07E0
07E0
07E0
07E0
07E0
07E0
07E0
07E0
07E0
07E0
07E0
07E0
07E0
07E0
07E0
07E0
07E0
07E0
07E0
07E0
0FE0
FFC0
FFC0
FFC0
FF80
FF00
FC00
ENDCHAR
STARTCHAR 007E
ENCODING 126
SWIDTH 555 0
DWIDTH 37 0
BBX 29 9 4 17
BITMAP
3FC00000
FFFE0008
FFFFFFF8
FFFFFFF8
FFFFFFF8
FFFFFFF8
F0FFFFF8
0003FFF8
00000F00
ENDCHAR
STARTCHAR 00A1
ENCODING 161
SWIDTH 270 0
DWIDTH 18 0
BBX 10 47 4 -7
BITMAP
3F00
7F80
FFC0
FFC0
FFC0
FFC0
FFC0
FFC0
7F80
3F00
0000
0000
0000
0000
0000
0000
0000
7F00
7F00
7F00
7F00
7F00
7F00
7F00
7F00
7F00
7F00
7F00
7F00
7F00
7F00
7F00
7F00
7F00
7F00
7F00
7F00
7F00
7F00
7F00
7F00
7F00
7F00
7F00
7F00
7F00
7F00
ENDCHAR
STARTCHAR 00A2
ENCODING 162
SWIDTH 525 0
DWIDTH 35 0
BBX 27 41 4 3
BITMAP
000FC000
000FC000
000FC000
000FC000
000FC000
003FF800
00FFFE00
03FFFF80
07FFFFC0
0FFFFFE0
1FFFFFE0
3FF01FC0
3FC00780
7F800300
7F000000
FF000000
FE000000
FE000000
FC000000
FC000000
FC000000
FC000000
FC000000
FE000000
FE000000
FE000000
7F000000
7F800200
3FC00700
3FF01F80
1FFFFFC0
0FFFFFE0
07FFFFC0
03FFFF80
00FFFF00
007FFC00
000FC000
000FC000
000FC000
000FC000
000FC000
ENDCHAR
STARTCHAR 00A3
ENCODING 163
SWIDTH 555 0
DWIDTH 37 0
BBX 30 48 4 0
BITMAP
00000E00
0003FFF0
000FFFFC
003FFFFC
007FFFFC
01FFFFFC
01FFFFFC
03FFFFFC
07FFFFFC
07FF800C
0FFE0000
0FFC0000
0FF80000
0FF80000
0FF00000
0FF00000
0FF00000
0FF00000
0FF00000
0FF80000
0FF80000
07F80000
FFFFFFC0
FFFFFFC0
FFFFFFC0
FFFFFFC0
FFFFFFC0
FFFFFFC0
01FF0000
01FF0000
00FF0000
00FF0000
00FF8000
00FF8000
00FF8000
00FF0000
01FF0000
01FF0000
07FF0000
1FFE0000
FFFC0000
FFFFFFFC
FFFFFFFC
FFFFFFFC
FFFFFFFC
FFFFFFFC
FFFFFFFC
FFFFFFFC
ENDCHAR
STARTCHAR 00A4
ENCODING 164
SWIDTH 600 0
DWIDTH 40 0
BBX 32 33 4 5
BITMAP
00000008
1800001C
3C00003E
7E1FF87F
FF7FFEFF
7FFFFFFE
3FFFFFFC
1FFFFFF8
0FF81FF0
0FE007F0
1FC003F8
1F8001F8
1F0000FC
3F0000FC
3E00007C
3E00007C
3E00007C
3E00007C
3E00007C
3F0000FC
3F0000FC
1F8001F8
1F8001F8
0FC003F0
0FF00FF0
1FFFFFF8
3FFFFFFC
7FFFFFFE
FFFFFFFF
FE1FFC7F
7C00C03E
3800001C
10000008
ENDCHAR
STARTCHAR 00A5
ENCODING 165
SWIDTH 660 0
DWIDTH 44 0
BBX 37 47 4 0
BITMAP
FF80001FF8
FFC0001FF0
7FC0003FF0
7FE0003FE0
3FE0007FE0
3FF0007FC0
1FF000FFC0
1FF800FF80
0FF801FF80
0FFC01FF00
07FC01FF00
07FE03FE00
03FE03FE00
03FF07FC00
01FF07FC00
01FF8FF800
00FF8FF000
00FFDFF000
007FDFE000
007FFFE000
003FFFC000
003FFFC000
001FFF8000
001FFF8000
0FFFFFFE00
0FFFFFFE00
0FFFFFFE00
0FFFFFFE00
0FFFFFFE00
0FFFFFFE00
0003FC0000
0003FC0000
0003FC0000
0FFFFFFE00
0FFFFFFE00
0FFFFFFE00
0FFFFFFE00
0FFFFFFE00
0FFFFFFE00
0003FC0000
0003FC0000
0003FC0000
0003FC0000
0003FC0000
0003FC0000
0003FC0000
0003FC0000
ENDCHAR
STARTCHAR 00A6
ENCODING 166
SWIDTH 165 0
DWIDTH 11 0
BBX 4 54 4 -7
BITMAP
F0
F0
F0
F0
F0
F0
F0
F0
F0
F0
F0
F0
F0
F0
F0
F0
F0
F0
F0
F0
F0
00
00
00
00
00
00
00
00
00
00
00
00
F0
F0
F0
F0
F0
F0
F0
F0
F0
F0
F0
F0
F0
F0
F0
F0
F0
F0
F0
F0
F0
ENDCHAR
STARTCHAR 00A7
ENCODING 167
SWIDTH 495 0
DWIDTH 33 0
BBX 25 56 4 -8
BITMAP
001C0000
01FFC000
07FFF000
0FFFF800
1FFFFC00
1FFFFE00
3FFFFE00
3FFFFF00
3FC1FF00
7F80FF80
7F807F80
7F807C00
3FC04000
3FC00000
3FF00000
1FF80000
0FFE0000
07FF0000
03FFC000
00FFF000
07FFF800
1FFFFC00
3FFFFE00
7FFFFF00
7F81FF00
7F00FF00
FE007F80
FE003F80
FE003F80
FF003F80
FF007F00
7FC0FF00
7FFFFF00
3FFFFE00
1FFFFC00
0FFFF000
03FFC000
01FFE000
007FF000
003FF800
000FFC00
0007FC00
0001FE00
0001FE00
0F00FE00
7F00FF00
FF80FF00
7F81FE00
7FFFFE00
3FFFFE00
3FFFFE00
1FFFFC00
0FFFF800
07FFF000
01FFC000
003F0000
ENDCHAR
STARTCHAR 00A8
ENCODING 168
SWIDTH 390 0
DWIDTH 26 0
BBX 27 10 0 50
BITMAP
1F803F00
3FC07FC0
7FE07FC0
FFE0FFE0
FFE0FFE0
FFE0FFE0
7FE0FFE0
7FC07FC0
3FC07F80
1F801F00
ENDCHAR
STARTCHAR 00A9
ENCODING 169
SWIDTH 840 0
DWIDTH 56 0
BBX 49 49 4 -1
BITMAP
000007F8000000
0000FFFF800000
0003FFFFE00000
000FFFFFF80000
003FF807FE0000
007F8000FF0000
00FE00003F8000
01F800000FC000
03F0000007E000
07C0000001F000
0F80000000F800
1F00000000FC00
1F000FF8007C00
3E003FFE003E00
3C00FFFF803E00
7C01FFFFC01F00
7C03FFFF801F00
7803FC1F000F00
F807F006000F00
F807E000000F80
F00FC000000780
F00FC000000780
F00F8000000780
F00F8000000780
F00F8000000780
F00F8000000780
F00F8000000780
F00FC000000780
F00FC000000780
F807E000000F80
F807F006000F80
7803F80F000F00
7803FFFF801F00
7C01FFFFC01F00
3C00FFFF801E00
3E007FFF003E00
1F001FFC007C00
1F0000C0007C00
0F80000000F800
0FC0000001F000
07E0000003F000
03F000000FE000
01FC00001FC000
00FF00007F8000
003FE003FE0000
001FFFFFFC0000
0007FFFFF00000
0001FFFFC00000
00001FFE000000
ENDCHAR
STARTCHAR 00AB
ENCODING 171
SWIDTH 600 0
DWIDTH 40 0
BBX 32 29 4 6
BITMAP
001FC07F
003F80FE
007F81FE
00FF03FC
00FE03F8
01FC07F0
03FC0FF0
07F81FE0
07F01FC0
0FE03F80
1FE07F80
3FC0FF00
3F80FE00
7F01FC00
FF03FC00
FF03FC00
7F81FE00
3FC0FF00
1FE07F80
0FE03F80
0FF03FC0
07F81FE0
03FC0FF0
01FC07F0
01FE07F8
00FF03FC
007F81FE
003F80FE
003FC0FF
ENDCHAR
STARTCHAR 00AC
ENCODING 172
SWIDTH 570 0
DWIDTH 38 0
BBX 31 18 4 7
BITMAP
FFFFFFFE
FFFFFFFE
FFFFFFFE
FFFFFFFE
FFFFFFFE
FFFFFFFE
000000FE
000000FE
000000FE
000000FE
000000FE
000000FE
000000FE
000000FE
000000FE
000000FE
000000FE
000000FE
ENDCHAR
STARTCHAR 00AE
ENCODING 174
SWIDTH 510 0
DWIDTH 34 0
BBX 27 26 4 22
BITMAP
007FC000
03FFF000
07FFF800
0F803E00
1E001E00
3C000700
787F0780
707FC380
F07FC1C0
E071E1C0
E070E1C0
E071C1C0
E1FFC0E0
E1FF80E0
E1FFC1C0
E071C1C0
E071C1C0
F071C1C0
7071C380
78000780
3C000700
1E001F00
0F803E00
07FFF800
03FFF000
007FC000
ENDCHAR
STARTCHAR 00AF
ENCODING 175
SWIDTH 270 0
DWIDTH 18 0
BBX 19 6 0 52
BITMAP
FFFFE0
FFFFE0
FFFFE0
FFFFE0
FFFFE0
FFFFE0
ENDCHAR
STARTCHAR 00B0
ENCODING 176
SWIDTH 345 0
DWIDTH 23 0
BBX 16 16 4 32
BITMAP
0100
0FF0
3FF8
7FFC
783E
F01E
F00E
E00F
E00F
E00E
F01E
F81E
7C7C
3FFC
1FF8
0FE0
ENDCHAR
STARTCHAR 00B1
ENCODING 177
SWIDTH 570 0
DWIDTH 38 0
BBX 31 29 4 6
BITMAP
000FC000
000FC000
000FC000
000FC000
000FC000
000FC000
000FC000
FFFFFFFE
FFFFFFFE
FFFFFFFE
FFFFFFFE
FFFFFFFE
FFFFFFFE
000FC000
000FC000
000FC000
000FC000
000FC000
000FC000
000FC000
00000000
00000000
00000000
FFFFFFFE
FFFFFFFE
FFFFFFFE
FFFFFFFE
FFFFFFFE
FFFFFFFE
ENDCHAR
STARTCHAR 00B4
ENCODING 180
SWIDTH 150 0
DWIDTH 10 0
BBX 10 8 0 51
BITMAP
0FC0
0FC0
1F80
1F00
3E00
7E00
7C00
F800
ENDCHAR
STARTCHAR 00B6
ENCODING 182
SWIDTH 510 0
DWIDTH 34 0
BBX 27 54 4 -7
BITMAP
007FC3E0
01FFC3E0
07FFC3E0
0FFFC3E0
1FFFC3E0
3FFFC3E0
7FFFC3E0
7FFFC3E0
FFFFC3E0
FFFFC3E0
FFFFC3E0
FFFFC3E0
FFFFC3E0
FFFFC3E0
FFFFC3E0
FFFFC3E0
FFFFC3E0
FFFFC3E0
7FFFC3E0
7FFFC3E0
3FFFC3E0
1FFFC3E0
1FFFC3E0
07FFC3E0
03FFC3E0
00FFC3E0
001FC3E0
0007C3E0
0007C3E0
0007C3E0
0007C3E0
0007C3E0
0007C3E0
0007C3E0
0007C3E0
0007C3E0
0007C3E0
0007C3E0
0007C3E0
0007C3E0
0007C3E0
0007C3E0
0007C3E0
0007C3E0
0007C3E0
0007C3E0
0007C3E0
0007C3E0
0007C3E0
0007C3E0
0007C3E0
0007C3E0
0007C3E0
0007C3E0
ENDCHAR
STARTCHAR 00B7
ENCODING 183
SWIDTH 270 0
DWIDTH 18 0
BBX 10 11 4 12
BITMAP
1F00
7F80
FFC0
FFC0
FFC0
FFC0
FFC0
FFC0
7F80
3F00
0400
ENDCHAR
STARTCHAR 00B8
ENCODING 184
SWIDTH 225 0
DWIDTH 15 0
BBX 15 15 0 -15
BITMAP
00F0
01E0
01E0
01F8
01FC
003C
001E
001E
301E
783E
FFFE
7FFC
3FF8
1FF0
0180
ENDCHAR
STARTCHAR 00BB
ENCODING 187
SWIDTH 600 0
DWIDTH 40 0
BBX 32 29 4 6
BITMAP
FF03FC00
7F81FE00
3F80FE00
3FC0FF00
1FE07F80
0FF03FC0
07F01FC0
07F81FE0
03FC0FF0
01FE07F8
00FE03F8
00FF03FC
007F81FE
003FC0FF
001FC07F
003FC0FF
003F80FE
007F01FC
00FF03FC
01FE07F8
01FC07F0
03F80FE0
07F81FE0
0FF03FC0
1FE07F80
1FC07F00
3F80FE00
7F81FE00
FF03FC00
ENDCHAR
STARTCHAR 00BF
ENCODING 191
SWIDTH 435 0
DWIDTH 29 0
BBX 22 49 4 -8
BITMAP
003C00
007F00
00FF80
01FF80
01FFC0
01FFC0
01FFC0
01FF80
00FF80
007F00
001C00
000000
000000
000000
000000
000000
007F00
007F00
00FF00
00FF00
00FF00
00FE00
00FE00
01FE00
01FE00
03FC00
03FC00
07F800
0FF800
0FF000
1FE000
3FC000
3FC000
7F8000
7F0000
FF0000
FE0000
FE0080
FE01E0
FF01FC
FF03FC
FFCFFC
FFFFF8
7FFFF0
3FFFF0
3FFFE0
0FFFC0
07FF00
003800
ENDCHAR
STARTCHAR 00C0
ENCODING 192
SWIDTH 555 0
DWIDTH 37 0
BBX 34 59 3 0
BITMAP
00FC000000
007E000000
007E000000
003F000000
001F000000
000F800000
000F800000
0007C00000
0000000000
0000000000
0000000000
0007800000
007FF80000
01FFFE0000
03FFFF0000
07FFFF8000
0FFFFFC000
1FFFFFE000
3FFFFFE000
3FF87FF000
7FE01FF000
7FC00FF800
7FC00FF800
7F8007F800
7F8007F800
FF8007FC00
FF8007FC00
FF8007FC00
FF8007FC00
FF8007FC00
FF8007FC00
FF8007FC00
FF8007FC00
FF8007FC00
FF8007FC00
FF8007FC00
FF8007FC00
FF8007FC00
FF8007FC00
FF8007FC00
FF8007FC00
FF8007FC00
FF8007FC00
FF8007FC00
FF8007FC00
FF8007FC00
FF8007FC00
FF8007FC00
FF8007FC00
FF8007FC00
FF8007FC00
FFFFFFFFC0
FFFFFFFFC0
FFFFFFFFC0
FFFFFFFFC0
FFFFFFFFC0
FFFFFFFFC0
FFFFFFFFC0
FFFFFFFFC0
ENDCHAR
STARTCHAR 00C1
ENCODING 193
SWIDTH 555 0
DWIDTH 37 0
BBX 34 59 3 0
BITMAP
0000FC0000
0001F80000
0001F80000
0003F00000
0003E00000
0007C00000
0007C00000
000F800000
0000000000
0000000000
0000000000
0007800000
007FF80000
01FFFE0000
03FFFF0000
07FFFF8000
0FFFFFC000
1FFFFFE000
3FFFFFE000
3FF87FF000
7FE01FF000
7FC00FF800
7FC00FF800
7F8007F800
7F8007F800
FF8007FC00
FF8007FC00
FF8007FC00
FF8007FC00
FF8007FC00
FF8007FC00
FF8007FC00
FF8007FC00
FF8007FC00
FF8007FC00
FF8007FC00
FF8007FC00
FF8007FC00
FF8007FC00
FF8007FC00
FF8007FC00
FF8007FC00
FF8007FC00
FF8007FC00
FF8007FC00
FF8007FC00
FF8007FC00
FF8007FC00
FF8007FC00
FF8007FC00
FF8007FC00
FFFFFFFFC0
FFFFFFFFC0
FFFFFFFFC0
FFFFFFFFC0
FFFFFFFFC0
FFFFFFFFC0
FFFFFFFFC0
FFFFFFFFC0
ENDCHAR
STARTCHAR 00C2
ENCODING 194
SWIDTH 555 0
DWIDTH 37 0
BBX 34 59 3 0
BITMAP
003FF00000
007FF80000
007FF80000
00FFFC0000
01FCFE0000
03F87F0000
03F03F0000
07F03F8000
0000000000
0000000000
0000000000
0007800000
007FF80000
01FFFE0000
03FFFF0000
07FFFF8000
0FFFFFC000
1FFFFFE000
3FFFFFE000
3FF87FF000
7FE01FF000
7FC00FF800
7FC00FF800
7F8007F800
7F8007F800
FF8007FC00
FF8007FC00
FF8007FC00
FF8007FC00
FF8007FC00
FF8007FC00
FF8007FC00
FF8007FC00
FF8007FC00
FF8007FC00
FF8007FC00
FF8007FC00
FF8007FC00
FF8007FC00
FF8007FC00
FF8007FC00
FF8007FC00
FF8007FC00
FF8007FC00
FF8007FC00
FF8007FC00
FF8007FC00
FF8007FC00
FF8007FC00
FF8007FC00
FF8007FC00
FFFFFFFFC0
FFFFFFFFC0
FFFFFFFFC0
FFFFFFFFC0
FFFFFFFFC0
FFFFFFFFC0
FFFFFFFFC0
FFFFFFFFC0
ENDCHAR
STARTCHAR 00C3
ENCODING 195
SWIDTH 555 0
DWIDTH 37 0
BBX 34 59 3 0
BITMAP
03FE040000
03FFFC0000
03FFFC0000
03FFFC0000
03FFFC0000
0003F80000
0000000000
0000000000
0000000000
0000000000
0000000000
0007800000
007FF80000
01FFFE0000
03FFFF0000
07FFFF8000
0FFFFFC000
1FFFFFE000
3FFFFFE000
3FF87FF000
7FE01FF000
7FC00FF800
7FC00FF800
7F8007F800
7F8007F800
FF8007FC00
FF8007FC00
FF8007FC00
FF8007FC00
FF8007FC00
FF8007FC00
FF8007FC00
FF8007FC00
FF8007FC00
FF8007FC00
FF8007FC00
FF8007FC00
FF8007FC00
FF8007FC00
FF8007FC00
FF8007FC00
FF8007FC00
FF8007FC00
FF8007FC00
FF8007FC00
FF8007FC00
FF8007FC00
FF8007FC00
FF8007FC00
FF8007FC00
FF8007FC00
FFFFFFFFC0
FFFFFFFFC0
FFFFFFFFC0
FFFFFFFFC0
FFFFFFFFC0
FFFFFFFFC0
FFFFFFFFC0
FFFFFFFFC0
ENDCHAR
STARTCHAR 00C4
ENCODING 196
SWIDTH 555 0
DWIDTH 37 0
BBX 34 60 3 0
BITMAP
0FE00FC000
1FF01FE000
1FF03FF000
3FF83FF000
3FF83FF800
3FF83FF800
3FF83FF000
1FF03FF000
1FF01FE000
07C00FC000
0000000000
0000000000
0007800000
007FF80000
01FFFE0000
03FFFF0000
07FFFF8000
0FFFFFC000
1FFFFFE000
3FFFFFE000
3FF87FF000
7FE01FF000
7FC00FF800
7FC00FF800
7F8007F800
7F8007F800
FF8007FC00
FF8007FC00
FF8007FC00
FF8007FC00
FF8007FC00
FF8007FC00
FF8007FC00
FF8007FC00
FF8007FC00
FF8007FC00
FF8007FC00
FF8007FC00
FF8007FC00
FF8007FC00
FF8007FC00
FF8007FC00
FF8007FC00
FF8007FC00
FF8007FC00
FF8007FC00
FF8007FC00
FF8007FC00
FF8007FC00
FF8007FC00
FF8007FC00
FF8007FC00
FFFFFFFFC0
FFFFFFFFC0
FFFFFFFFC0
FFFFFFFFC0
FFFFFFFFC0
FFFFFFFFC0
FFFFFFFFC0
FFFFFFFFC0
ENDCHAR
STARTCHAR 00C5
ENCODING 197
SWIDTH 555 0
DWIDTH 37 0
BBX 34 64 3 0
BITMAP
000FC00000
003FE00000
007FF00000
007FF80000
00F8780000
00F03C0000
00F03C0000
00F03C0000
00F07C0000
007CF80000
007FF80000
003FF00000
001FE00000
0000000000
0000000000
0000000000
0007800000
007FF80000
01FFFE0000
03FFFF0000
07FFFF8000
0FFFFFC000
1FFFFFE000
3FFFFFE000
3FF87FF000
7FE01FF000
7FC00FF800
7FC00FF800
7F8007F800
7F8007F800
FF8007FC00
FF8007FC00
FF8007FC00
FF8007FC00
FF8007FC00
FF8007FC00
FF8007FC00
FF8007FC00
FF8007FC00
FF8007FC00
FF8007FC00
FF8007FC00
FF8007FC00
FF8007FC00
FF8007FC00
FF8007FC00
FF8007FC00
FF8007FC00
FF8007FC00
FF8007FC00
FF8007FC00
FF8007FC00
FF8007FC00
FF8007FC00
FF8007FC00
FF8007FC00
FFFFFFFFC0
FFFFFFFFC0
FFFFFFFFC0
FFFFFFFFC0
FFFFFFFFC0
FFFFFFFFC0
FFFFFFFFC0
FFFFFFFFC0
ENDCHAR
STARTCHAR 00C7
ENCODING 199
SWIDTH 675 0
DWIDTH 45 0
BBX 43 63 2 -15
BITMAP
000001F00000
00007FFF8000
0001FFFFF000
000FFFFFF800
001FFFFFFE00
007FFFFFFF00
00FFFFFFFF80
01FFFFFFFFC0
03FFF807FFE0
07FFC000FFC0
07FF00007F00
0FFE00001E00
1FFC00000C00
1FF800000000
3FF000000000
3FE000000000
3FE000000000
7FC000000000
7FC000000000
7F8000000000
7F8000000000
FF8000000000
FF8000000000
FF8000000000
FF8000000000
FF8000000000
FF8000000000
FF8000000000
7F8000000000
7F8000000000
7FC000000000
7FC000000000
3FE000000000
3FE000000000
3FF000000000
1FF800000000
1FF800000C00
0FFE00001E00
0FFF00003F00
07FFC000FF80
03FFF003FFC0
01FFFFFFFFE0
00FFFFFFFFC0
007FFFFFFF80
003FFFFFFE00
000FFFFFFC00
0003FFFFF000
0000FFFFC000
00000FFC0000
000007800000
000007800000
000007E00000
000007F00000
000000F80000
000000780000
000040780000
0000C0780000
0001F0F80000
0003FFF80000
0001FFF00000
0000FFF00000
00003FE00000
000006000000
ENDCHAR
STARTCHAR 00C8
ENCODING 200
SWIDTH 510 0
DWIDTH 34 0
BBX 32 59 2 0
BITMAP
01F80000
00FC0000
00FC0000
007E0000
003E0000
003F0000
001F0000
000F8000
00000000
00000000
00000000
00000000
0FFFFF00
0FFFFF00
0FFFFF00
0FFFFF00
0FFFFF00
0FFFFF00
0FFFFF00
0FFFFF00
0FF00000
0FF00000
0FF00000
0FF00000
0FF00000
0FF00000
0FF00000
0FF00000
0FF00000
0FF00000
0FF00000
0FF00000
FFFFFFC0
FFFFFFC0
FFFFFFC0
FFFFFFC0
FFFFFFC0
FFFFFFC0
FFFFFFC0
0FF00000
0FF00000
0FF00000
0FF00000
0FF00000
0FF00000
0FF00000
0FF00000
0FF00000
0FF00000
0FF00000
0FF00000
0FFFFFFF
0FFFFFFF
0FFFFFFF
0FFFFFFF
0FFFFFFF
0FFFFFFF
0FFFFFFF
0FFFFFFF
ENDCHAR
STARTCHAR 00C9
ENCODING 201
SWIDTH 510 0
DWIDTH 34 0
BBX 32 59 2 0
BITMAP
0001F800
0003F000
0003E000
0007E000
0007C000
000F8000
000F0000
001F0000
00000000
00000000
00000000
00000000
0FFFFF00
0FFFFF00
0FFFFF00
0FFFFF00
0FFFFF00
0FFFFF00
0FFFFF00
0FFFFF00
0FF00000
0FF00000
0FF00000
0FF00000
0FF00000
0FF00000
0FF00000
0FF00000
0FF00000
0FF00000
0FF00000
0FF00000
FFFFFFC0
FFFFFFC0
FFFFFFC0
FFFFFFC0
FFFFFFC0
FFFFFFC0
FFFFFFC0
0FF00000
0FF00000
0FF00000
0FF00000
0FF00000
0FF00000
0FF00000
0FF00000
0FF00000
0FF00000
0FF00000
0FF00000
0FFFFFFF
0FFFFFFF
0FFFFFFF
0FFFFFFF
0FFFFFFF
0FFFFFFF
0FFFFFFF
0FFFFFFF
ENDCHAR
STARTCHAR 00CA
ENCODING 202
SWIDTH 510 0
DWIDTH 34 0
BBX 32 59 2 0
BITMAP
007FE000
00FFF000
01FFF000
01FBF800
03F9FC00
07F0FC00
0FE0FE00
0FC07F00
10000000
00000000
00000000
00000000
0FFFFF00
0FFFFF00
0FFFFF00
0FFFFF00
0FFFFF00
0FFFFF00
0FFFFF00
0FFFFF00
0FF00000
0FF00000
0FF00000
0FF00000
0FF00000
0FF00000
0FF00000
0FF00000
0FF00000
0FF00000
0FF00000
0FF00000
FFFFFFC0
FFFFFFC0
FFFFFFC0
FFFFFFC0
FFFFFFC0
FFFFFFC0
FFFFFFC0
0FF00000
0FF00000
0FF00000
0FF00000
0FF00000
0FF00000
0FF00000
0FF00000
0FF00000
0FF00000
0FF00000
0FF00000
0FFFFFFF
0FFFFFFF
0FFFFFFF
0FFFFFFF
0FFFFFFF
0FFFFFFF
0FFFFFFF
0FFFFFFF
ENDCHAR
STARTCHAR 00CB
ENCODING 203
SWIDTH 510 0
DWIDTH 34 0
BBX 32 60 2 0
BITMAP
1F801F80
3FC03FC0
7FE07FE0
7FF07FE0
7FF07FE0
7FF07FE0
7FE07FE0
3FE07FE0
3FC03FC0
1F801F80
00000000
00000000
00000000
0FFFFF00
0FFFFF00
0FFFFF00
0FFFFF00
0FFFFF00
0FFFFF00
0FFFFF00
0FFFFF00
0FF00000
0FF00000
0FF00000
0FF00000
0FF00000
0FF00000
0FF00000
0FF00000
0FF00000
0FF00000
0FF00000
0FF00000
FFFFFFC0
FFFFFFC0
FFFFFFC0
FFFFFFC0
FFFFFFC0
FFFFFFC0
FFFFFFC0
0FF00000
0FF00000
0FF00000
0FF00000
0FF00000
0FF00000
0FF00000
0FF00000
0FF00000
0FF00000
0FF00000
0FF00000
0FFFFFFF
0FFFFFFF
0FFFFFFF
0FFFFFFF
0FFFFFFF
0FFFFFFF
0FFFFFFF
0FFFFFFF
ENDCHAR
STARTCHAR 00CC
ENCODING 204
SWIDTH 225 0
DWIDTH 15 0
BBX 11 41 1 0
BITMAP
FC00
7E00
7E00
3F00
1F00
0F80
0F80
07C0
0000
0000
0000
0000
1FE0
1FE0
1FE0
1FE0
1FE0
1FE0
1FE0
1FE0
1FE0
1FE0
1FE0
1FE0
1FE0
1FE0
1FE0
1FE0
1FE0
1FE0
1FE0
1FE0
1FE0
1FE0
1FE0
1FE0
1FE0
1FE0
1FE0
1FE0
1FE0
ENDCHAR
STARTCHAR 00CD
ENCODING 205
SWIDTH 225 0
DWIDTH 15 0
BBX 11 41 4 0
BITMAP
07E0
0FC0
0F80
1F80
1F00
3E00
3E00
7C00
0000
0000
0000
0000
FF00
FF00
FF00
FF00
FF00
FF00
FF00
FF00
FF00
FF00
FF00
FF00
FF00
FF00
FF00
FF00
FF00
FF00
FF00
FF00
FF00
FF00
FF00
FF00
FF00
FF00
FF00
FF00
FF00
ENDCHAR
STARTCHAR 00CE
ENCODING 206
SWIDTH 225 0
DWIDTH 15 0
BBX 20 41 -2 0
BITMAP
07FE00
0FFF00
1FFF00
1FBF80
3F9FC0
7F0FE0
FE0FE0
FC07F0
000000
000000
000000
000000
03FC00
03FC00
03FC00
03FC00
03FC00
03FC00
03FC00
03FC00
03FC00
03FC00
03FC00
03FC00
03FC00
03FC00
03FC00
03FC00
03FC00
03FC00
03FC00
03FC00
03FC00
03FC00
03FC00
03FC00
03FC00
03FC00
03FC00
03FC00
03FC00
ENDCHAR
STARTCHAR 00CF
ENCODING 207
SWIDTH 225 0
DWIDTH 15 0
BBX 26 42 -5 0
BITMAP
3F003F00
7F807F80
FFC0FFC0
FFE0FFC0
FFE0FFC0
FFE0FFC0
FFC0FFC0
7FC0FFC0
7F807F80
3F003F00
00000000
00000000
00000000
007F8000
007F8000
007F8000
007F8000
007F8000
007F8000
007F8000
007F8000
007F8000
007F8000
007F8000
007F8000
007F8000
007F8000
007F8000
007F8000
007F8000
007F8000
007F8000
007F8000
007F8000
007F8000
007F8000
007F8000
007F8000
007F8000
007F8000
007F8000
007F8000
ENDCHAR
STARTCHAR 00D1
ENCODING 209
SWIDTH 555 0
DWIDTH 37 0
BBX 33 59 1 0
BITMAP
007F808000
007FFF8000
007FFF8000
007FFF8000
007FFF8000
00007F0000
0000000000
0000000000
0000000000
0000000000
0000000000
0400000000
0E0000FF80
1F0000FF80
3FC000FF80
3FE000FF80
7FF000FF80
FFF800FF80
7FFE00FF80
1FFF00FF80
0FFF80FF80
0FFFE0FF80
0FFFF0FF80
0FFFF8FF80
0FFFFCFF80
0FFFFFFF80
0FFFFFFF80
0FF7FFFF80
0FF3FFFF80
0FF0FFFF80
0FF07FFF80
0FF03FFF80
0FF01FFF80
0FF007FF80
0FF003FF80
0FF001FF80
0FF000FF80
0FF000FF80
0FF000FF80
0FF000FF80
0FF000FF80
0FF000FF80
0FF000FF80
0FF000FF80
0FF000FF80
0FF000FF80
0FF000FF80
0FF000FF80
0FF000FF80
0FF000FF80
0FF000FF80
0FF000FF80
0FF000FF80
0FF000FF80
0FF000FF80
0FF000FF80
0FF000FF80
0FF000FF80
0FF000FF80
ENDCHAR
STARTCHAR 00D2
ENCODING 210
SWIDTH 810 0
DWIDTH 54 0
BBX 50 60 2 -1
BITMAP
00003F80000000
00001F80000000
00000FC0000000
000007C0000000
000007E0000000
000003E0000000
000001F0000000
000000F0000000
00000000000000
00000000000000
00000000000000
000000F0000000
00007FFF800000
0001FFFFF00000
0007FFFFFC0000
001FFFFFFF0000
003FFFFFFF8000
00FFFFFFFFC000
01FFFFFFFFE000
03FFFC07FFF000
07FFC000FFF800
07FF00003FFC00
0FFE00000FFE00
1FFC000007FE00
1FF8000003FF00
3FF0000001FF00
3FE0000000FF80
3FE0000000FF80
7FC00000007F80
7FC00000007FC0
7F800000007FC0
7F800000003FC0
FF800000003FC0
FF800000003FC0
FF800000003FC0
FF800000003FC0
FF800000003FC0
FF800000003FC0
FF800000003FC0
7F800000003FC0
7F800000007FC0
7FC00000007FC0
7FC00000007FC0
3FE0000000FF80
3FE0000000FF80
3FF0000001FF00
1FF8000003FF00
1FF8000007FE00
0FFE00000FFE00
07FF00001FFC00
07FFC0007FFC00
03FFF003FFF800
01FFFFFFFFF000
00FFFFFFFFE000
007FFFFFFFC000
001FFFFFFF0000
000FFFFFFE0000
0003FFFFF80000
00007FFFC00000
00000FFE000000
ENDCHAR
STARTCHAR 00D3
ENCODING 211
SWIDTH 810 0
DWIDTH 54 0
BBX 50 60 2 -1
BITMAP
0000003F800000
0000003F000000
0000007E000000
0000007C000000
000000FC000000
000000F8000000
000001F0000000
000001E0000000
00000000000000
00000000000000
00000000000000
000000F0000000
00007FFF800000
0001FFFFF00000
0007FFFFFC0000
001FFFFFFF0000
003FFFFFFF8000
00FFFFFFFFC000
01FFFFFFFFE000
03FFFC07FFF000
07FFC000FFF800
07FF00003FFC00
0FFE00000FFE00
1FFC000007FE00
1FF8000003FF00
3FF0000001FF00
3FE0000000FF80
3FE0000000FF80
7FC00000007F80
7FC00000007FC0
7F800000007FC0
7F800000003FC0
FF800000003FC0
FF800000003FC0
FF800000003FC0
FF800000003FC0
FF800000003FC0
FF800000003FC0
FF800000003FC0
7F800000003FC0
7F800000007FC0
7FC00000007FC0
7FC00000007FC0
3FE0000000FF80
3FE0000000FF80
3FF0000001FF00
1FF8000003FF00
1FF8000007FE00
0FFE00000FFE00
07FF00001FFC00
07FFC0007FFC00
03FFF003FFF800
01FFFFFFFFF000
00FFFFFFFFE000
007FFFFFFFC000
001FFFFFFF0000
000FFFFFFE0000
0003FFFFF80000
00007FFFC00000
00000FFE000000
ENDCHAR
STARTCHAR 00D4
ENCODING 212
SWIDTH 810 0
DWIDTH 54 0
BBX 50 60 2 -1
BITMAP
00000FFC000000
00000FFE000000
00001FFF000000
00003FBF800000
00003F3F800000
00007F1FC00000
0000FE0FE00000
0001FC07F00000
00000000000000
00000000000000
00000000000000
000000F0000000
00007FFF800000
0001FFFFF00000
0007FFFFFC0000
001FFFFFFF0000
003FFFFFFF8000
00FFFFFFFFC000
01FFFFFFFFE000
03FFFC07FFF000
07FFC000FFF800
07FF00003FFC00
0FFE00000FFE00
1FFC000007FE00
1FF8000003FF00
3FF0000001FF00
3FE0000000FF80
3FE0000000FF80
7FC00000007F80
7FC00000007FC0
7F800000007FC0
7F800000003FC0
FF800000003FC0
FF800000003FC0
FF800000003FC0
FF800000003FC0
FF800000003FC0
FF800000003FC0
FF800000003FC0
7F800000003FC0
7F800000007FC0
7FC00000007FC0
7FC00000007FC0
3FE0000000FF80
3FE0000000FF80
3FF0000001FF00
1FF8000003FF00
1FF8000007FE00
0FFE00000FFE00
07FF00001FFC00
07FFC0007FFC00
03FFF003FFF800
01FFFFFFFFF000
00FFFFFFFFE000
007FFFFFFFC000
001FFFFFFF0000
000FFFFFFE0000
0003FFFFF80000
00007FFFC00000
00000FFE000000
ENDCHAR
STARTCHAR 00D5
ENCODING 213
SWIDTH 810 0
DWIDTH 54 0
BBX 50 60 2 -1
BITMAP
00007F80000000
00007FFF000000
00007FFF000000
00007FFF000000
00007FFF000000
0000007F000000
00000000000000
00000000000000
00000000000000
00000000000000
00000000000000
000000F0000000
00007FFF800000
0001FFFFF00000
0007FFFFFC0000
001FFFFFFF0000
003FFFFFFF8000
00FFFFFFFFC000
01FFFFFFFFE000
03FFFC07FFF000
07FFC000FFF800
07FF00003FFC00
0FFE00000FFE00
1FFC000007FE00
1FF8000003FF00
3FF0000001FF00
3FE0000000FF80
3FE0000000FF80
7FC00000007F80
7FC00000007FC0
7F800000007FC0
7F800000003FC0
FF800000003FC0
FF800000003FC0
FF800000003FC0
FF800000003FC0
FF800000003FC0
FF800000003FC0
FF800000003FC0
7F800000003FC0
7F800000007FC0
7FC00000007FC0
7FC00000007FC0
3FE0000000FF80
3FE0000000FF80
3FF0000001FF00
1FF8000003FF00
1FF8000007FE00
0FFE00000FFE00
07FF00001FFC00
07FFC0007FFC00
03FFF003FFF800
01FFFFFFFFF000
00FFFFFFFFE000
007FFFFFFFC000
001FFFFFFF0000
000FFFFFFE0000
0003FFFFF80000
00007FFFC00000
00000FFE000000
ENDCHAR
STARTCHAR 00D6
ENCODING 214
SWIDTH 810 0
DWIDTH 54 0
BBX 50 61 2 -1
BITMAP
0001F801F80000
0003FC07FC0000
0007FE07FC0000
0007FE0FFE0000
0007FE0FFE0000
0007FE0FFE0000
0007FE0FFE0000
0007FE07FC0000
0003FC03FC0000
0001F801F00000
00000000000000
00000000000000
000000F0000000
00007FFF800000
0001FFFFF00000
0007FFFFFC0000
001FFFFFFF0000
003FFFFFFF8000
00FFFFFFFFC000
01FFFFFFFFE000
03FFFC07FFF000
07FFC000FFF800
07FF00003FFC00
0FFE00000FFE00
1FFC000007FE00
1FF8000003FF00
3FF0000001FF00
3FE0000000FF80
3FE0000000FF80
7FC00000007F80
7FC00000007FC0
7F800000007FC0
7F800000003FC0
FF800000003FC0
FF800000003FC0
FF800000003FC0
FF800000003FC0
FF800000003FC0
FF800000003FC0
FF800000003FC0
7F800000003FC0
7F800000007FC0
7FC00000007FC0
7FC00000007FC0
3FE0000000FF80
3FE0000000FF80
3FF0000001FF00
1FF8000003FF00
1FF8000007FE00
0FFE00000FFE00
07FF00001FFC00
07FFC0007FFC00
03FFF003FFF800
01FFFFFFFFF000
00FFFFFFFFE000
007FFFFFFFC000
001FFFFFFF0000
000FFFFFFE0000
0003FFFFF80000
00007FFFC00000
00000FFE000000
ENDCHAR
STARTCHAR 00D7
ENCODING 215
SWIDTH 525 0
DWIDTH 35 0
BBX 28 28 4 9
BITMAP
18000180
3C0003C0
7E0007E0
FF000FF0
FF801FF0
7FC03FE0
3FE07FC0
1FF0FF80
0FF9FF00
07FFFE00
03FFFC00
01FFF800
00FFF000
007FE000
007FE000
00FFF000
01FFF800
03FFFC00
07FFFE00
0FF9FF00
1FF0FF80
3FE07FC0
7FC03FE0
FF801FF0
7F000FE0
3E0007C0
1C000380
08000100
ENDCHAR
STARTCHAR 00D8
ENCODING 216
SWIDTH 795 0
DWIDTH 53 0
BBX 50 51 2 -3
BITMAP
00000000001000
000007F0003C00
00007FFF807E00
0003FFFFF0FF00
000FFFFFFDFE00
003FFFFFFFFC00
007FFFFFFFF800
00FFFFFFFFF000
01FFFFFFFFE000
03FFF807FFF000
07FFC000FFF800
0FFF00007FF800
1FFC0000FFFC00
1FF80001FFFE00
3FF00003FFFE00
3FE00003FBFF00
7FE00007F1FF00
7FC0000FE1FF00
7F80001FE0FF80
FF80003FC0FF80
FF80007F807F80
FF0000FF007F80
FF0000FE007FC0
FF0001FC007FC0
FF0003F8007FC0
FF0007F0007FC0
FF000FF0007FC0
FF001FE0007FC0
FF003FC0007FC0
FF007F80007F80
FF807F00007F80
FF80FE0000FF80
7F81FC0000FF80
7FC3FC0000FF80
7FC7F80001FF00
3FEFF00003FF00
3FFFE00003FE00
1FFFC00007FE00
1FFF80001FFC00
0FFF00003FFC00
07FF8000FFF800
07FFF003FFF000
03FFFFFFFFE000
07FFFFFFFFC000
0FFFFFFFFF8000
0FFFFFFFFF0000
1FCFFFFFFC0000
3F87FFFFF00000
3F80FFFFC00000
1F000FFC000000
06000000000000
ENDCHAR
STARTCHAR 00D9
ENCODING 217
SWIDTH 525 0
DWIDTH 35 0
BBX 29 60 3 -1
BITMAP
00FC0000
00FC0000
007E0000
003F0000
001F0000
001F8000
000F8000
0007C000
00000000
00000000
00000000
00000000
FF0007F8
FF0007F8
FF0007F8
FF0007F8
FF0007F8
FF0007F8
FF0007F8
FF0007F8
FF0007F8
FF0007F8
FF0007F8
FF0007F8
FF0007F8
FF0007F8
FF0007F8
FF0007F8
FF0007F8
FF0007F8
FF0007F8
FF0007F8
FF0007F8
FF0007F8
FF0007F8
FF0007F8
FF0007F8
FF0007F8
FF0007F8
FF0007F8
FF0007F8
FF0007F8
FF0007F8
FF0007F8
FF0007F8
FF0007F8
FF8007F8
FF800FF8
FF800FF8
7FC00FF0
7FC01FF0
7FF03FF0
3FFFFFE0
3FFFFFE0
1FFFFFC0
0FFFFF80
07FFFF00
03FFFE00
00FFF800
001FE000
ENDCHAR
STARTCHAR 00DA
ENCODING 218
SWIDTH 525 0
DWIDTH 35 0
BBX 29 60 3 -1
BITMAP
0001FC00
0001F800
0003F000
0003F000
0007E000
0007C000
000F8000
000F8000
00000000
00000000
00000000
00000000
FF0007F8
FF0007F8
FF0007F8
FF0007F8
FF0007F8
FF0007F8
FF0007F8
FF0007F8
FF0007F8
FF0007F8
FF0007F8
FF0007F8
FF0007F8
FF0007F8
FF0007F8
FF0007F8
FF0007F8
FF0007F8
FF0007F8
FF0007F8
FF0007F8
FF0007F8
FF0007F8
FF0007F8
FF0007F8
FF0007F8
FF0007F8
FF0007F8
FF0007F8
FF0007F8
FF0007F8
FF0007F8
FF0007F8
FF0007F8
FF8007F8
FF800FF8
FF800FF8
7FC00FF0
7FC01FF0
7FF03FF0
3FFFFFE0
3FFFFFE0
1FFFFFC0
0FFFFF80
07FFFF00
03FFFE00
00FFF800
001FE000
ENDCHAR
STARTCHAR 00DB
ENCODING 219
SWIDTH 525 0
DWIDTH 35 0
BBX 29 60 3 -1
BITMAP
003FF000
007FF000
00FFF800
01FDFC00
01F8FE00
03F8FE00
07F07F00
07E03F80
08000000
00000000
00000000
00000000
FF0007F8
FF0007F8
FF0007F8
FF0007F8
FF0007F8
FF0007F8
FF0007F8
FF0007F8
FF0007F8
FF0007F8
FF0007F8
FF0007F8
FF0007F8
FF0007F8
FF0007F8
FF0007F8
FF0007F8
FF0007F8
FF0007F8
FF0007F8
FF0007F8
FF0007F8
FF0007F8
FF0007F8
FF0007F8
FF0007F8
FF0007F8
FF0007F8
FF0007F8
FF0007F8
FF0007F8
FF0007F8
FF0007F8
FF0007F8
FF8007F8
FF800FF8
FF800FF8
7FC00FF0
7FC01FF0
7FF03FF0
3FFFFFE0
3FFFFFE0
1FFFFFC0
0FFFFF80
07FFFF00
03FFFE00
00FFF800
001FE000
ENDCHAR
STARTCHAR 00DC
ENCODING 220
SWIDTH 525 0
DWIDTH 35 0
BBX 29 61 3 -1
BITMAP
0FC00FC0
1FE01FE0
3FF03FF0
3FF03FF0
3FF87FF0
3FF87FF0
3FF03FF0
3FF03FF0
1FE01FE0
0FC00FC0
00000000
00000000
00000000
FF0007F8
FF0007F8
FF0007F8
FF0007F8
FF0007F8
FF0007F8
FF0007F8
FF0007F8
FF0007F8
FF0007F8
FF0007F8
FF0007F8
FF0007F8
FF0007F8
FF0007F8
FF0007F8
FF0007F8
FF0007F8
FF0007F8
FF0007F8
FF0007F8
FF0007F8
FF0007F8
FF0007F8
FF0007F8
FF0007F8
FF0007F8
FF0007F8
FF0007F8
FF0007F8
FF0007F8
FF0007F8
FF0007F8
FF0007F8
FF8007F8
FF800FF8
FF800FF8
7FC00FF0
7FC01FF0
7FF03FF0
3FFFFFE0
3FFFFFE0
1FFFFFC0
0FFFFF80
07FFFF00
03FFFE00
00FFF800
001FE000
ENDCHAR
STARTCHAR 00DD
ENCODING 221
SWIDTH 510 0
DWIDTH 34 0
BBX 29 59 3 0
BITMAP
0001F800
0001F800
0003F000
0003E000
0007C000
0007C000
000F8000
000F0000
00000000
00000000
00000000
00000000
FF0007F8
FF0007F8
FF0007F8
FF0007F8
FF0007F8
FF0007F8
FF0007F8
FF0007F8
FF0007F8
FF0007F8
FF0007F8
FF0007F8
FF0007F8
FF0007F8
FF0007F8
FF0007F8
FF0007F8
FF0007F8
FF0007F8
FF0007F8
FF0007F8
FF0007F8
FF000FF8
FF000FF8
FF800FF8
FF800FF0
7FC01FF0
7FE03FF0
7FFFFFE0
3FFFFFE0
1FFFFFC0
1FFFFF80
0FFFFF00
07FFFE00
01FFFC00
007FE000
003FE000
003FE000
003FE000
003FE000
003FE000
003FE000
003FE000
003FE000
003FE000
003FE000
003FE000
ENDCHAR
STARTCHAR 00E0
ENCODING 224
SWIDTH 555 0
DWIDTH 37 0
BBX 34 59 3 0
BITMAP
00FC000000
007E000000
007E000000
003F000000
001F000000
000F800000
000F800000
0007C00000
0000000000
0000000000
0000000000
0007800000
007FF80000
01FFFE0000
03FFFF0000
07FFFF8000
0FFFFFC000
1FFFFFE000
3FFFFFE000
3FF87FF000
7FE01FF000
7FC00FF800
7FC00FF800
7F8007F800
7F8007F800
FF8007FC00
FF8007FC00
FF8007FC00
FF8007FC00
FF8007FC00
FF8007FC00
FF8007FC00
FF8007FC00
FF8007FC00
FF8007FC00
FF8007FC00
FF8007FC00
FF8007FC00
FF8007FC00
FF8007FC00
FF8007FC00
FF8007FC00
FF8007FC00
FF8007FC00
FF8007FC00
FF8007FC00
FF8007FC00
FF8007FC00
FF8007FC00
FF8007FC00
FF8007FC00
FFFFFFFFC0
FFFFFFFFC0
FFFFFFFFC0
FFFFFFFFC0
FFFFFFFFC0
FFFFFFFFC0
FFFFFFFFC0
FFFFFFFFC0
ENDCHAR
STARTCHAR 00E1
ENCODING 225
SWIDTH 555 0
DWIDTH 37 0
BBX 34 59 3 0
BITMAP
0000FC0000
0001F80000
0001F80000
0003F00000
0003E00000
0007C00000
0007C00000
000F800000
0000000000
0000000000
0000000000
0007800000
007FF80000
01FFFE0000
03FFFF0000
07FFFF8000
0FFFFFC000
1FFFFFE000
3FFFFFE000
3FF87FF000
7FE01FF000
7FC00FF800
7FC00FF800
7F8007F800
7F8007F800
FF8007FC00
FF8007FC00
FF8007FC00
FF8007FC00
FF8007FC00
FF8007FC00
FF8007FC00
FF8007FC00
FF8007FC00
FF8007FC00
FF8007FC00
FF8007FC00
FF8007FC00
FF8007FC00
FF8007FC00
FF8007FC00
FF8007FC00
FF8007FC00
FF8007FC00
FF8007FC00
FF8007FC00
FF8007FC00
FF8007FC00
FF8007FC00
FF8007FC00
FF8007FC00
FFFFFFFFC0
FFFFFFFFC0
FFFFFFFFC0
FFFFFFFFC0
FFFFFFFFC0
FFFFFFFFC0
FFFFFFFFC0
FFFFFFFFC0
ENDCHAR
STARTCHAR 00E2
ENCODING 226
SWIDTH 555 0
DWIDTH 37 0
BBX 34 59 3 0
BITMAP
003FF00000
007FF80000
007FF80000
00FFFC0000
01FCFE0000
03F87F0000
03F03F0000
07F03F8000
0000000000
0000000000
0000000000
0007800000
007FF80000
01FFFE0000
03FFFF0000
07FFFF8000
0FFFFFC000
1FFFFFE000
3FFFFFE000
3FF87FF000
7FE01FF000
7FC00FF800
7FC00FF800
7F8007F800
7F8007F800
FF8007FC00
FF8007FC00
FF8007FC00
FF8007FC00
FF8007FC00
FF8007FC00
FF8007FC00
FF8007FC00
FF8007FC00
FF8007FC00
FF8007FC00
FF8007FC00
FF8007FC00
FF8007FC00
FF8007FC00
FF8007FC00
FF8007FC00
FF8007FC00
FF8007FC00
FF8007FC00
FF8007FC00
FF8007FC00
FF8007FC00
FF8007FC00
FF8007FC00
FF8007FC00
FFFFFFFFC0
FFFFFFFFC0
FFFFFFFFC0
FFFFFFFFC0
FFFFFFFFC0
FFFFFFFFC0
FFFFFFFFC0
FFFFFFFFC0
ENDCHAR
STARTCHAR 00E3
ENCODING 227
SWIDTH 555 0
DWIDTH 37 0
BBX 34 59 3 0
BITMAP
03FE040000
03FFFC0000
03FFFC0000
03FFFC0000
03FFFC0000
0003F80000
0000000000
0000000000
0000000000
0000000000
0000000000
0007800000
007FF80000
01FFFE0000
03FFFF0000
07FFFF8000
0FFFFFC000
1FFFFFE000
3FFFFFE000
3FF87FF000
7FE01FF000
7FC00FF800
7FC00FF800
7F8007F800
7F8007F800
FF8007FC00
FF8007FC00
FF8007FC00
FF8007FC00
FF8007FC00
FF8007FC00
FF8007FC00
FF8007FC00
FF8007FC00
FF8007FC00
FF8007FC00
FF8007FC00
FF8007FC00
FF8007FC00
FF8007FC00
FF8007FC00
FF8007FC00
FF8007FC00
FF8007FC00
FF8007FC00
FF8007FC00
FF8007FC00
FF8007FC00
FF8007FC00
FF8007FC00
FF8007FC00
FFFFFFFFC0
FFFFFFFFC0
FFFFFFFFC0
FFFFFFFFC0
FFFFFFFFC0
FFFFFFFFC0
FFFFFFFFC0
FFFFFFFFC0
ENDCHAR
STARTCHAR 00E4
ENCODING 228
SWIDTH 555 0
DWIDTH 37 0
BBX 34 60 3 0
BITMAP
0FE00FC000
1FF01FE000
1FF03FF000
3FF83FF000
3FF83FF800
3FF83FF800
3FF83FF000
1FF03FF000
1FF01FE000
07C00FC000
0000000000
0000000000
0007800000
007FF80000
01FFFE0000
03FFFF0000
07FFFF8000
0FFFFFC000
1FFFFFE000
3FFFFFE000
3FF87FF000
7FE01FF000
7FC00FF800
7FC00FF800
7F8007F800
7F8007F800
FF8007FC00
FF8007FC00
FF8007FC00
FF8007FC00
FF8007FC00
FF8007FC00
FF8007FC00
FF8007FC00
FF8007FC00
FF8007FC00
FF8007FC00
FF8007FC00
FF8007FC00
FF8007FC00
FF8007FC00
FF8007FC00
FF8007FC00
FF8007FC00
FF8007FC00
FF8007FC00
FF8007FC00
FF8007FC00
FF8007FC00
FF8007FC00
FF8007FC00
FF8007FC00
FFFFFFFFC0
FFFFFFFFC0
FFFFFFFFC0
FFFFFFFFC0
FFFFFFFFC0
FFFFFFFFC0
FFFFFFFFC0
FFFFFFFFC0
ENDCHAR
STARTCHAR 00E5
ENCODING 229
SWIDTH 555 0
DWIDTH 37 0
BBX 34 64 3 0
BITMAP
000FC00000
003FE00000
007FF00000
007FF80000
00F8780000
00F03C0000
00F03C0000
00F03C0000
00F07C0000
007CF80000
007FF80000
003FF00000
001FE00000
0000000000
0000000000
0000000000
0007800000
007FF80000
01FFFE0000
03FFFF0000
07FFFF8000
0FFFFFC000
1FFFFFE000
3FFFFFE000
3FF87FF000
7FE01FF000
7FC00FF800
7FC00FF800
7F8007F800
7F8007F800
FF8007FC00
FF8007FC00
FF8007FC00
FF8007FC00
FF8007FC00
FF8007FC00
FF8007FC00
FF8007FC00
FF8007FC00
FF8007FC00
FF8007FC00
FF8007FC00
FF8007FC00
FF8007FC00
FF8007FC00
FF8007FC00
FF8007FC00
FF8007FC00
FF8007FC00
FF8007FC00
FF8007FC00
FF8007FC00
FF8007FC00
FF8007FC00
FF8007FC00
FF8007FC00
FFFFFFFFC0
FFFFFFFFC0
FFFFFFFFC0
FFFFFFFFC0
FFFFFFFFC0
FFFFFFFFC0
FFFFFFFFC0
FFFFFFFFC0
ENDCHAR
STARTCHAR 00E7
ENCODING 231
SWIDTH 675 0
DWIDTH 45 0
BBX 43 63 2 -15
BITMAP
000001F00000
00007FFF8000
0001FFFFF000
000FFFFFF800
001FFFFFFE00
007FFFFFFF00
00FFFFFFFF80
01FFFFFFFFC0
03FFF807FFE0
07FFC000FFC0
07FF00007F00
0FFE00001E00
1FFC00000C00
1FF800000000
3FF000000000
3FE000000000
3FE000000000
7FC000000000
7FC000000000
7F8000000000
7F8000000000
FF8000000000
FF8000000000
FF8000000000
FF8000000000
FF8000000000
FF8000000000
FF8000000000
7F8000000000
7F8000000000
7FC000000000
7FC000000000
3FE000000000
3FE000000000
3FF000000000
1FF800000000
1FF800000C00
0FFE00001E00
0FFF00003F00
07FFC000FF80
03FFF003FFC0
01FFFFFFFFE0
00FFFFFFFFC0
007FFFFFFF80
003FFFFFFE00
000FFFFFFC00
0003FFFFF000
0000FFFFC000
00000FFC0000
000007800000
000007800000
000007E00000
000007F00000
000000F80000
000000780000
000040780000
0000C0780000
0001F0F80000
0003FFF80000
0001FFF00000
0000FFF00000
00003FE00000
000006000000
ENDCHAR
STARTCHAR 00E8
ENCODING 232
SWIDTH 510 0
DWIDTH 34 0
BBX 32 59 2 0
BITMAP
01F80000
00FC0000
00FC0000
007E0000
003E0000
003F0000
001F0000
000F8000
00000000
00000000
00000000
00000000
0FFFFF00
0FFFFF00
0FFFFF00
0FFFFF00
0FFFFF00
0FFFFF00
0FFFFF00
0FFFFF00
0FF00000
0FF00000
0FF00000
0FF00000
0FF00000
0FF00000
0FF00000
0FF00000
0FF00000
0FF00000
0FF00000
0FF00000
FFFFFFC0
FFFFFFC0
FFFFFFC0
FFFFFFC0
FFFFFFC0
FFFFFFC0
FFFFFFC0
0FF00000
0FF00000
0FF00000
0FF00000
0FF00000
0FF00000
0FF00000
0FF00000
0FF00000
0FF00000
0FF00000
0FF00000
0FFFFFFF
0FFFFFFF
0FFFFFFF
0FFFFFFF
0FFFFFFF
0FFFFFFF
0FFFFFFF
0FFFFFFF
ENDCHAR
STARTCHAR 00E9
ENCODING 233
SWIDTH 510 0
DWIDTH 34 0
BBX 32 59 2 0
BITMAP
0001F800
0003F000
0003E000
0007E000
0007C000
000F8000
000F0000
001F0000
00000000
00000000
00000000
00000000
0FFFFF00
0FFFFF00
0FFFFF00
0FFFFF00
0FFFFF00
0FFFFF00
0FFFFF00
0FFFFF00
0FF00000
0FF00000
0FF00000
0FF00000
0FF00000
0FF00000
0FF00000
0FF00000
0FF00000
0FF00000
0FF00000
0FF00000
FFFFFFC0
FFFFFFC0
FFFFFFC0
FFFFFFC0
FFFFFFC0
FFFFFFC0
FFFFFFC0
0FF00000
0FF00000
0FF00000
0FF00000
0FF00000
0FF00000
0FF00000
0FF00000
0FF00000
0FF00000
0FF00000
0FF00000
0FFFFFFF
0FFFFFFF
0FFFFFFF
0FFFFFFF
0FFFFFFF
0FFFFFFF
0FFFFFFF
0FFFFFFF
ENDCHAR
STARTCHAR 00EA
ENCODING 234
SWIDTH 510 0
DWIDTH 34 0
BBX 32 59 2 0
BITMAP
007FE000
00FFF000
01FFF000
01FBF800
03F9FC00
07F0FC00
0FE0FE00
0FC07F00
10000000
00000000
00000000
00000000
0FFFFF00
0FFFFF00
0FFFFF00
0FFFFF00
0FFFFF00
0FFFFF00
0FFFFF00
0FFFFF00
0FF00000
0FF00000
0FF00000
0FF00000
0FF00000
0FF00000
0FF00000
0FF00000
0FF00000
0FF00000
0FF00000
0FF00000
FFFFFFC0
FFFFFFC0
FFFFFFC0
FFFFFFC0
FFFFFFC0
FFFFFFC0
FFFFFFC0
0FF00000
0FF00000
0FF00000
0FF00000
0FF00000
0FF00000
0FF00000
0FF00000
0FF00000
0FF00000
0FF00000
0FF00000
0FFFFFFF
0FFFFFFF
0FFFFFFF
0FFFFFFF
0FFFFFFF
0FFFFFFF
0FFFFFFF
0FFFFFFF
ENDCHAR
STARTCHAR 00EB
ENCODING 235
SWIDTH 510 0
DWIDTH 34 0
BBX 32 60 2 0
BITMAP
1F801F80
3FC03FC0
7FE07FE0
7FF07FE0
7FF07FE0
7FF07FE0
7FE07FE0
3FE07FE0
3FC03FC0
1F801F80
00000000
00000000
00000000
0FFFFF00
0FFFFF00
0FFFFF00
0FFFFF00
0FFFFF00
0FFFFF00
0FFFFF00
0FFFFF00
0FF00000
0FF00000
0FF00000
0FF00000
0FF00000
0FF00000
0FF00000
0FF00000
0FF00000
0FF00000
0FF00000
0FF00000
FFFFFFC0
FFFFFFC0
FFFFFFC0
FFFFFFC0
FFFFFFC0
FFFFFFC0
FFFFFFC0
0FF00000
0FF00000
0FF00000
0FF00000
0FF00000
0FF00000
0FF00000
0FF00000
0FF00000
0FF00000
0FF00000
0FF00000
0FFFFFFF
0FFFFFFF
0FFFFFFF
0FFFFFFF
0FFFFFFF
0FFFFFFF
0FFFFFFF
0FFFFFFF
ENDCHAR
STARTCHAR 00EC
ENCODING 236
SWIDTH 225 0
DWIDTH 15 0
BBX 11 41 1 0
BITMAP
FC00
7E00
7E00
3F00
1F00
0F80
0F80
07C0
0000
0000
0000
0000
1FE0
1FE0
1FE0
1FE0
1FE0
1FE0
1FE0
1FE0
1FE0
1FE0
1FE0
1FE0
1FE0
1FE0
1FE0
1FE0
1FE0
1FE0
1FE0
1FE0
1FE0
1FE0
1FE0
1FE0
1FE0
1FE0
1FE0
1FE0
1FE0
ENDCHAR
STARTCHAR 00ED
ENCODING 237
SWIDTH 225 0
DWIDTH 15 0
BBX 11 41 4 0
BITMAP
07E0
0FC0
0F80
1F80
1F00
3E00
3E00
7C00
0000
0000
0000
0000
FF00
FF00
FF00
FF00
FF00
FF00
FF00
FF00
FF00
FF00
FF00
FF00
FF00
FF00
FF00
FF00
FF00
FF00
FF00
FF00
FF00
FF00
FF00
FF00
FF00
FF00
FF00
FF00
FF00
ENDCHAR
STARTCHAR 00EE
ENCODING 238
SWIDTH 225 0
DWIDTH 15 0
BBX 20 41 -2 0
BITMAP
07FE00
0FFF00
1FFF00
1FBF80
3F9FC0
7F0FE0
FE0FE0
FC07F0
000000
000000
000000
000000
03FC00
03FC00
03FC00
03FC00
03FC00
03FC00
03FC00
03FC00
03FC00
03FC00
03FC00
03FC00
03FC00
03FC00
03FC00
03FC00
03FC00
03FC00
03FC00
03FC00
03FC00
03FC00
03FC00
03FC00
03FC00
03FC00
03FC00
03FC00
03FC00
ENDCHAR
STARTCHAR 00EF
ENCODING 239
SWIDTH 225 0
DWIDTH 15 0
BBX 26 42 -5 0
BITMAP
3F003F00
7F807F80
FFC0FFC0
FFE0FFC0
FFE0FFC0
FFE0FFC0
FFC0FFC0
7FC0FFC0
7F807F80
3F003F00
00000000
00000000
00000000
007F8000
007F8000
007F8000
007F8000
007F8000
007F8000
007F8000
007F8000
007F8000
007F8000
007F8000
007F8000
007F8000
007F8000
007F8000
007F8000
007F8000
007F8000
007F8000
007F8000
007F8000
007F8000
007F8000
007F8000
007F8000
007F8000
007F8000
007F8000
007F8000
ENDCHAR
STARTCHAR 00F1
ENCODING 241
SWIDTH 555 0
DWIDTH 37 0
BBX 33 59 1 0
BITMAP
007F808000
007FFF8000
007FFF8000
007FFF8000
007FFF8000
00007F0000
0000000000
0000000000
0000000000
0000000000
0000000000
0400000000
0E0000FF80
1F0000FF80
3FC000FF80
3FE000FF80
7FF000FF80
FFF800FF80
7FFE00FF80
1FFF00FF80
0FFF80FF80
0FFFE0FF80
0FFFF0FF80
0FFFF8FF80
0FFFFCFF80
0FFFFFFF80
0FFFFFFF80
0FF7FFFF80
0FF3FFFF80
0FF0FFFF80
0FF07FFF80
0FF03FFF80
0FF01FFF80
0FF007FF80
0FF003FF80
0FF001FF80
0FF000FF80
0FF000FF80
0FF000FF80
0FF000FF80
0FF000FF80
0FF000FF80
0FF000FF80
0FF000FF80
0FF000FF80
0FF000FF80
0FF000FF80
0FF000FF80
0FF000FF80
0FF000FF80
0FF000FF80
0FF000FF80
0FF000FF80
0FF000FF80
0FF000FF80
0FF000FF80
0FF000FF80
0FF000FF80
0FF000FF80
ENDCHAR
STARTCHAR 00F2
ENCODING 242
SWIDTH 810 0
DWIDTH 54 0
BBX 50 60 2 -1
BITMAP
00003F80000000
00001F80000000
00000FC0000000
000007C0000000
000007E0000000
000003E0000000
000001F0000000
000000F0000000
00000000000000
00000000000000
00000000000000
000000F0000000
00007FFF800000
0001FFFFF00000
0007FFFFFC0000
001FFFFFFF0000
003FFFFFFF8000
00FFFFFFFFC000
01FFFFFFFFE000
03FFFC07FFF000
07FFC000FFF800
07FF00003FFC00
0FFE00000FFE00
1FFC000007FE00
1FF8000003FF00
3FF0000001FF00
3FE0000000FF80
3FE0000000FF80
7FC00000007F80
7FC00000007FC0
7F800000007FC0
7F800000003FC0
FF800000003FC0
FF800000003FC0
FF800000003FC0
FF800000003FC0
FF800000003FC0
FF800000003FC0
FF800000003FC0
7F800000003FC0
7F800000007FC0
7FC00000007FC0
7FC00000007FC0
3FE0000000FF80
3FE0000000FF80
3FF0000001FF00
1FF8000003FF00
1FF8000007FE00
0FFE00000FFE00
07FF00001FFC00
07FFC0007FFC00
03FFF003FFF800
01FFFFFFFFF000
00FFFFFFFFE000
007FFFFFFFC000
001FFFFFFF0000
000FFFFFFE0000
0003FFFFF80000
00007FFFC00000
00000FFE000000
ENDCHAR
STARTCHAR 00F3
ENCODING 243
SWIDTH 810 0
DWIDTH 54 0
BBX 50 60 2 -1
BITMAP
0000003F800000
0000003F000000
0000007E000000
0000007C000000
000000FC000000
000000F8000000
000001F0000000
000001E0000000
00000000000000
00000000000000
00000000000000
000000F0000000
00007FFF800000
0001FFFFF00000
0007FFFFFC0000
001FFFFFFF0000
003FFFFFFF8000
00FFFFFFFFC000
01FFFFFFFFE000
03FFFC07FFF000
07FFC000FFF800
07FF00003FFC00
0FFE00000FFE00
1FFC000007FE00
1FF8000003FF00
3FF0000001FF00
3FE0000000FF80
3FE0000000FF80
7FC00000007F80
7FC00000007FC0
7F800000007FC0
7F800000003FC0
FF800000003FC0
FF800000003FC0
FF800000003FC0
FF800000003FC0
FF800000003FC0
FF800000003FC0
FF800000003FC0
7F800000003FC0
7F800000007FC0
7FC00000007FC0
7FC00000007FC0
3FE0000000FF80
3FE0000000FF80
3FF0000001FF00
1FF8000003FF00
1FF8000007FE00
0FFE00000FFE00
07FF00001FFC00
07FFC0007FFC00
03FFF003FFF800
01FFFFFFFFF000
00FFFFFFFFE000
007FFFFFFFC000
001FFFFFFF0000
000FFFFFFE0000
0003FFFFF80000
00007FFFC00000
00000FFE000000
ENDCHAR
STARTCHAR 00F4
ENCODING 244
SWIDTH 810 0
DWIDTH 54 0
BBX 50 60 2 -1
BITMAP
00000FFC000000
00000FFE000000
00001FFF000000
00003FBF800000
00003F3F800000
00007F1FC00000
0000FE0FE00000
0001FC07F00000
00000000000000
00000000000000
00000000000000
000000F0000000
00007FFF800000
0001FFFFF00000
0007FFFFFC0000
001FFFFFFF0000
003FFFFFFF8000
00FFFFFFFFC000
01FFFFFFFFE000
03FFFC07FFF000
07FFC000FFF800
07FF00003FFC00
0FFE00000FFE00
1FFC000007FE00
1FF8000003FF00
3FF0000001FF00
3FE0000000FF80
3FE0000000FF80
7FC00000007F80
7FC00000007FC0
7F800000007FC0
7F800000003FC0
FF800000003FC0
FF800000003FC0
FF800000003FC0
FF800000003FC0
FF800000003FC0
FF800000003FC0
FF800000003FC0
7F800000003FC0
7F800000007FC0
7FC00000007FC0
7FC00000007FC0
3FE0000000FF80
3FE0000000FF80
3FF0000001FF00
1FF8000003FF00
1FF8000007FE00
0FFE00000FFE00
07FF00001FFC00
07FFC0007FFC00
03FFF003FFF800
01FFFFFFFFF000
00FFFFFFFFE000
007FFFFFFFC000
001FFFFFFF0000
000FFFFFFE0000
0003FFFFF80000
00007FFFC00000
00000FFE000000
ENDCHAR
STARTCHAR 00F5
ENCODING 245
SWIDTH 810 0
DWIDTH 54 0
BBX 50 60 2 -1
BITMAP
00007F80000000
00007FFF000000
00007FFF000000
00007FFF000000
00007FFF000000
0000007F000000
00000000000000
00000000000000
00000000000000
00000000000000
00000000000000
000000F0000000
00007FFF800000
0001FFFFF00000
0007FFFFFC0000
001FFFFFFF0000
003FFFFFFF8000
00FFFFFFFFC000
01FFFFFFFFE000
03FFFC07FFF000
07FFC000FFF800
07FF00003FFC00
0FFE00000FFE00
1FFC000007FE00
1FF8000003FF00
3FF0000001FF00
3FE0000000FF80
3FE0000000FF80
7FC00000007F80
7FC00000007FC0
7F800000007FC0
7F800000003FC0
FF800000003FC0
FF800000003FC0
FF800000003FC0
FF800000003FC0
FF800000003FC0
FF800000003FC0
FF800000003FC0
7F800000003FC0
7F800000007FC0
7FC00000007FC0
7FC00000007FC0
3FE0000000FF80
3FE0000000FF80
3FF0000001FF00
1FF8000003FF00
1FF8000007FE00
0FFE00000FFE00
07FF00001FFC00
07FFC0007FFC00
03FFF003FFF800
01FFFFFFFFF000
00FFFFFFFFE000
007FFFFFFFC000
001FFFFFFF0000
000FFFFFFE0000
0003FFFFF80000
00007FFFC00000
00000FFE000000
ENDCHAR
STARTCHAR 00F6
ENCODING 246
SWIDTH 810 0
DWIDTH 54 0
BBX 50 61 2 -1
BITMAP
0001F801F80000
0003FC07FC0000
0007FE07FC0000
0007FE0FFE0000
0007FE0FFE0000
0007FE0FFE0000
0007FE0FFE0000
0007FE07FC0000
0003FC03FC0000
0001F801F00000
00000000000000
00000000000000
000000F0000000
00007FFF800000
0001FFFFF00000
0007FFFFFC0000
001FFFFFFF0000
003FFFFFFF8000
00FFFFFFFFC000
01FFFFFFFFE000
03FFFC07FFF000
07FFC000FFF800
07FF00003FFC00
0FFE00000FFE00
1FFC000007FE00
1FF8000003FF00
3FF0000001FF00
3FE0000000FF80
3FE0000000FF80
7FC00000007F80
7FC00000007FC0
7F800000007FC0
7F800000003FC0
FF800000003FC0
FF800000003FC0
FF800000003FC0
FF800000003FC0
FF800000003FC0
FF800000003FC0
FF800000003FC0
7F800000003FC0
7F800000007FC0
7FC00000007FC0
7FC00000007FC0
3FE0000000FF80
3FE0000000FF80
3FF0000001FF00
1FF8000003FF00
1FF8000007FE00
0FFE00000FFE00
07FF00001FFC00
07FFC0007FFC00
03FFF003FFF800
01FFFFFFFFF000
00FFFFFFFFE000
007FFFFFFFC000
001FFFFFFF0000
000FFFFFFE0000
0003FFFFF80000
00007FFFC00000
00000FFE000000
ENDCHAR
STARTCHAR 00F7
ENCODING 247
SWIDTH 570 0
DWIDTH 38 0
BBX 31 31 4 6
BITMAP
000FC000
001FE000
001FE000
001FF000
001FF000
001FF000
001FE000
000FC000
00078000
00000000
00000000
00000000
FFFFFFFE
FFFFFFFE
FFFFFFFE
FFFFFFFE
FFFFFFFE
FFFFFFFE
FFFFFFFE
00000000
00000000
00000000
00030000
000FC000
001FE000
001FF000
001FF000
001FF000
001FE000
001FE000
000FC000
ENDCHAR
STARTCHAR 00F8
ENCODING 248
SWIDTH 795 0
DWIDTH 53 0
BBX 50 51 2 -3
BITMAP
00000000001000
000007F0003C00
00007FFF807E00
0003FFFFF0FF00
000FFFFFFDFE00
003FFFFFFFFC00
007FFFFFFFF800
00FFFFFFFFF000
01FFFFFFFFE000
03FFF807FFF000
07FFC000FFF800
0FFF00007FF800
1FFC0000FFFC00
1FF80001FFFE00
3FF00003FFFE00
3FE00003FBFF00
7FE00007F1FF00
7FC0000FE1FF00
7F80001FE0FF80
FF80003FC0FF80
FF80007F807F80
FF0000FF007F80
FF0000FE007FC0
FF0001FC007FC0
FF0003F8007FC0
FF0007F0007FC0
FF000FF0007FC0
FF001FE0007FC0
FF003FC0007FC0
FF007F80007F80
FF807F00007F80
FF80FE0000FF80
7F81FC0000FF80
7FC3FC0000FF80
7FC7F80001FF00
3FEFF00003FF00
3FFFE00003FE00
1FFFC00007FE00
1FFF80001FFC00
0FFF00003FFC00
07FF8000FFF800
07FFF003FFF000
03FFFFFFFFE000
07FFFFFFFFC000
0FFFFFFFFF8000
0FFFFFFFFF0000
1FCFFFFFFC0000
3F87FFFFF00000
3F80FFFFC00000
1F000FFC000000
06000000000000
ENDCHAR
STARTCHAR 00F9
ENCODING 249
SWIDTH 525 0
DWIDTH 35 0
BBX 29 60 3 -1
BITMAP
00FC0000
00FC0000
007E0000
003F0000
001F0000
001F8000
000F8000
0007C000
00000000
00000000
00000000
00000000
FF0007F8
FF0007F8
FF0007F8
FF0007F8
FF0007F8
FF0007F8
FF0007F8
FF0007F8
FF0007F8
FF0007F8
FF0007F8
FF0007F8
FF0007F8
FF0007F8
FF0007F8
FF0007F8
FF0007F8
FF0007F8
FF0007F8
FF0007F8
FF0007F8
FF0007F8
FF0007F8
FF0007F8
FF0007F8
FF0007F8
FF0007F8
FF0007F8
FF0007F8
FF0007F8
FF0007F8
FF0007F8
FF0007F8
FF0007F8
FF8007F8
FF800FF8
FF800FF8
7FC00FF0
7FC01FF0
7FF03FF0
3FFFFFE0
3FFFFFE0
1FFFFFC0
0FFFFF80
07FFFF00
03FFFE00
00FFF800
001FE000
ENDCHAR
STARTCHAR 00FA
ENCODING 250
SWIDTH 525 0
DWIDTH 35 0
BBX 29 60 3 -1
BITMAP
0001FC00
0001F800
0003F000
0003F000
0007E000
0007C000
000F8000
000F8000
00000000
00000000
00000000
00000000
FF0007F8
FF0007F8
FF0007F8
FF0007F8
FF0007F8
FF0007F8
FF0007F8
FF0007F8
FF0007F8
FF0007F8
FF0007F8
FF0007F8
FF0007F8
FF0007F8
FF0007F8
FF0007F8
FF0007F8
FF0007F8
FF0007F8
FF0007F8
FF0007F8
FF0007F8
FF0007F8
FF0007F8
FF0007F8
FF0007F8
FF0007F8
FF0007F8
FF0007F8
FF0007F8
FF0007F8
FF0007F8
FF0007F8
FF0007F8
FF8007F8
FF800FF8
FF800FF8
7FC00FF0
7FC01FF0
7FF03FF0
3FFFFFE0
3FFFFFE0
1FFFFFC0
0FFFFF80
07FFFF00
03FFFE00
00FFF800
001FE000
ENDCHAR
STARTCHAR 00FB
ENCODING 251
SWIDTH 525 0
DWIDTH 35 0
BBX 29 60 3 -1
BITMAP
003FF000
007FF000
00FFF800
01FDFC00
01F8FE00
03F8FE00
07F07F00
07E03F80
08000000
00000000
00000000
00000000
FF0007F8
FF0007F8
FF0007F8
FF0007F8
FF0007F8
FF0007F8
FF0007F8
FF0007F8
FF0007F8
FF0007F8
FF0007F8
FF0007F8
FF0007F8
FF0007F8
FF0007F8
FF0007F8
FF0007F8
FF0007F8
FF0007F8
FF0007F8
FF0007F8
FF0007F8
FF0007F8
FF0007F8
FF0007F8
FF0007F8
FF0007F8
FF0007F8
FF0007F8
FF0007F8
FF0007F8
FF0007F8
FF0007F8
FF0007F8
FF8007F8
FF800FF8
FF800FF8
7FC00FF0
7FC01FF0
7FF03FF0
3FFFFFE0
3FFFFFE0
1FFFFFC0
0FFFFF80
07FFFF00
03FFFE00
00FFF800
001FE000
ENDCHAR
STARTCHAR 00FC
ENCODING 252
SWIDTH 525 0
DWIDTH 35 0
BBX 29 61 3 -1
BITMAP
0FC00FC0
1FE01FE0
3FF03FF0
3FF03FF0
3FF87FF0
3FF87FF0
3FF03FF0
3FF03FF0
1FE01FE0
0FC00FC0
00000000
00000000
00000000
FF0007F8
FF0007F8
FF0007F8
FF0007F8
FF0007F8
FF0007F8
FF0007F8
FF0007F8
FF0007F8
FF0007F8
FF0007F8
FF0007F8
FF0007F8
FF0007F8
FF0007F8
FF0007F8
FF0007F8
FF0007F8
FF0007F8
FF0007F8
FF0007F8
FF0007F8
FF0007F8
FF0007F8
FF0007F8
FF0007F8
FF0007F8
FF0007F8
FF0007F8
FF0007F8
FF0007F8
FF0007F8
FF0007F8
FF0007F8
FF8007F8
FF800FF8
FF800FF8
7FC00FF0
7FC01FF0
7FF03FF0
3FFFFFE0
3FFFFFE0
1FFFFFC0
0FFFFF80
07FFFF00
03FFFE00
00FFF800
001FE000
ENDCHAR
STARTCHAR 00FD
ENCODING 253
SWIDTH 510 0
DWIDTH 34 0
BBX 29 59 3 0
BITMAP
0001F800
0001F800
0003F000
0003E000
0007C000
0007C000
000F8000
000F0000
00000000
00000000
00000000
00000000
FF0007F8
FF0007F8
FF0007F8
FF0007F8
FF0007F8
FF0007F8
FF0007F8
FF0007F8
FF0007F8
FF0007F8
FF0007F8
FF0007F8
FF0007F8
FF0007F8
FF0007F8
FF0007F8
FF0007F8
FF0007F8
FF0007F8
FF0007F8
FF0007F8
FF0007F8
FF000FF8
FF000FF8
FF800FF8
FF800FF0
7FC01FF0
7FE03FF0
7FFFFFE0
3FFFFFE0
1FFFFFC0
1FFFFF80
0FFFFF00
07FFFE00
01FFFC00
007FE000
003FE000
003FE000
003FE000
003FE000
003FE000
003FE000
003FE000
003FE000
003FE000
003FE000
003FE000
ENDCHAR
STARTCHAR 00FF
ENCODING 255
SWIDTH 510 0
DWIDTH 34 0
BBX 29 60 3 0
BITMAP
0FC01FC0
1FE03FE0
3FF03FE0
3FF07FF0
7FF07FF0
7FF07FF0
3FF07FF0
3FF03FE0
1FE03FE0
0FC00F80
00000000
00000000
00000000
FF0007F8
FF0007F8
FF0007F8
FF0007F8
FF0007F8
FF0007F8
FF0007F8
FF0007F8
FF0007F8
FF0007F8
FF0007F8
FF0007F8
FF0007F8
FF0007F8
FF0007F8
FF0007F8
FF0007F8
FF0007F8
FF0007F8
FF0007F8
FF0007F8
FF0007F8
FF000FF8
FF000FF8
FF800FF8
FF800FF0
7FC01FF0
7FE03FF0
7FFFFFE0
3FFFFFE0
1FFFFFC0
1FFFFF80
0FFFFF00
07FFFE00
01FFFC00
007FE000
003FE000
003FE000
003FE000
003FE000
003FE000
003FE000
003FE000
003FE000
003FE000
003FE000
003FE000
ENDCHAR
STARTCHAR 0100
ENCODING 256
SWIDTH 555 0
DWIDTH 37 0
BBX 34 58 3 0
BITMAP
03FFFF0000
03FFFF0000
03FFFF0000
03FFFF0000
03FFFF0000
03FFFF0000
0000000000
0000000000
0000000000
0000000000
0007800000
007FF80000
01FFFE0000
03FFFF0000
07FFFF8000
0FFFFFC000
1FFFFFE000
3FFFFFE000
3FF87FF000
7FE01FF000
7FC00FF800
7FC00FF800
7F8007F800
7F8007F800
FF8007FC00
FF8007FC00
FF8007FC00
FF8007FC00
FF8007FC00
FF8007FC00
FF8007FC00
FF8007FC00
FF8007FC00
FF8007FC00
FF8007FC00
FF8007FC00
FF8007FC00
FF8007FC00
FF8007FC00
FF8007FC00
FF8007FC00
FF8007FC00
FF8007FC00
FF8007FC00
FF8007FC00
FF8007FC00
FF8007FC00
FF8007FC00
FF8007FC00
FF8007FC00
FFFFFFFFC0
FFFFFFFFC0
FFFFFFFFC0
FFFFFFFFC0
FFFFFFFFC0
FFFFFFFFC0
FFFFFFFFC0
FFFFFFFFC0
ENDCHAR
STARTCHAR 0101
ENCODING 257
SWIDTH 555 0
DWIDTH 37 0
BBX 34 58 3 0
BITMAP
03FFFF0000
03FFFF0000
03FFFF0000
03FFFF0000
03FFFF0000
03FFFF0000
0000000000
0000000000
0000000000
0000000000
0007800000
007FF80000
01FFFE0000
03FFFF0000
07FFFF8000
0FFFFFC000
1FFFFFE000
3FFFFFE000
3FF87FF000
7FE01FF000
7FC00FF800
7FC00FF800
7F8007F800
7F8007F800
FF8007FC00
FF8007FC00
FF8007FC00
FF8007FC00
FF8007FC00
FF8007FC00
FF8007FC00
FF8007FC00
FF8007FC00
FF8007FC00
FF8007FC00
FF8007FC00
FF8007FC00
FF8007FC00
FF8007FC00
FF8007FC00
FF8007FC00
FF8007FC00
FF8007FC00
FF8007FC00
FF8007FC00
FF8007FC00
FF8007FC00
FF8007FC00
FF8007FC00
FF8007FC00
FFFFFFFFC0
FFFFFFFFC0
FFFFFFFFC0
FFFFFFFFC0
FFFFFFFFC0
FFFFFFFFC0
FFFFFFFFC0
FFFFFFFFC0
ENDCHAR
STARTCHAR 0102
ENCODING 258
SWIDTH 555 0
DWIDTH 37 0
BBX 34 59 3 0
BITMAP
07E01F0000
03E01F0000
03F03F0000
03F8FE0000
01FFFE0000
00FFFC0000
007FF80000
001FE00000
0000000000
0000000000
0000000000
0007800000
007FF80000
01FFFE0000
03FFFF0000
07FFFF8000
0FFFFFC000
1FFFFFE000
3FFFFFE000
3FF87FF000
7FE01FF000
7FC00FF800
7FC00FF800
7F8007F800
7F8007F800
FF8007FC00
FF8007FC00
FF8007FC00
FF8007FC00
FF8007FC00
FF8007FC00
FF8007FC00
FF8007FC00
FF8007FC00
FF8007FC00
FF8007FC00
FF8007FC00
FF8007FC00
FF8007FC00
FF8007FC00
FF8007FC00
FF8007FC00
FF8007FC00
FF8007FC00
FF8007FC00
FF8007FC00
FF8007FC00
FF8007FC00
FF8007FC00
FF8007FC00
FF8007FC00
FFFFFFFFC0
FFFFFFFFC0
FFFFFFFFC0
FFFFFFFFC0
FFFFFFFFC0
FFFFFFFFC0
FFFFFFFFC0
FFFFFFFFC0
ENDCHAR
STARTCHAR 0103
ENCODING 259
SWIDTH 555 0
DWIDTH 37 0
BBX 34 59 3 0
BITMAP
07E01F0000
03E01F0000
03F03F0000
03F8FE0000
01FFFE0000
00FFFC0000
007FF80000
001FE00000
0000000000
0000000000
0000000000
0007800000
007FF80000
01FFFE0000
03FFFF0000
07FFFF8000
0FFFFFC000
1FFFFFE000
3FFFFFE000
3FF87FF000
7FE01FF000
7FC00FF800
7FC00FF800
7F8007F800
7F8007F800
FF8007FC00
FF8007FC00
FF8007FC00
FF8007FC00
FF8007FC00
FF8007FC00
FF8007FC00
FF8007FC00
FF8007FC00
FF8007FC00
FF8007FC00
FF8007FC00
FF8007FC00
FF8007FC00
FF8007FC00
FF8007FC00
FF8007FC00
FF8007FC00
FF8007FC00
FF8007FC00
FF8007FC00
FF8007FC00
FF8007FC00
FF8007FC00
FF8007FC00
FF8007FC00
FFFFFFFFC0
FFFFFFFFC0
FFFFFFFFC0
FFFFFFFFC0
FFFFFFFFC0
FFFFFFFFC0
FFFFFFFFC0
FFFFFFFFC0
ENDCHAR
STARTCHAR 0104
ENCODING 260
SWIDTH 555 0
DWIDTH 37 0
BBX 37 61 3 -13
BITMAP
0007800000
007FF80000
01FFFE0000
03FFFF0000
07FFFF8000
0FFFFFC000
1FFFFFE000
3FFFFFE000
3FF87FF000
7FE01FF000
7FC00FF800
7FC00FF800
7F8007F800
7F8007F800
FF8007FC00
FF8007FC00
FF8007FC00
FF8007FC00
FF8007FC00
FF8007FC00
FF8007FC00
FF8007FC00
FF8007FC00
FF8007FC00
FF8007FC00
FF8007FC00
FF8007FC00
FF8007FC00
FF8007FC00
FF8007FC00
FF8007FC00
FF8007FC00
FF8007FC00
FF8007FC00
FF8007FC00
FF8007FC00
FF8007FC00
FF8007FC00
FF8007FC00
FF8007FC00
FFFFFFFFC0
FFFFFFFFC0
FFFFFFFFC0
FFFFFFFFC0
FFFFFFFFC0
FFFFFFFFC0
FFFFFFFFC0
FFFFFFFFC0
0000003F00
0000007C00
000000F800
000001F000
000001E000
000003E000
000003E000
000003E060
000001F1F0
000001FFF8
000000FFF0
0000007FE0
0000001F80
ENDCHAR
STARTCHAR 0105
ENCODING 261
SWIDTH 555 0
DWIDTH 37 0
BBX 37 61 3 -13
BITMAP
0007800000
007FF80000
01FFFE0000
03FFFF0000
07FFFF8000
0FFFFFC000
1FFFFFE000
3FFFFFE000
3FF87FF000
7FE01FF000
7FC00FF800
7FC00FF800
7F8007F800
7F8007F800
FF8007FC00
FF8007FC00
FF8007FC00
FF8007FC00
FF8007FC00
FF8007FC00
FF8007FC00
FF8007FC00
FF8007FC00
FF8007FC00
FF8007FC00
FF8007FC00
FF8007FC00
FF8007FC00
FF8007FC00
FF8007FC00
FF8007FC00
FF8007FC00
FF8007FC00
FF8007FC00
FF8007FC00
FF8007FC00
FF8007FC00
FF8007FC00
FF8007FC00
FF8007FC00
FFFFFFFFC0
FFFFFFFFC0
FFFFFFFFC0
FFFFFFFFC0
FFFFFFFFC0
FFFFFFFFC0
FFFFFFFFC0
FFFFFFFFC0
0000003F00
0000007C00
000000F800
000001F000
000001E000
000003E000
000003E000
000003E060
000001F1F0
000001FFF8
000000FFF0
0000007FE0
0000001F80
ENDCHAR
STARTCHAR 0106
ENCODING 262
SWIDTH 675 0
DWIDTH 45 0
BBX 43 60 2 -1
BITMAP
0000003F0000
0000007E0000
0000007E0000
000000FC0000
000000F80000
000001F00000
000001F00000
000003E00000
000000000000
000000000000
000000000000
000001F00000
00007FFF8000
0001FFFFF000
000FFFFFF800
001FFFFFFE00
007FFFFFFF00
00FFFFFFFF80
01FFFFFFFFC0
03FFF807FFE0
07FFC000FFC0
07FF00007F00
0FFE00001E00
1FFC00000C00
1FF800000000
3FF000000000
3FE000000000
3FE000000000
7FC000000000
7FC000000000
7F8000000000
7F8000000000
FF8000000000
FF8000000000
FF8000000000
FF8000000000
FF8000000000
FF8000000000
FF8000000000
7F8000000000
7F8000000000
7FC000000000
7FC000000000
3FE000000000
3FE000000000
3FF000000000
1FF800000000
1FF800000C00
0FFE00001E00
07FF00003F00
07FFC000FF80
03FFF003FFC0
01FFFFFFFFE0
00FFFFFFFFC0
007FFFFFFF80
001FFFFFFE00
000FFFFFFC00
0003FFFFF000
0000FFFFC000
00000FFC0000
ENDCHAR
STARTCHAR 0107
ENCODING 263
SWIDTH 675 0
DWIDTH 45 0
BBX 43 60 2 -1
BITMAP
0000003F0000
0000007E0000
0000007E0000
000000FC0000
000000F80000
000001F00000
000001F00000
000003E00000
000000000000
000000000000
000000000000
000001F00000
00007FFF8000
0001FFFFF000
000FFFFFF800
001FFFFFFE00
007FFFFFFF00
00FFFFFFFF80
01FFFFFFFFC0
03FFF807FFE0
07FFC000FFC0
07FF00007F00
0FFE00001E00
1FFC00000C00
1FF800000000
3FF000000000
3FE000000000
3FE000000000
7FC000000000
7FC000000000
7F8000000000
7F8000000000
FF8000000000
FF8000000000
FF8000000000
FF8000000000
FF8000000000
FF8000000000
FF8000000000
7F8000000000
7F8000000000
7FC000000000
7FC000000000
3FE000000000
3FE000000000
3FF000000000
1FF800000000
1FF800000C00
0FFE00001E00
07FF00003F00
07FFC000FF80
03FFF003FFC0
01FFFFFFFFE0
00FFFFFFFFC0
007FFFFFFF80
001FFFFFFE00
000FFFFFFC00
0003FFFFF000
0000FFFFC000
00000FFC0000
ENDCHAR
STARTCHAR 010A
ENCODING 266
SWIDTH 675 0
DWIDTH 45 0
BBX 43 63 2 -1
BITMAP
000000C00000
000003F80000
000007FC0000
00000FFC0000
00000FFE0000
00000FFE0000
00000FFE0000
00000FFC0000
000007FC0000
000003F80000
000001E00000
000000000000
000000000000
000000000000
000001F00000
00007FFF8000
0001FFFFF000
000FFFFFF800
001FFFFFFE00
007FFFFFFF00
00FFFFFFFF80
01FFFFFFFFC0
03FFF807FFE0
07FFC000FFC0
07FF00007F00
0FFE00001E00
1FFC00000C00
1FF800000000
3FF000000000
3FE000000000
3FE000000000
7FC000000000
7FC000000000
7F8000000000
7F8000000000
FF8000000000
FF8000000000
FF8000000000
FF8000000000
FF8000000000
FF8000000000
FF8000000000
7F8000000000
7F8000000000
7FC000000000
7FC000000000
3FE000000000
3FE000000000
3FF000000000
1FF800000000
1FF800000C00
0FFE00001E00
07FF00003F00
07FFC000FF80
03FFF003FFC0
01FFFFFFFFE0
00FFFFFFFFC0
007FFFFFFF80
001FFFFFFE00
000FFFFFFC00
0003FFFFF000
0000FFFFC000
00000FFC0000
ENDCHAR
STARTCHAR 010B
ENCODING 267
SWIDTH 675 0
DWIDTH 45 0
BBX 43 63 2 -1
BITMAP
000000C00000
000003F80000
000007FC0000
00000FFC0000
00000FFE0000
00000FFE0000
00000FFE0000
00000FFC0000
000007FC0000
000003F80000
000001E00000
000000000000
000000000000
000000000000
000001F00000
00007FFF8000
0001FFFFF000
000FFFFFF800
001FFFFFFE00
007FFFFFFF00
00FFFFFFFF80
01FFFFFFFFC0
03FFF807FFE0
07FFC000FFC0
07FF00007F00
0FFE00001E00
1FFC00000C00
1FF800000000
3FF000000000
3FE000000000
3FE000000000
7FC000000000
7FC000000000
7F8000000000
7F8000000000
FF8000000000
FF8000000000
FF8000000000
FF8000000000
FF8000000000
FF8000000000
FF8000000000
7F8000000000
7F8000000000
7FC000000000
7FC000000000
3FE000000000
3FE000000000
3FF000000000
1FF800000000
1FF800000C00
0FFE00001E00
07FF00003F00
07FFC000FF80
03FFF003FFC0
01FFFFFFFFE0
00FFFFFFFFC0
007FFFFFFF80
001FFFFFFE00
000FFFFFFC00
0003FFFFF000
0000FFFFC000
00000FFC0000
ENDCHAR
STARTCHAR 010C
ENCODING 268
SWIDTH 675 0
DWIDTH 45 0
BBX 43 61 2 -1
BITMAP
0001F80FE000
0001FC0FC000
0000FE1FC000
00007F3F8000
00003FFF0000
00003FFE0000
00001FFE0000
00000FFC0000
000000000000
000000000000
000000000000
000000000000
000001F00000
00007FFF8000
0001FFFFF000
000FFFFFF800
001FFFFFFE00
007FFFFFFF00
00FFFFFFFF80
01FFFFFFFFC0
03FFF807FFE0
07FFC000FFC0
07FF00007F00
0FFE00001E00
1FFC00000C00
1FF800000000
3FF000000000
3FE000000000
3FE000000000
7FC000000000
7FC000000000
7F8000000000
7F8000000000
FF8000000000
FF8000000000
FF8000000000
FF8000000000
FF8000000000
FF8000000000
FF8000000000
7F8000000000
7F8000000000
7FC000000000
7FC000000000
3FE000000000
3FE000000000
3FF000000000
1FF800000000
1FF800000C00
0FFE00001E00
07FF00003F00
07FFC000FF80
03FFF003FFC0
01FFFFFFFFE0
00FFFFFFFFC0
007FFFFFFF80
001FFFFFFE00
000FFFFFFC00
0003FFFFF000
0000FFFFC000
00000FFC0000
ENDCHAR
STARTCHAR 010D
ENCODING 269
SWIDTH 675 0
DWIDTH 45 0
BBX 43 61 2 -1
BITMAP
0001F80FE000
0001FC0FC000
0000FE1FC000
00007F3F8000
00003FFF0000
00003FFE0000
00001FFE0000
00000FFC0000
000000000000
000000000000
000000000000
000000000000
000001F00000
00007FFF8000
0001FFFFF000
000FFFFFF800
001FFFFFFE00
007FFFFFFF00
00FFFFFFFF80
01FFFFFFFFC0
03FFF807FFE0
07FFC000FFC0
07FF00007F00
0FFE00001E00
1FFC00000C00
1FF800000000
3FF000000000
3FE000000000
3FE000000000
7FC000000000
7FC000000000
7F8000000000
7F8000000000
FF8000000000
FF8000000000
FF8000000000
FF8000000000
FF8000000000
FF8000000000
FF8000000000
7F8000000000
7F8000000000
7FC000000000
7FC000000000
3FE000000000
3FE000000000
3FF000000000
1FF800000000
1FF800000C00
0FFE00001E00
07FF00003F00
07FFC000FF80
03FFF003FFC0
01FFFFFFFFE0
00FFFFFFFFC0
007FFFFFFF80
001FFFFFFE00
000FFFFFFC00
0003FFFFF000
0000FFFFC000
00000FFC0000
ENDCHAR
STARTCHAR 010E
ENCODING 270
SWIDTH 660 0
DWIDTH 44 0
BBX 39 60 4 0
BITMAP
07E03F8000
07F03F0000
03F87F0000
01FCFE0000
00FFFC0000
00FFF80000
007FF80000
003FF00000
0000000000
0000000000
0000000000
0000000000
0000000000
FFFF000000
FFFFFC0000
FFFFFF8000
FFFFFFE000
FFFFFFF800
FFFFFFFC00
FFFFFFFF00
FFFFFFFF80
FF003FFF80
FF0007FFC0
FF0001FFE0
FF00007FF0
FF00003FF0
FF00001FF8
FF00000FF8
FF00000FF8
FF000007FC
FF000007FC
FF000007FC
FF000003FC
FF000003FC
FF000003FC
FF000003FE
FF000003FE
FF000003FE
FF000003FC
FF000003FC
FF000003FC
FF000003FC
FF000007FC
FF000007FC
FF00000FF8
FF00000FF8
FF00001FF8
FF00003FF0
FF00007FF0
FF0000FFE0
FF0003FFE0
FF001FFFC0
FFFFFFFF80
FFFFFFFF00
FFFFFFFE00
FFFFFFFC00
FFFFFFF000
FFFFFFC000
FFFFFF0000
FFFFF00000
ENDCHAR
STARTCHAR 010F
ENCODING 271
SWIDTH 660 0
DWIDTH 44 0
BBX 39 60 4 0
BITMAP
07E03F8000
07F03F0000
03F87F0000
01FCFE0000
00FFFC0000
00FFF80000
007FF80000
003FF00000
0000000000
0000000000
0000000000
0000000000
0000000000
FFFF000000
FFFFFC0000
FFFFFF8000
FFFFFFE000
FFFFFFF800
FFFFFFFC00
FFFFFFFF00
FFFFFFFF80
FF003FFF80
FF0007FFC0
FF0001FFE0
FF00007FF0
FF00003FF0
FF00001FF8
FF00000FF8
FF00000FF8
FF000007FC
FF000007FC
FF000007FC
FF000003FC
FF000003FC
FF000003FC
FF000003FE
FF000003FE
FF000003FE
FF000003FC
FF000003FC
FF000003FC
FF000003FC
FF000007FC
FF000007FC
FF00000FF8
FF00000FF8
FF00001FF8
FF00003FF0
FF00007FF0
FF0000FFE0
FF0003FFE0
FF001FFFC0
FFFFFFFF80
FFFFFFFF00
FFFFFFFE00
FFFFFFFC00
FFFFFFF000
FFFFFFC000
FFFFFF0000
FFFFF00000
ENDCHAR
STARTCHAR 0110
ENCODING 272
SWIDTH 690 0
DWIDTH 46 0
BBX 43 47 2 0
BITMAP
0FFFF0000000
0FFFFFC00000
0FFFFFF80000
0FFFFFFE0000
0FFFFFFF8000
0FFFFFFFC000
0FFFFFFFF000
0FFFFFFFF800
0FF003FFF800
0FF0007FFC00
0FF0001FFE00
0FF00007FF00
0FF00003FF00
0FF00001FF80
0FF00000FF80
0FF00000FF80
0FF000007FC0
0FF000007FC0
0FF000007FC0
FFFFFE003FC0
FFFFFE003FC0
FFFFFE003FC0
FFFFFE003FE0
FFFFFE003FE0
FFFFFE003FE0
FFFFFE003FC0
FFFFFE003FC0
0FF000003FC0
0FF000003FC0
0FF000007FC0
0FF000007FC0
0FF00000FF80
0FF00000FF80
0FF00001FF80
0FF00003FF00
0FF00007FF00
0FF0000FFE00
0FF0003FFE00
0FF001FFFC00
0FFFFFFFF800
0FFFFFFFF000
0FFFFFFFE000
0FFFFFFFC000
0FFFFFFF0000
0FFFFFFC0000
0FFFFFF00000
0FFFFF000000
ENDCHAR
STARTCHAR 0111
ENCODING 273
SWIDTH 690 0
DWIDTH 46 0
BBX 43 47 2 0
BITMAP
0FFFF0000000
0FFFFFC00000
0FFFFFF80000
0FFFFFFE0000
0FFFFFFF8000
0FFFFFFFC000
0FFFFFFFF000
0FFFFFFFF800
0FF003FFF800
0FF0007FFC00
0FF0001FFE00
0FF00007FF00
0FF00003FF00
0FF00001FF80
0FF00000FF80
0FF00000FF80
0FF000007FC0
0FF000007FC0
0FF000007FC0
FFFFFE003FC0
FFFFFE003FC0
FFFFFE003FC0
FFFFFE003FE0
FFFFFE003FE0
FFFFFE003FE0
FFFFFE003FC0
FFFFFE003FC0
0FF000003FC0
0FF000003FC0
0FF000007FC0
0FF000007FC0
0FF00000FF80
0FF00000FF80
0FF00001FF80
0FF00003FF00
0FF00007FF00
0FF0000FFE00
0FF0003FFE00
0FF001FFFC00
0FFFFFFFF800
0FFFFFFFF000
0FFFFFFFE000
0FFFFFFFC000
0FFFFFFF0000
0FFFFFFC0000
0FFFFFF00000
0FFFFF000000
ENDCHAR
STARTCHAR 0112
ENCODING 274
SWIDTH 510 0
DWIDTH 34 0
BBX 32 58 2 0
BITMAP
0FFFFE00
0FFFFE00
0FFFFE00
0FFFFE00
0FFFFE00
0FFFFE00
00000000
00000000
00000000
00000000
00000000
0FFFFF00
0FFFFF00
0FFFFF00
0FFFFF00
0FFFFF00
0FFFFF00
0FFFFF00
0FFFFF00
0FF00000
0FF00000
0FF00000
0FF00000
0FF00000
0FF00000
0FF00000
0FF00000
0FF00000
0FF00000
0FF00000
0FF00000
FFFFFFC0
FFFFFFC0
FFFFFFC0
FFFFFFC0
FFFFFFC0
FFFFFFC0
FFFFFFC0
0FF00000
0FF00000
0FF00000
0FF00000
0FF00000
0FF00000
0FF00000
0FF00000
0FF00000
0FF00000
0FF00000
0FF00000
0FFFFFFF
0FFFFFFF
0FFFFFFF
0FFFFFFF
0FFFFFFF
0FFFFFFF
0FFFFFFF
0FFFFFFF
ENDCHAR
STARTCHAR 0113
ENCODING 275
SWIDTH 510 0
DWIDTH 34 0
BBX 32 58 2 0
BITMAP
0FFFFE00
0FFFFE00
0FFFFE00
0FFFFE00
0FFFFE00
0FFFFE00
00000000
00000000
00000000
00000000
00000000
0FFFFF00
0FFFFF00
0FFFFF00
0FFFFF00
0FFFFF00
0FFFFF00
0FFFFF00
0FFFFF00
0FF00000
0FF00000
0FF00000
0FF00000
0FF00000
0FF00000
0FF00000
0FF00000
0FF00000
0FF00000
0FF00000
0FF00000
FFFFFFC0
FFFFFFC0
FFFFFFC0
FFFFFFC0
FFFFFFC0
FFFFFFC0
FFFFFFC0
0FF00000
0FF00000
0FF00000
0FF00000
0FF00000
0FF00000
0FF00000
0FF00000
0FF00000
0FF00000
0FF00000
0FF00000
0FFFFFFF
0FFFFFFF
0FFFFFFF
0FFFFFFF
0FFFFFFF
0FFFFFFF
0FFFFFFF
0FFFFFFF
ENDCHAR
STARTCHAR 0116
ENCODING 278
SWIDTH 510 0
DWIDTH 34 0
BBX 32 62 2 0
BITMAP
00060000
001FC000
003FE000
007FE000
007FE000
007FF000
007FE000
007FE000
003FE000
003FC000
000F0000
00000000
00000000
00000000
00000000
0FFFFF00
0FFFFF00
0FFFFF00
0FFFFF00
0FFFFF00
0FFFFF00
0FFFFF00
0FFFFF00
0FF00000
0FF00000
0FF00000
0FF00000
0FF00000
0FF00000
0FF00000
0FF00000
0FF00000
0FF00000
0FF00000
0FF00000
FFFFFFC0
FFFFFFC0
FFFFFFC0
FFFFFFC0
FFFFFFC0
FFFFFFC0
FFFFFFC0
0FF00000
0FF00000
0FF00000
0FF00000
0FF00000
0FF00000
0FF00000
0FF00000
0FF00000
0FF00000
0FF00000
0FF00000
0FFFFFFF
0FFFFFFF
0FFFFFFF
0FFFFFFF
0FFFFFFF
0FFFFFFF
0FFFFFFF
0FFFFFFF
ENDCHAR
STARTCHAR 0117
ENCODING 279
SWIDTH 510 0
DWIDTH 34 0
BBX 32 62 2 0
BITMAP
00060000
001FC000
003FE000
007FE000
007FE000
007FF000
007FE000
007FE000
003FE000
003FC000
000F0000
00000000
00000000
00000000
00000000
0FFFFF00
0FFFFF00
0FFFFF00
0FFFFF00
0FFFFF00
0FFFFF00
0FFFFF00
0FFFFF00
0FF00000
0FF00000
0FF00000
0FF00000
0FF00000
0FF00000
0FF00000
0FF00000
0FF00000
0FF00000
0FF00000
0FF00000
FFFFFFC0
FFFFFFC0
FFFFFFC0
FFFFFFC0
FFFFFFC0
FFFFFFC0
FFFFFFC0
0FF00000
0FF00000
0FF00000
0FF00000
0FF00000
0FF00000
0FF00000
0FF00000
0FF00000
0FF00000
0FF00000
0FF00000
0FFFFFFF
0FFFFFFF
0FFFFFFF
0FFFFFFF
0FFFFFFF
0FFFFFFF
0FFFFFFF
0FFFFFFF
ENDCHAR
STARTCHAR 0118
ENCODING 280
SWIDTH 510 0
DWIDTH 34 0
BBX 35 60 2 -13
BITMAP
0FFFFF0000
0FFFFF0000
0FFFFF0000
0FFFFF0000
0FFFFF0000
0FFFFF0000
0FFFFF0000
0FFFFF0000
0FF0000000
0FF0000000
0FF0000000
0FF0000000
0FF0000000
0FF0000000
0FF0000000
0FF0000000
0FF0000000
0FF0000000
0FF0000000
0FF0000000
FFFFFFC000
FFFFFFC000
FFFFFFC000
FFFFFFC000
FFFFFFC000
FFFFFFC000
FFFFFFC000
0FF0000000
0FF0000000
0FF0000000
0FF0000000
0FF0000000
0FF0000000
0FF0000000
0FF0000000
0FF0000000
0FF0000000
0FF0000000
0FF0000000
0FFFFFFF00
0FFFFFFF00
0FFFFFFF00
0FFFFFFF00
0FFFFFFF00
0FFFFFFF00
0FFFFFFF00
0FFFFFFF00
000000FC00
000003F000
000007C000
000007C000
00000F8000
00000F8000
00000F8000
00000F8180
00000FC7C0
000007FFE0
000007FFC0
000003FF80
000000FE00
ENDCHAR
STARTCHAR 0119
ENCODING 281
SWIDTH 510 0
DWIDTH 34 0
BBX 35 60 2 -13
BITMAP
0FFFFF0000
0FFFFF0000
0FFFFF0000
0FFFFF0000
0FFFFF0000
0FFFFF0000
0FFFFF0000
0FFFFF0000
0FF0000000
0FF0000000
0FF0000000
0FF0000000
0FF0000000
0FF0000000
0FF0000000
0FF0000000
0FF0000000
0FF0000000
0FF0000000
0FF0000000
FFFFFFC000
FFFFFFC000
FFFFFFC000
FFFFFFC000
FFFFFFC000
FFFFFFC000
FFFFFFC000
0FF0000000
0FF0000000
0FF0000000
0FF0000000
0FF0000000
0FF0000000
0FF0000000
0FF0000000
0FF0000000
0FF0000000
0FF0000000
0FF0000000
0FFFFFFF00
0FFFFFFF00
0FFFFFFF00
0FFFFFFF00
0FFFFFFF00
0FFFFFFF00
0FFFFFFF00
0FFFFFFF00
000000FC00
000003F000
000007C000
000007C000
00000F8000
00000F8000
00000F8000
00000F8180
00000FC7C0
000007FFE0
000007FFC0
000003FF80
000000FE00
ENDCHAR
STARTCHAR 011A
ENCODING 282
SWIDTH 510 0
DWIDTH 34 0
BBX 32 60 2 0
BITMAP
1FC07F00
0FE07E00
07F0FC00
03F9FC00
01FBF800
01FFF000
00FFF000
007FE000
00000000
00000000
00000000
00000000
00000000
0FFFFF00
0FFFFF00
0FFFFF00
0FFFFF00
0FFFFF00
0FFFFF00
0FFFFF00
0FFFFF00
0FF00000
0FF00000
0FF00000
0FF00000
0FF00000
0FF00000
0FF00000
0FF00000
0FF00000
0FF00000
0FF00000
0FF00000
FFFFFFC0
FFFFFFC0
FFFFFFC0
FFFFFFC0
FFFFFFC0
FFFFFFC0
FFFFFFC0
0FF00000
0FF00000
0FF00000
0FF00000
0FF00000
0FF00000
0FF00000
0FF00000
0FF00000
0FF00000
0FF00000
0FF00000
0FFFFFFF
0FFFFFFF
0FFFFFFF
0FFFFFFF
0FFFFFFF
0FFFFFFF
0FFFFFFF
0FFFFFFF
ENDCHAR
STARTCHAR 011B
ENCODING 283
SWIDTH 510 0
DWIDTH 34 0
BBX 32 60 2 0
BITMAP
1FC07F00
0FE07E00
07F0FC00
03F9FC00
01FBF800
01FFF000
00FFF000
007FE000
00000000
00000000
00000000
00000000
00000000
0FFFFF00
0FFFFF00
0FFFFF00
0FFFFF00
0FFFFF00
0FFFFF00
0FFFFF00
0FFFFF00
0FF00000
0FF00000
0FF00000
0FF00000
0FF00000
0FF00000
0FF00000
0FF00000
0FF00000
0FF00000
0FF00000
0FF00000
FFFFFFC0
FFFFFFC0
FFFFFFC0
FFFFFFC0
FFFFFFC0
FFFFFFC0
FFFFFFC0
0FF00000
0FF00000
0FF00000
0FF00000
0FF00000
0FF00000
0FF00000
0FF00000
0FF00000
0FF00000
0FF00000
0FF00000
0FFFFFFF
0FFFFFFF
0FFFFFFF
0FFFFFFF
0FFFFFFF
0FFFFFFF
0FFFFFFF
0FFFFFFF
ENDCHAR
STARTCHAR 011E
ENCODING 286
SWIDTH 825 0
DWIDTH 55 0
BBX 53 60 2 -1
BITMAP
0001F807C00000
0000F807C00000
0000FC0FC00000
0000FE3F800000
00007FFF800000
00003FFF000000
00001FFE000000
000007F8000000
00000000000000
00000000000000
00000000000000
000000F0000000
00007FFF800000
0001FFFFF00000
0007FFFFFC0000
001FFFFFFE0000
003FFFFFFF0000
00FFFFFFFFC000
01FFFFFFFFC000
03FFF807FFE000
07FFC000FFC000
07FF00003F8000
0FFE00001F0000
1FFC00000E0000
1FF80000040000
3FF00000000000
3FE00000000000
3FE00000000000
7FC00000000000
7FC00000000000
7F800000000000
7F800000000000
FF8000FFFFFFF8
FF8000FFFFFFF8
FF8000FFFFFFF8
FF8000FFFFFFF8
FF8000FFFFFFF8
FF8000FFFFFFF8
FF8000FFFFFFF8
7F80000000FF80
7F80000000FF80
7FC0000000FF80
7FC0000001FF00
3FC0000001FF00
3FE0000003FF00
3FF0000003FE00
1FF8000007FE00
1FF800000FFC00
0FFE00001FFC00
07FF00003FF800
07FFC000FFF800
03FFF003FFF000
01FFFFFFFFE000
00FFFFFFFFC000
007FFFFFFF8000
001FFFFFFF0000
000FFFFFFC0000
0003FFFFF00000
00007FFFC00000
00000FFC000000
ENDCHAR
STARTCHAR 011F
ENCODING 287
SWIDTH 825 0
DWIDTH 55 0
BBX 53 60 2 -1
BITMAP
0001F807C00000
0000F807C00000
0000FC0FC00000
0000FE3F800000
00007FFF800000
00003FFF000000
00001FFE000000
000007F8000000
00000000000000
00000000000000
00000000000000
000000F0000000
00007FFF800000
0001FFFFF00000
0007FFFFFC0000
001FFFFFFE0000
003FFFFFFF0000
00FFFFFFFFC000
01FFFFFFFFC000
03FFF807FFE000
07FFC000FFC000
07FF00003F8000
0FFE00001F0000
1FFC00000E0000
1FF80000040000
3FF00000000000
3FE00000000000
3FE00000000000
7FC00000000000
7FC00000000000
7F800000000000
7F800000000000
FF8000FFFFFFF8
FF8000FFFFFFF8
FF8000FFFFFFF8
FF8000FFFFFFF8
FF8000FFFFFFF8
FF8000FFFFFFF8
FF8000FFFFFFF8
7F80000000FF80
7F80000000FF80
7FC0000000FF80
7FC0000001FF00
3FC0000001FF00
3FE0000003FF00
3FF0000003FE00
1FF8000007FE00
1FF800000FFC00
0FFE00001FFC00
07FF00003FF800
07FFC000FFF800
03FFF003FFF000
01FFFFFFFFE000
00FFFFFFFFC000
007FFFFFFF8000
001FFFFFFF0000
000FFFFFFC0000
0003FFFFF00000
00007FFFC00000
00000FFC000000
ENDCHAR
STARTCHAR 0120
ENCODING 288
SWIDTH 825 0
DWIDTH 55 0
BBX 53 63 2 -1
BITMAP
000000C0000000
000003F8000000
000007FC000000
00000FFC000000
00000FFC000000
00000FFE000000
00000FFE000000
00000FFC000000
000007FC000000
000003F8000000
000001E0000000
00000000000000
00000000000000
00000000000000
000000F0000000
00007FFF800000
0001FFFFF00000
0007FFFFFC0000
001FFFFFFE0000
003FFFFFFF0000
00FFFFFFFFC000
01FFFFFFFFC000
03FFF807FFE000
07FFC000FFC000
07FF00003F8000
0FFE00001F0000
1FFC00000E0000
1FF80000040000
3FF00000000000
3FE00000000000
3FE00000000000
7FC00000000000
7FC00000000000
7F800000000000
7F800000000000
FF8000FFFFFFF8
FF8000FFFFFFF8
FF8000FFFFFFF8
FF8000FFFFFFF8
FF8000FFFFFFF8
FF8000FFFFFFF8
FF8000FFFFFFF8
7F80000000FF80
7F80000000FF80
7FC0000000FF80
7FC0000001FF00
3FC0000001FF00
3FE0000003FF00
3FF0000003FE00
1FF8000007FE00
1FF800000FFC00
0FFE00001FFC00
07FF00003FF800
07FFC000FFF800
03FFF003FFF000
01FFFFFFFFE000
00FFFFFFFFC000
007FFFFFFF8000
001FFFFFFF0000
000FFFFFFC0000
0003FFFFF00000
00007FFFC00000
00000FFC000000
ENDCHAR
STARTCHAR 0121
ENCODING 289
SWIDTH 825 0
DWIDTH 55 0
BBX 53 63 2 -1
BITMAP
000000C0000000
000003F8000000
000007FC000000
00000FFC000000
00000FFC000000
00000FFE000000
00000FFE000000
00000FFC000000
000007FC000000
000003F8000000
000001E0000000
00000000000000
00000000000000
00000000000000
000000F0000000
00007FFF800000
0001FFFFF00000
0007FFFFFC0000
001FFFFFFE0000
003FFFFFFF0000
00FFFFFFFFC000
01FFFFFFFFC000
03FFF807FFE000
07FFC000FFC000
07FF00003F8000
0FFE00001F0000
1FFC00000E0000
1FF80000040000
3FF00000000000
3FE00000000000
3FE00000000000
7FC00000000000
7FC00000000000
7F800000000000
7F800000000000
FF8000FFFFFFF8
FF8000FFFFFFF8
FF8000FFFFFFF8
FF8000FFFFFFF8
FF8000FFFFFFF8
FF8000FFFFFFF8
FF8000FFFFFFF8
7F80000000FF80
7F80000000FF80
7FC0000000FF80
7FC0000001FF00
3FC0000001FF00
3FE0000003FF00
3FF0000003FE00
1FF8000007FE00
1FF800000FFC00
0FFE00001FFC00
07FF00003FF800
07FFC000FFF800
03FFF003FFF000
01FFFFFFFFE000
00FFFFFFFFC000
007FFFFFFF8000
001FFFFFFF0000
000FFFFFFC0000
0003FFFFF00000
00007FFFC00000
00000FFC000000
ENDCHAR
STARTCHAR 0124
ENCODING 292
SWIDTH 570 0
DWIDTH 38 0
BBX 33 59 2 0
BITMAP
0007FE0000
0007FF0000
000FFF8000
001FDFC000
001F9FC000
003F8FE000
007F07F000
00FE03F800
0000000000
0000000000
0000000000
0000000000
0FF0007F80
0FF0007F80
0FF0007F80
0FF0007F80
0FF0007F80
0FF0007F80
0FF0007F80
0FF0007F80
0FF0007F80
0FF0007F80
0FF0007F80
0FF0007F80
0FF0007F80
0FF0007F80
0FF0007F80
0FF0007F80
0FF0007F80
0FF0007F80
0FF0007F80
0FF0007F80
FFFFFFFF80
FFFFFFFF80
FFFFFFFF80
FFFFFFFF80
FFFFFFFF80
FFFFFFFF80
FFFFFFFF80
FFFFFFFF80
0FF0007F80
0FF0007F80
0FF0007F80
0FF0007F80
0FF0007F80
0FF0007F80
0FF0007F80
0FF0007F80
0FF0007F80
0FF0007F80
0FF0007F80
0FF0007F80
0FF0007F80
0FF0007F80
0FF0007F80
0FF0007F80
0FF0007F80
0FF0007F80
0FF0007F80
ENDCHAR
STARTCHAR 0125
ENCODING 293
SWIDTH 570 0
DWIDTH 38 0
BBX 33 59 2 0
BITMAP
0007FE0000
0007FF0000
000FFF8000
001FDFC000
001F9FC000
003F8FE000
007F07F000
00FE03F800
0000000000
0000000000
0000000000
0000000000
0FF0007F80
0FF0007F80
0FF0007F80
0FF0007F80
0FF0007F80
0FF0007F80
0FF0007F80
0FF0007F80
0FF0007F80
0FF0007F80
0FF0007F80
0FF0007F80
0FF0007F80
0FF0007F80
0FF0007F80
0FF0007F80
0FF0007F80
0FF0007F80
0FF0007F80
0FF0007F80
FFFFFFFF80
FFFFFFFF80
FFFFFFFF80
FFFFFFFF80
FFFFFFFF80
FFFFFFFF80
FFFFFFFF80
FFFFFFFF80
0FF0007F80
0FF0007F80
0FF0007F80
0FF0007F80
0FF0007F80
0FF0007F80
0FF0007F80
0FF0007F80
0FF0007F80
0FF0007F80
0FF0007F80
0FF0007F80
0FF0007F80
0FF0007F80
0FF0007F80
0FF0007F80
0FF0007F80
0FF0007F80
0FF0007F80
ENDCHAR
STARTCHAR 0128
ENCODING 296
SWIDTH 225 0
DWIDTH 15 0
BBX 16 41 -1 0
BITMAP
FF01
FFFF
FFFF
FFFF
FFFF
00FE
0000
0000
0000
0000
0000
0000
07F8
07F8
07F8
07F8
07F8
07F8
07F8
07F8
07F8
07F8
07F8
07F8
07F8
07F8
07F8
07F8
07F8
07F8
07F8
07F8
07F8
07F8
07F8
07F8
07F8
07F8
07F8
07F8
07F8
ENDCHAR
STARTCHAR 0129
ENCODING 297
SWIDTH 225 0
DWIDTH 15 0
BBX 16 41 -1 0
BITMAP
FF01
FFFF
FFFF
FFFF
FFFF
00FE
0000
0000
0000
0000
0000
0000
07F8
07F8
07F8
07F8
07F8
07F8
07F8
07F8
07F8
07F8
07F8
07F8
07F8
07F8
07F8
07F8
07F8
07F8
07F8
07F8
07F8
07F8
07F8
07F8
07F8
07F8
07F8
07F8
07F8
ENDCHAR
STARTCHAR 012A
ENCODING 298
SWIDTH 225 0
DWIDTH 15 0
BBX 19 40 -2 0
BITMAP
FFFFE0
FFFFE0
FFFFE0
FFFFE0
FFFFE0
FFFFE0
000000
000000
000000
000000
000000
03FC00
03FC00
03FC00
03FC00
03FC00
03FC00
03FC00
03FC00
03FC00
03FC00
03FC00
03FC00
03FC00
03FC00
03FC00
03FC00
03FC00
03FC00
03FC00
03FC00
03FC00
03FC00
03FC00
03FC00
03FC00
03FC00
03FC00
03FC00
03FC00
ENDCHAR
STARTCHAR 012B
ENCODING 299
SWIDTH 225 0
DWIDTH 15 0
BBX 19 40 -2 0
BITMAP
FFFFE0
FFFFE0
FFFFE0
FFFFE0
FFFFE0
FFFFE0
000000
000000
000000
000000
000000
03FC00
03FC00
03FC00
03FC00
03FC00
03FC00
03FC00
03FC00
03FC00
03FC00
03FC00
03FC00
03FC00
03FC00
03FC00
03FC00
03FC00
03FC00
03FC00
03FC00
03FC00
03FC00
03FC00
03FC00
03FC00
03FC00
03FC00
03FC00
03FC00
ENDCHAR
STARTCHAR 012E
ENCODING 302
SWIDTH 225 0
DWIDTH 15 0
BBX 19 67 -2 -13
BITMAP
004000
004000
004000
00E000
00E000
00E000
01F000
FFFFE0
7FFFC0
3FFF80
1FFE00
07FC00
07FC00
07FC00
07FC00
0FBE00
0E0E00
0C0600
000000
000000
000000
000000
000000
000000
000000
07FC00
07FC00
07FC00
07FC00
07FC00
07FC00
07FC00
07FC00
07FC00
07FC00
07FC00
07FC00
07FC00
07FC00
07FC00
07FC00
07FC00
07FC00
07FC00
07FC00
07FC00
07FC00
07FC00
07FC00
07FC00
07FC00
07FC00
07FC00
07FC00
03E000
0FC000
1F0000
1E0000
3E0000
3E0000
3E0000
3E0600
3F1F00
1FFF80
1FFF00
0FFE00
03F800
ENDCHAR
STARTCHAR 012F
ENCODING 303
SWIDTH 225 0
DWIDTH 15 0
BBX 19 67 -2 -13
BITMAP
004000
004000
004000
00E000
00E000
00E000
01F000
FFFFE0
7FFFC0
3FFF80
1FFE00
07FC00
07FC00
07FC00
07FC00
0FBE00
0E0E00
0C0600
000000
000000
000000
000000
000000
000000
000000
07FC00
07FC00
07FC00
07FC00
07FC00
07FC00
07FC00
07FC00
07FC00
07FC00
07FC00
07FC00
07FC00
07FC00
07FC00
07FC00
07FC00
07FC00
07FC00
07FC00
07FC00
07FC00
07FC00
07FC00
07FC00
07FC00
07FC00
07FC00
07FC00
03E000
0FC000
1F0000
1E0000
3E0000
3E0000
3E0000
3E0600
3F1F00
1FFF80
1FFF00
0FFE00
03F800
ENDCHAR
STARTCHAR 0130
ENCODING 304
SWIDTH 225 0
DWIDTH 15 0
BBX 11 44 3 0
BITMAP
0C00
3F80
7FC0
FFC0
FFC0
FFE0
FFC0
FFC0
7FC0
7F80
1E00
0000
0000
0000
0000
7F80
7F80
7F80
7F80
7F80
7F80
7F80
7F80
7F80
7F80
7F80
7F80
7F80
7F80
7F80
7F80
7F80
7F80
7F80
7F80
7F80
7F80
7F80
7F80
7F80
7F80
7F80
7F80
7F80
ENDCHAR
STARTCHAR 0139
ENCODING 313
SWIDTH 450 0
DWIDTH 30 0
BBX 25 59 4 0
BITMAP
07E00000
0FC00000
0F800000
1F800000
1F000000
3E000000
3E000000
7C000000
00000000
00000000
00000000
00000000
FF000000
FF000000
FF000000
FF000000
FF000000
FF000000
FF000000
FF000000
FF000000
FF000000
FF000000
FF000000
FF000000
FF000000
FF000000
FF000000
FF000000
FF000000
FF000000
FF000000
FF000000
FF000000
FF000000
FF000000
FF000000
FF000000
FF000000
FF000000
FF000000
FF000000
FF000000
FF000000
FF000000
FF000000
FF000000
FF000000
FF000000
FF000000
FF000000
FFFFFF80
FFFFFF80
FFFFFF80
FFFFFF80
FFFFFF80
FFFFFF80
FFFFFF80
FFFFFF80
ENDCHAR
STARTCHAR 013A
ENCODING 314
SWIDTH 450 0
DWIDTH 30 0
BBX 25 59 4 0
BITMAP
07E00000
0FC00000
0F800000
1F800000
1F000000
3E000000
3E000000
7C000000
00000000
00000000
00000000
00000000
FF000000
FF000000
FF000000
FF000000
FF000000
FF000000
FF000000
FF000000
FF000000
FF000000
FF000000
FF000000
FF000000
FF000000
FF000000
FF000000
FF000000
FF000000
FF000000
FF000000
FF000000
FF000000
FF000000
FF000000
FF000000
FF000000
FF000000
FF000000
FF000000
FF000000
FF000000
FF000000
FF000000
FF000000
FF000000
FF000000
FF000000
FF000000
FF000000
FFFFFF80
FFFFFF80
FFFFFF80
FFFFFF80
FFFFFF80
FFFFFF80
FFFFFF80
FFFFFF80
ENDCHAR
STARTCHAR 013D
ENCODING 317
SWIDTH 450 0
DWIDTH 30 0
BBX 31 60 -2 0
BITMAP
FC07F000
FE07E000
7F0FE000
3F9FC000
1FFF8000
1FFF0000
0FFF0000
07FE0000
00000000
00000000
00000000
00000000
00000000
03FC0000
03FC0000
03FC0000
03FC0000
03FC0000
03FC0000
03FC0000
03FC0000
03FC0000
03FC0000
03FC0000
03FC0000
03FC0000
03FC0000
03FC0000
03FC0000
03FC0000
03FC0000
03FC0000
03FC0000
03FC0000
03FC0000
03FC0000
03FC0000
03FC0000
03FC0000
03FC0000
03FC0000
03FC0000
03FC0000
03FC0000
03FC0000
03FC0000
03FC0000
03FC0000
03FC0000
03FC0000
03FC0000
03FC0000
03FFFFFE
03FFFFFE
03FFFFFE
03FFFFFE
03FFFFFE
03FFFFFE
03FFFFFE
03FFFFFE
ENDCHAR
STARTCHAR 013E
ENCODING 318
SWIDTH 450 0
DWIDTH 30 0
BBX 31 60 -2 0
BITMAP
FC07F000
FE07E000
7F0FE000
3F9FC000
1FFF8000
1FFF0000
0FFF0000
07FE0000
00000000
00000000
00000000
00000000
00000000
03FC0000
03FC0000
03FC0000
03FC0000
03FC0000
03FC0000
03FC0000
03FC0000
03FC0000
03FC0000
03FC0000
03FC0000
03FC0000
03FC0000
03FC0000
03FC0000
03FC0000
03FC0000
03FC0000
03FC0000
03FC0000
03FC0000
03FC0000
03FC0000
03FC0000
03FC0000
03FC0000
03FC0000
03FC0000
03FC0000
03FC0000
03FC0000
03FC0000
03FC0000
03FC0000
03FC0000
03FC0000
03FC0000
03FC0000
03FFFFFE
03FFFFFE
03FFFFFE
03FFFFFE
03FFFFFE
03FFFFFE
03FFFFFE
03FFFFFE
ENDCHAR
STARTCHAR 0141
ENCODING 321
SWIDTH 510 0
DWIDTH 34 0
BBX 31 47 1 0
BITMAP
03FE0000
03FE0000
03FE0000
03FE0000
03FE0000
03FE0000
03FE0000
03FE0000
03FE0000
03FE0000
03FE0000
03FE0000
03FE0000
03FE0000
03FE0000
03FE0C00
03FE3E00
03FEFE00
03FFFF00
03FFFE00
03FFF800
03FFE000
03FF8000
07FE0000
1FFE0000
7FFE0000
FFFE0000
FFFE0000
7FFE0000
73FE0000
03FE0000
03FE0000
03FE0000
03FE0000
03FE0000
03FE0000
03FE0000
03FE0000
03FE0000
03FFFFFE
03FFFFFE
03FFFFFE
03FFFFFE
03FFFFFE
03FFFFFE
03FFFFFE
03FFFFFE
ENDCHAR
STARTCHAR 0142
ENCODING 322
SWIDTH 510 0
DWIDTH 34 0
BBX 31 47 1 0
BITMAP
03FE0000
03FE0000
03FE0000
03FE0000
03FE0000
03FE0000
03FE0000
03FE0000
03FE0000
03FE0000
03FE0000
03FE0000
03FE0000
03FE0000
03FE0000
03FE0C00
03FE3E00
03FEFE00
03FFFF00
03FFFE00
03FFF800
03FFE000
03FF8000
07FE0000
1FFE0000
7FFE0000
FFFE0000
FFFE0000
7FFE0000
73FE0000
03FE0000
03FE0000
03FE0000
03FE0000
03FE0000
03FE0000
03FE0000
03FE0000
03FE0000
03FFFFFE
03FFFFFE
03FFFFFE
03FFFFFE
03FFFFFE
03FFFFFE
03FFFFFE
03FFFFFE
ENDCHAR
STARTCHAR 0143
ENCODING 323
SWIDTH 555 0
DWIDTH 37 0
BBX 33 59 1 0
BITMAP
00003F8000
00003F0000
00007E0000
00007E0000
0000FC0000
0000F80000
0001F00000
0001F00000
0000000000
0000000000
0000000000
0400000000
0E0000FF80
1F0000FF80
3FC000FF80
3FE000FF80
7FF000FF80
FFF800FF80
7FFE00FF80
1FFF00FF80
0FFF80FF80
0FFFE0FF80
0FFFF0FF80
0FFFF8FF80
0FFFFCFF80
0FFFFFFF80
0FFFFFFF80
0FF7FFFF80
0FF3FFFF80
0FF0FFFF80
0FF07FFF80
0FF03FFF80
0FF01FFF80
0FF007FF80
0FF003FF80
0FF001FF80
0FF000FF80
0FF000FF80
0FF000FF80
0FF000FF80
0FF000FF80
0FF000FF80
0FF000FF80
0FF000FF80
0FF000FF80
0FF000FF80
0FF000FF80
0FF000FF80
0FF000FF80
0FF000FF80
0FF000FF80
0FF000FF80
0FF000FF80
0FF000FF80
0FF000FF80
0FF000FF80
0FF000FF80
0FF000FF80
0FF000FF80
ENDCHAR
STARTCHAR 0144
ENCODING 324
SWIDTH 555 0
DWIDTH 37 0
BBX 33 59 1 0
BITMAP
00003F8000
00003F0000
00007E0000
00007E0000
0000FC0000
0000F80000
0001F00000
0001F00000
0000000000
0000000000
0000000000
0400000000
0E0000FF80
1F0000FF80
3FC000FF80
3FE000FF80
7FF000FF80
FFF800FF80
7FFE00FF80
1FFF00FF80
0FFF80FF80
0FFFE0FF80
0FFFF0FF80
0FFFF8FF80
0FFFFCFF80
0FFFFFFF80
0FFFFFFF80
0FF7FFFF80
0FF3FFFF80
0FF0FFFF80
0FF07FFF80
0FF03FFF80
0FF01FFF80
0FF007FF80
0FF003FF80
0FF001FF80
0FF000FF80
0FF000FF80
0FF000FF80
0FF000FF80
0FF000FF80
0FF000FF80
0FF000FF80
0FF000FF80
0FF000FF80
0FF000FF80
0FF000FF80
0FF000FF80
0FF000FF80
0FF000FF80
0FF000FF80
0FF000FF80
0FF000FF80
0FF000FF80
0FF000FF80
0FF000FF80
0FF000FF80
0FF000FF80
0FF000FF80
ENDCHAR
STARTCHAR 0147
ENCODING 327
SWIDTH 555 0
DWIDTH 37 0
BBX 33 60 1 0
BITMAP
01FC07F000
00FE0FE000
007F0FC000
003F9FC000
003FBF8000
001FFF0000
000FFE0000
0007FE0000
0000000000
0000000000
0000000000
0000000000
0400000000
0E0000FF80
1F0000FF80
3FC000FF80
3FE000FF80
7FF000FF80
FFF800FF80
7FFE00FF80
1FFF00FF80
0FFF80FF80
0FFFE0FF80
0FFFF0FF80
0FFFF8FF80
0FFFFCFF80
0FFFFFFF80
0FFFFFFF80
0FF7FFFF80
0FF3FFFF80
0FF0FFFF80
0FF07FFF80
0FF03FFF80
0FF01FFF80
0FF007FF80
0FF003FF80
0FF001FF80
0FF000FF80
0FF000FF80
0FF000FF80
0FF000FF80
0FF000FF80
0FF000FF80
0FF000FF80
0FF000FF80
0FF000FF80
0FF000FF80
0FF000FF80
0FF000FF80
0FF000FF80
0FF000FF80
0FF000FF80
0FF000FF80
0FF000FF80
0FF000FF80
0FF000FF80
0FF000FF80
0FF000FF80
0FF000FF80
0FF000FF80
ENDCHAR
STARTCHAR 0148
ENCODING 328
SWIDTH 555 0
DWIDTH 37 0
BBX 33 60 1 0
BITMAP
01FC07F000
00FE0FE000
007F0FC000
003F9FC000
003FBF8000
001FFF0000
000FFE0000
0007FE0000
0000000000
0000000000
0000000000
0000000000
0400000000
0E0000FF80
1F0000FF80
3FC000FF80
3FE000FF80
7FF000FF80
FFF800FF80
7FFE00FF80
1FFF00FF80
0FFF80FF80
0FFFE0FF80
0FFFF0FF80
0FFFF8FF80
0FFFFCFF80
0FFFFFFF80
0FFFFFFF80
0FF7FFFF80
0FF3FFFF80
0FF0FFFF80
0FF07FFF80
0FF03FFF80
0FF01FFF80
0FF007FF80
0FF003FF80
0FF001FF80
0FF000FF80
0FF000FF80
0FF000FF80
0FF000FF80
0FF000FF80
0FF000FF80
0FF000FF80
0FF000FF80
0FF000FF80
0FF000FF80
0FF000FF80
0FF000FF80
0FF000FF80
0FF000FF80
0FF000FF80
0FF000FF80
0FF000FF80
0FF000FF80
0FF000FF80
0FF000FF80
0FF000FF80
0FF000FF80
0FF000FF80
ENDCHAR
STARTCHAR 014C
ENCODING 332
SWIDTH 810 0
DWIDTH 54 0
BBX 50 59 2 -1
BITMAP
0000FFFFE00000
0000FFFFE00000
0000FFFFE00000
0000FFFFE00000
0000FFFFE00000
0000FFFFE00000
00000000000000
00000000000000
00000000000000
00000000000000
000000F0000000
00007FFF800000
0001FFFFF00000
0007FFFFFC0000
001FFFFFFF0000
003FFFFFFF8000
00FFFFFFFFC000
01FFFFFFFFE000
03FFFC07FFF000
07FFC000FFF800
07FF00003FFC00
0FFE00000FFE00
1FFC000007FE00
1FF8000003FF00
3FF0000001FF00
3FE0000000FF80
3FE0000000FF80
7FC00000007F80
7FC00000007FC0
7F800000007FC0
7F800000003FC0
FF800000003FC0
FF800000003FC0
FF800000003FC0
FF800000003FC0
FF800000003FC0
FF800000003FC0
FF800000003FC0
7F800000003FC0
7F800000007FC0
7FC00000007FC0
7FC00000007FC0
3FE0000000FF80
3FE0000000FF80
3FF0000001FF00
1FF8000003FF00
1FF8000007FE00
0FFE00000FFE00
07FF00001FFC00
07FFC0007FFC00
03FFF003FFF800
01FFFFFFFFF000
00FFFFFFFFE000
007FFFFFFFC000
001FFFFFFF0000
000FFFFFFE0000
0003FFFFF80000
00007FFFC00000
00000FFE000000
ENDCHAR
STARTCHAR 014D
ENCODING 333
SWIDTH 810 0
DWIDTH 54 0
BBX 50 59 2 -1
BITMAP
0000FFFFE00000
0000FFFFE00000
0000FFFFE00000
0000FFFFE00000
0000FFFFE00000
0000FFFFE00000
00000000000000
00000000000000
00000000000000
00000000000000
000000F0000000
00007FFF800000
0001FFFFF00000
0007FFFFFC0000
001FFFFFFF0000
003FFFFFFF8000
00FFFFFFFFC000
01FFFFFFFFE000
03FFFC07FFF000
07FFC000FFF800
07FF00003FFC00
0FFE00000FFE00
1FFC000007FE00
1FF8000003FF00
3FF0000001FF00
3FE0000000FF80
3FE0000000FF80
7FC00000007F80
7FC00000007FC0
7F800000007FC0
7F800000003FC0
FF800000003FC0
FF800000003FC0
FF800000003FC0
FF800000003FC0
FF800000003FC0
FF800000003FC0
FF800000003FC0
7F800000003FC0
7F800000007FC0
7FC00000007FC0
7FC00000007FC0
3FE0000000FF80
3FE0000000FF80
3FF0000001FF00
1FF8000003FF00
1FF8000007FE00
0FFE00000FFE00
07FF00001FFC00
07FFC0007FFC00
03FFF003FFF800
01FFFFFFFFF000
00FFFFFFFFE000
007FFFFFFFC000
001FFFFFFF0000
000FFFFFFE0000
0003FFFFF80000
00007FFFC00000
00000FFE000000
ENDCHAR
STARTCHAR 0150
ENCODING 336
SWIDTH 810 0
DWIDTH 54 0
BBX 50 60 2 -1
BITMAP
000007E0FC0000
00000FC1F80000
00000F81F80000
00001F83F00000
00001F03E00000
00003E07C00000
00003C07C00000
00007C0F800000
00000000000000
00000000000000
00000000000000
000000F0000000
00007FFF800000
0001FFFFF00000
0007FFFFFC0000
001FFFFFFF0000
003FFFFFFF8000
00FFFFFFFFC000
01FFFFFFFFE000
03FFFC07FFF000
07FFC000FFF800
07FF00003FFC00
0FFE00000FFE00
1FFC000007FE00
1FF8000003FF00
3FF0000001FF00
3FE0000000FF80
3FE0000000FF80
7FC00000007F80
7FC00000007FC0
7F800000007FC0
7F800000003FC0
FF800000003FC0
FF800000003FC0
FF800000003FC0
FF800000003FC0
FF800000003FC0
FF800000003FC0
FF800000003FC0
7F800000003FC0
7F800000007FC0
7FC00000007FC0
7FC00000007FC0
3FE0000000FF80
3FE0000000FF80
3FF0000001FF00
1FF8000003FF00
1FF8000007FE00
0FFE00000FFE00
07FF00001FFC00
07FFC0007FFC00
03FFF003FFF800
01FFFFFFFFF000
00FFFFFFFFE000
007FFFFFFFC000
001FFFFFFF0000
000FFFFFFE0000
0003FFFFF80000
00007FFFC00000
00000FFE000000
ENDCHAR
STARTCHAR 0151
ENCODING 337
SWIDTH 810 0
DWIDTH 54 0
BBX 50 60 2 -1
BITMAP
000007E0FC0000
00000FC1F80000
00000F81F80000
00001F83F00000
00001F03E00000
00003E07C00000
00003C07C00000
00007C0F800000
00000000000000
00000000000000
00000000000000
000000F0000000
00007FFF800000
0001FFFFF00000
0007FFFFFC0000
001FFFFFFF0000
003FFFFFFF8000
00FFFFFFFFC000
01FFFFFFFFE000
03FFFC07FFF000
07FFC000FFF800
07FF00003FFC00
0FFE00000FFE00
1FFC000007FE00
1FF8000003FF00
3FF0000001FF00
3FE0000000FF80
3FE0000000FF80
7FC00000007F80
7FC00000007FC0
7F800000007FC0
7F800000003FC0
FF800000003FC0
FF800000003FC0
FF800000003FC0
FF800000003FC0
FF800000003FC0
FF800000003FC0
FF800000003FC0
7F800000003FC0
7F800000007FC0
7FC00000007FC0
7FC00000007FC0
3FE0000000FF80
3FE0000000FF80
3FF0000001FF00
1FF8000003FF00
1FF8000007FE00
0FFE00000FFE00
07FF00001FFC00
07FFC0007FFC00
03FFF003FFF800
01FFFFFFFFF000
00FFFFFFFFE000
007FFFFFFFC000
001FFFFFFF0000
000FFFFFFE0000
0003FFFFF80000
00007FFFC00000
00000FFE000000
ENDCHAR
STARTCHAR 0154
ENCODING 340
SWIDTH 600 0
DWIDTH 40 0
BBX 36 59 2 0
BITMAP
00001F8000
00003F0000
00003F0000
00007E0000
00007C0000
0000F80000
0000F80000
0001F00000
0000000000
0000000000
0000000000
0000000000
0FFFFE0000
0FFFFFE000
0FFFFFF800
0FFFFFFE00
0FFFFFFF00
0FFFFFFF80
0FFFFFFFC0
0FFFFFFFE0
0FF001FFE0
0FF0007FE0
0FF0001FF0
0FF0001FF0
0FF0000FF0
0FF0000FF0
0FF0000FF0
0FF0000FF0
0FF0000FF0
0FF0000FF0
0FF0001FF0
0FF0003FE0
0FF000FFE0
FFFFFFFFE0
FFFFFFFFC0
FFFFFFFF80
FFFFFFFF00
FFFFFFFE00
FFFFFFFC00
FFFFFFFE00
FFFFFFFF00
0FF007FF00
0FF001FF80
0FF000FF80
0FF0007F80
0FF0007FC0
0FF0007FC0
0FF0003FC0
0FF0003FC0
0FF0003FC0
0FF0003FC0
0FF0003FC0
0FF0003FC0
0FF0003FC0
0FF0003FC0
0FF0003FC0
0FF0003FC0
0FF0003FC0
0FF0003FC0
ENDCHAR
STARTCHAR 0155
ENCODING 341
SWIDTH 600 0
DWIDTH 40 0
BBX 36 59 2 0
BITMAP
00001F8000
00003F0000
00003F0000
00007E0000
00007C0000
0000F80000
0000F80000
0001F00000
0000000000
0000000000
0000000000
0000000000
0FFFFE0000
0FFFFFE000
0FFFFFF800
0FFFFFFE00
0FFFFFFF00
0FFFFFFF80
0FFFFFFFC0
0FFFFFFFE0
0FF001FFE0
0FF0007FE0
0FF0001FF0
0FF0001FF0
0FF0000FF0
0FF0000FF0
0FF0000FF0
0FF0000FF0
0FF0000FF0
0FF0000FF0
0FF0001FF0
0FF0003FE0
0FF000FFE0
FFFFFFFFE0
FFFFFFFFC0
FFFFFFFF80
FFFFFFFF00
FFFFFFFE00
FFFFFFFC00
FFFFFFFE00
FFFFFFFF00
0FF007FF00
0FF001FF80
0FF000FF80
0FF0007F80
0FF0007FC0
0FF0007FC0
0FF0003FC0
0FF0003FC0
0FF0003FC0
0FF0003FC0
0FF0003FC0
0FF0003FC0
0FF0003FC0
0FF0003FC0
0FF0003FC0
0FF0003FC0
0FF0003FC0
0FF0003FC0
ENDCHAR
STARTCHAR 0158
ENCODING 344
SWIDTH 600 0
DWIDTH 40 0
BBX 36 60 2 0
BITMAP
00FE03F000
007E07E000
007F0FE000
003F9FC000
001FDF8000
000FFF8000
000FFF0000
0007FE0000
0000000000
0000000000
0000000000
0000000000
0000000000
0FFFFE0000
0FFFFFE000
0FFFFFF800
0FFFFFFE00
0FFFFFFF00
0FFFFFFF80
0FFFFFFFC0
0FFFFFFFE0
0FF001FFE0
0FF0007FE0
0FF0001FF0
0FF0001FF0
0FF0000FF0
0FF0000FF0
0FF0000FF0
0FF0000FF0
0FF0000FF0
0FF0000FF0
0FF0001FF0
0FF0003FE0
0FF000FFE0
FFFFFFFFE0
FFFFFFFFC0
FFFFFFFF80
FFFFFFFF00
FFFFFFFE00
FFFFFFFC00
FFFFFFFE00
FFFFFFFF00
0FF007FF00
0FF001FF80
0FF000FF80
0FF0007F80
0FF0007FC0
0FF0007FC0
0FF0003FC0
0FF0003FC0
0FF0003FC0
0FF0003FC0
0FF0003FC0
0FF0003FC0
0FF0003FC0
0FF0003FC0
0FF0003FC0
0FF0003FC0
0FF0003FC0
0FF0003FC0
ENDCHAR
STARTCHAR 0159
ENCODING 345
SWIDTH 600 0
DWIDTH 40 0
BBX 36 60 2 0
BITMAP
00FE03F000
007E07E000
007F0FE000
003F9FC000
001FDF8000
000FFF8000
000FFF0000
0007FE0000
0000000000
0000000000
0000000000
0000000000
0000000000
0FFFFE0000
0FFFFFE000
0FFFFFF800
0FFFFFFE00
0FFFFFFF00
0FFFFFFF80
0FFFFFFFC0
0FFFFFFFE0
0FF001FFE0
0FF0007FE0
0FF0001FF0
0FF0001FF0
0FF0000FF0
0FF0000FF0
0FF0000FF0
0FF0000FF0
0FF0000FF0
0FF0000FF0
0FF0001FF0
0FF0003FE0
0FF000FFE0
FFFFFFFFE0
FFFFFFFFC0
FFFFFFFF80
FFFFFFFF00
FFFFFFFE00
FFFFFFFC00
FFFFFFFE00
FFFFFFFF00
0FF007FF00
0FF001FF80
0FF000FF80
0FF0007F80
0FF0007FC0
0FF0007FC0
0FF0003FC0
0FF0003FC0
0FF0003FC0
0FF0003FC0
0FF0003FC0
0FF0003FC0
0FF0003FC0
0FF0003FC0
0FF0003FC0
0FF0003FC0
0FF0003FC0
0FF0003FC0
ENDCHAR
STARTCHAR 015A
ENCODING 346
SWIDTH 495 0
DWIDTH 33 0
BBX 30 60 2 -1
BITMAP
0000FC00
0001F800
0001F000
0003F000
0003E000
0007C000
0007C000
000F8000
00000000
00000000
00000000
000FC000
00FFF800
01FFFE00
07FFFF80
0FFFFFC0
0FFFFFC0
1FFFFFE0
1FFFFFF0
3FF87FF0
3FE01FF0
3FE00FF8
3FC00FF8
3FC007E0
3FC00700
3FE00000
3FE00000
3FF00000
1FF80000
1FFE0000
0FFF0000
07FFC000
03FFF000
01FFF800
00FFFE00
003FFF00
001FFF80
0007FFC0
0003FFE0
0000FFF0
00007FF0
00001FF8
00000FF8
000007FC
000007FC
010007FC
0F0003FC
FF8007FC
FF8007FC
7FC007FC
7FE00FF8
7FF03FF8
3FFFFFF8
3FFFFFF0
1FFFFFE0
0FFFFFE0
07FFFFC0
01FFFF00
00FFFE00
001FF000
ENDCHAR
STARTCHAR 015B
ENCODING 347
SWIDTH 495 0
DWIDTH 33 0
BBX 30 60 2 -1
BITMAP
0000FC00
0001F800
0001F000
0003F000
0003E000
0007C000
0007C000
000F8000
00000000
00000000
00000000
000FC000
00FFF800
01FFFE00
07FFFF80
0FFFFFC0
0FFFFFC0
1FFFFFE0
1FFFFFF0
3FF87FF0
3FE01FF0
3FE00FF8
3FC00FF8
3FC007E0
3FC00700
3FE00000
3FE00000
3FF00000
1FF80000
1FFE0000
0FFF0000
07FFC000
03FFF000
01FFF800
00FFFE00
003FFF00
001FFF80
0007FFC0
0003FFE0
0000FFF0
00007FF0
00001FF8
00000FF8
000007FC
000007FC
010007FC
0F0003FC
FF8007FC
FF8007FC
7FC007FC
7FE00FF8
7FF03FF8
3FFFFFF8
3FFFFFF0
1FFFFFE0
0FFFFFE0
07FFFFC0
01FFFF00
00FFFE00
001FF000
ENDCHAR
STARTCHAR 015E
ENCODING 350
SWIDTH 495 0
DWIDTH 33 0
BBX 30 63 2 -15
BITMAP
000FC000
00FFF800
01FFFE00
07FFFF80
0FFFFFC0
0FFFFFC0
1FFFFFE0
1FFFFFF0
3FF87FF0
3FE01FF0
3FE00FF8
3FC00FF8
3FC007E0
3FC00700
3FE00000
3FE00000
3FF00000
1FF80000
1FFE0000
0FFF0000
07FFC000
03FFF000
01FFF800
00FFFE00
003FFF00
001FFF80
0007FFC0
0003FFE0
0000FFF0
00007FF0
00001FF8
00000FF8
000007FC
000007FC
010007FC
0F0003FC
FF8007FC
FF8007FC
7FC007FC
7FE00FF8
7FF03FF8
3FFFFFF8
3FFFFFF0
1FFFFFE0
0FFFFFE0
07FFFFC0
01FFFF00
00FFFE00
001FF000
00078000
00078000
0007E000
0007F000
0000F000
00007800
00007800
00C07800
01E0F800
03FFF800
01FFF000
00FFE000
007FC000
00060000
ENDCHAR
STARTCHAR 015F
ENCODING 351
SWIDTH 495 0
DWIDTH 33 0
BBX 30 63 2 -15
BITMAP
000FC000
00FFF800
01FFFE00
07FFFF80
0FFFFFC0
0FFFFFC0
1FFFFFE0
1FFFFFF0
3FF87FF0
3FE01FF0
3FE00FF8
3FC00FF8
3FC007E0
3FC00700
3FE00000
3FE00000
3FF00000
1FF80000
1FFE0000
0FFF0000
07FFC000
03FFF000
01FFF800
00FFFE00
003FFF00
001FFF80
0007FFC0
0003FFE0
0000FFF0
00007FF0
00001FF8
00000FF8
000007FC
000007FC
010007FC
0F0003FC
FF8007FC
FF8007FC
7FC007FC
7FE00FF8
7FF03FF8
3FFFFFF8
3FFFFFF0
1FFFFFE0
0FFFFFE0
07FFFFC0
01FFFF00
00FFFE00
001FF000
00078000
00078000
0007E000
0007F000
0000F000
00007800
00007800
00C07800
01E0F800
03FFF800
01FFF000
00FFE000
007FC000
00060000
ENDCHAR
STARTCHAR 0160
ENCODING 352
SWIDTH 495 0
DWIDTH 33 0
BBX 30 61 2 -1
BITMAP
07E03F80
07F03F00
03F87F00
01FCFE00
00FFFC00
00FFF800
007FF800
003FF000
00000000
00000000
00000000
00000000
000FC000
00FFF800
01FFFE00
07FFFF80
0FFFFFC0
0FFFFFC0
1FFFFFE0
1FFFFFF0
3FF87FF0
3FE01FF0
3FE00FF8
3FC00FF8
3FC007E0
3FC00700
3FE00000
3FE00000
3FF00000
1FF80000
1FFE0000
0FFF0000
07FFC000
03FFF000
01FFF800
00FFFE00
003FFF00
001FFF80
0007FFC0
0003FFE0
0000FFF0
00007FF0
00001FF8
00000FF8
000007FC
000007FC
010007FC
0F0003FC
FF8007FC
FF8007FC
7FC007FC
7FE00FF8
7FF03FF8
3FFFFFF8
3FFFFFF0
1FFFFFE0
0FFFFFE0
07FFFFC0
01FFFF00
00FFFE00
001FF000
ENDCHAR
STARTCHAR 0161
ENCODING 353
SWIDTH 495 0
DWIDTH 33 0
BBX 30 61 2 -1
BITMAP
07E03F80
07F03F00
03F87F00
01FCFE00
00FFFC00
00FFF800
007FF800
003FF000
00000000
00000000
00000000
00000000
000FC000
00FFF800
01FFFE00
07FFFF80
0FFFFFC0
0FFFFFC0
1FFFFFE0
1FFFFFF0
3FF87FF0
3FE01FF0
3FE00FF8
3FC00FF8
3FC007E0
3FC00700
3FE00000
3FE00000
3FF00000
1FF80000
1FFE0000
0FFF0000
07FFC000
03FFF000
01FFF800
00FFFE00
003FFF00
001FFF80
0007FFC0
0003FFE0
0000FFF0
00007FF0
00001FF8
00000FF8
000007FC
000007FC
010007FC
0F0003FC
FF8007FC
FF8007FC
7FC007FC
7FE00FF8
7FF03FF8
3FFFFFF8
3FFFFFF0
1FFFFFE0
0FFFFFE0
07FFFFC0
01FFFF00
00FFFE00
001FF000
ENDCHAR
STARTCHAR 0162
ENCODING 354
SWIDTH 510 0
DWIDTH 34 0
BBX 31 62 2 -15
BITMAP
FFFFFFFE
FFFFFFFE
FFFFFFFE
FFFFFFFE
FFFFFFFE
FFFFFFFE
FFFFFFFE
FFFFFFFE
001FE000
001FE000
001FE000
001FE000
001FE000
001FE000
001FE000
001FE000
001FE000
001FE000
001FE000
001FE000
001FE000
001FE000
001FE000
001FE000
001FE000
001FE000
001FE000
001FE000
001FE000
001FE000
001FE000
001FE000
001FE000
001FE000
001FE000
001FE000
001FE000
001FE000
001FE000
001FE000
001FE000
001FE000
001FE000
001FE000
001FE000
001FE000
001FE000
00078000
00078000
000F0000
000FC000
000FE000
0001F000
0000F000
00007800
00C0F800
01E0F800
03FFF000
01FFF000
00FFE000
007FC000
000F0000
ENDCHAR
STARTCHAR 0163
ENCODING 355
SWIDTH 510 0
DWIDTH 34 0
BBX 31 62 2 -15
BITMAP
FFFFFFFE
FFFFFFFE
FFFFFFFE
FFFFFFFE
FFFFFFFE
FFFFFFFE
FFFFFFFE
FFFFFFFE
001FE000
001FE000
001FE000
001FE000
001FE000
001FE000
001FE000
001FE000
001FE000
001FE000
001FE000
001FE000
001FE000
001FE000
001FE000
001FE000
001FE000
001FE000
001FE000
001FE000
001FE000
001FE000
001FE000
001FE000
001FE000
001FE000
001FE000
001FE000
001FE000
001FE000
001FE000
001FE000
001FE000
001FE000
001FE000
001FE000
001FE000
001FE000
001FE000
00078000
00078000
000F0000
000FC000
000FE000
0001F000
0000F000
00007800
00C0F800
01E0F800
03FFF000
01FFF000
00FFE000
007FC000
000F0000
ENDCHAR
STARTCHAR 0164
ENCODING 356
SWIDTH 510 0
DWIDTH 34 0
BBX 31 60 2 0
BITMAP
07F01FC0
03F83F80
01F87F00
01FC7E00
00FEFE00
007FFC00
003FF800
003FF000
00000000
00000000
00000000
00000000
00000000
FFFFFFFE
FFFFFFFE
FFFFFFFE
FFFFFFFE
FFFFFFFE
FFFFFFFE
FFFFFFFE
FFFFFFFE
001FE000
001FE000
001FE000
001FE000
001FE000
001FE000
001FE000
001FE000
001FE000
001FE000
001FE000
001FE000
001FE000
001FE000
001FE000
001FE000
001FE000
001FE000
001FE000
001FE000
001FE000
001FE000
001FE000
001FE000
001FE000
001FE000
001FE000
001FE000
001FE000
001FE000
001FE000
001FE000
001FE000
001FE000
001FE000
001FE000
001FE000
001FE000
001FE000
ENDCHAR
STARTCHAR 0165
ENCODING 357
SWIDTH 510 0
DWIDTH 34 0
BBX 31 60 2 0
BITMAP
07F01FC0
03F83F80
01F87F00
01FC7E00
00FEFE00
007FFC00
003FF800
003FF000
00000000
00000000
00000000
00000000
00000000
FFFFFFFE
FFFFFFFE
FFFFFFFE
FFFFFFFE
FFFFFFFE
FFFFFFFE
FFFFFFFE
FFFFFFFE
001FE000
001FE000
001FE000
001FE000
001FE000
001FE000
001FE000
001FE000
001FE000
001FE000
001FE000
001FE000
001FE000
001FE000
001FE000
001FE000
001FE000
001FE000
001FE000
001FE000
001FE000
001FE000
001FE000
001FE000
001FE000
001FE000
001FE000
001FE000
001FE000
001FE000
001FE000
001FE000
001FE000
001FE000
001FE000
001FE000
001FE000
001FE000
001FE000
ENDCHAR
STARTCHAR 0168
ENCODING 360
SWIDTH 525 0
DWIDTH 35 0
BBX 29 60 3 -1
BITMAP
03FC0400
03FFFC00
03FFFC00
03FFFC00
03FFFC00
0003F800
00000000
00000000
00000000
00000000
00000000
00000000
FF0007F8
FF0007F8
FF0007F8
FF0007F8
FF0007F8
FF0007F8
FF0007F8
FF0007F8
FF0007F8
FF0007F8
FF0007F8
FF0007F8
FF0007F8
FF0007F8
FF0007F8
FF0007F8
FF0007F8
FF0007F8
FF0007F8
FF0007F8
FF0007F8
FF0007F8
FF0007F8
FF0007F8
FF0007F8
FF0007F8
FF0007F8
FF0007F8
FF0007F8
FF0007F8
FF0007F8
FF0007F8
FF0007F8
FF0007F8
FF8007F8
FF800FF8
FF800FF8
7FC00FF0
7FC01FF0
7FF03FF0
3FFFFFE0
3FFFFFE0
1FFFFFC0
0FFFFF80
07FFFF00
03FFFE00
00FFF800
001FE000
ENDCHAR
STARTCHAR 0169
ENCODING 361
SWIDTH 525 0
DWIDTH 35 0
BBX 29 60 3 -1
BITMAP
03FC0400
03FFFC00
03FFFC00
03FFFC00
03FFFC00
0003F800
00000000
00000000
00000000
00000000
00000000
00000000
FF0007F8
FF0007F8
FF0007F8
FF0007F8
FF0007F8
FF0007F8
FF0007F8
FF0007F8
FF0007F8
FF0007F8
FF0007F8
FF0007F8
FF0007F8
FF0007F8
FF0007F8
FF0007F8
FF0007F8
FF0007F8
FF0007F8
FF0007F8
FF0007F8
FF0007F8
FF0007F8
FF0007F8
FF0007F8
FF0007F8
FF0007F8
FF0007F8
FF0007F8
FF0007F8
FF0007F8
FF0007F8
FF0007F8
FF0007F8
FF8007F8
FF800FF8
FF800FF8
7FC00FF0
7FC01FF0
7FF03FF0
3FFFFFE0
3FFFFFE0
1FFFFFC0
0FFFFF80
07FFFF00
03FFFE00
00FFF800
001FE000
ENDCHAR
STARTCHAR 016A
ENCODING 362
SWIDTH 525 0
DWIDTH 35 0
BBX 29 59 3 -1
BITMAP
07FFFF00
07FFFF00
07FFFF00
07FFFF00
07FFFF00
07FFFF00
00000000
00000000
00000000
00000000
00000000
FF0007F8
FF0007F8
FF0007F8
FF0007F8
FF0007F8
FF0007F8
FF0007F8
FF0007F8
FF0007F8
FF0007F8
FF0007F8
FF0007F8
FF0007F8
FF0007F8
FF0007F8
FF0007F8
FF0007F8
FF0007F8
FF0007F8
FF0007F8
FF0007F8
FF0007F8
FF0007F8
FF0007F8
FF0007F8
FF0007F8
FF0007F8
FF0007F8
FF0007F8
FF0007F8
FF0007F8
FF0007F8
FF0007F8
FF0007F8
FF8007F8
FF800FF8
FF800FF8
7FC00FF0
7FC01FF0
7FF03FF0
3FFFFFE0
3FFFFFE0
1FFFFFC0
0FFFFF80
07FFFF00
03FFFE00
00FFF800
001FE000
ENDCHAR
STARTCHAR 016B
ENCODING 363
SWIDTH 525 0
DWIDTH 35 0
BBX 29 59 3 -1
BITMAP
07FFFF00
07FFFF00
07FFFF00
07FFFF00
07FFFF00
07FFFF00
00000000
00000000
00000000
00000000
00000000
FF0007F8
FF0007F8
FF0007F8
FF0007F8
FF0007F8
FF0007F8
FF0007F8
FF0007F8
FF0007F8
FF0007F8
FF0007F8
FF0007F8
FF0007F8
FF0007F8
FF0007F8
FF0007F8
FF0007F8
FF0007F8
FF0007F8
FF0007F8
FF0007F8
FF0007F8
FF0007F8
FF0007F8
FF0007F8
FF0007F8
FF0007F8
FF0007F8
FF0007F8
FF0007F8
FF0007F8
FF0007F8
FF0007F8
FF0007F8
FF8007F8
FF800FF8
FF800FF8
7FC00FF0
7FC01FF0
7FF03FF0
3FFFFFE0
3FFFFFE0
1FFFFFC0
0FFFFF80
07FFFF00
03FFFE00
00FFF800
001FE000
ENDCHAR
STARTCHAR 016E
ENCODING 366
SWIDTH 525 0
DWIDTH 35 0
BBX 29 65 3 -1
BITMAP
000F8000
003FE000
007FF000
00FFF800
00F07800
00F07800
00F03800
00F03800
00F07800
00F8F800
007FF000
003FF000
001FC000
00030000
00000000
00000000
00000000
FF0007F8
FF0007F8
FF0007F8
FF0007F8
FF0007F8
FF0007F8
FF0007F8
FF0007F8
FF0007F8
FF0007F8
FF0007F8
FF0007F8
FF0007F8
FF0007F8
FF0007F8
FF0007F8
FF0007F8
FF0007F8
FF0007F8
FF0007F8
FF0007F8
FF0007F8
FF0007F8
FF0007F8
FF0007F8
FF0007F8
FF0007F8
FF0007F8
FF0007F8
FF0007F8
FF0007F8
FF0007F8
FF0007F8
FF0007F8
FF8007F8
FF800FF8
FF800FF8
7FC00FF0
7FC01FF0
7FF03FF0
3FFFFFE0
3FFFFFE0
1FFFFFC0
0FFFFF80
07FFFF00
03FFFE00
00FFF800
001FE000
ENDCHAR
STARTCHAR 016F
ENCODING 367
SWIDTH 525 0
DWIDTH 35 0
BBX 29 65 3 -1
BITMAP
000F8000
003FE000
007FF000
00FFF800
00F07800
00F07800
00F03800
00F03800
00F07800
00F8F800
007FF000
003FF000
001FC000
00030000
00000000
00000000
00000000
FF0007F8
FF0007F8
FF0007F8
FF0007F8
FF0007F8
FF0007F8
FF0007F8
FF0007F8
FF0007F8
FF0007F8
FF0007F8
FF0007F8
FF0007F8
FF0007F8
FF0007F8
FF0007F8
FF0007F8
FF0007F8
FF0007F8
FF0007F8
FF0007F8
FF0007F8
FF0007F8
FF0007F8
FF0007F8
FF0007F8
FF0007F8
FF0007F8
FF0007F8
FF0007F8
FF0007F8
FF0007F8
FF0007F8
FF0007F8
FF8007F8
FF800FF8
FF800FF8
7FC00FF0
7FC01FF0
7FF03FF0
3FFFFFE0
3FFFFFE0
1FFFFFC0
0FFFFF80
07FFFF00
03FFFE00
00FFF800
001FE000
ENDCHAR
STARTCHAR 0170
ENCODING 368
SWIDTH 525 0
DWIDTH 35 0
BBX 29 60 3 -1
BITMAP
003F07E0
007E07E0
007E0FC0
00FC0F80
00F81F00
01F03F00
01F03E00
03E07C00
00000000
00000000
00000000
00000000
FF0007F8
FF0007F8
FF0007F8
FF0007F8
FF0007F8
FF0007F8
FF0007F8
FF0007F8
FF0007F8
FF0007F8
FF0007F8
FF0007F8
FF0007F8
FF0007F8
FF0007F8
FF0007F8
FF0007F8
FF0007F8
FF0007F8
FF0007F8
FF0007F8
FF0007F8
FF0007F8
FF0007F8
FF0007F8
FF0007F8
FF0007F8
FF0007F8
FF0007F8
FF0007F8
FF0007F8
FF0007F8
FF0007F8
FF0007F8
FF8007F8
FF800FF8
FF800FF8
7FC00FF0
7FC01FF0
7FF03FF0
3FFFFFE0
3FFFFFE0
1FFFFFC0
0FFFFF80
07FFFF00
03FFFE00
00FFF800
001FE000
ENDCHAR
STARTCHAR 0171
ENCODING 369
SWIDTH 525 0
DWIDTH 35 0
BBX 29 60 3 -1
BITMAP
003F07E0
007E07E0
007E0FC0
00FC0F80
00F81F00
01F03F00
01F03E00
03E07C00
00000000
00000000
00000000
00000000
FF0007F8
FF0007F8
FF0007F8
FF0007F8
FF0007F8
FF0007F8
FF0007F8
FF0007F8
FF0007F8
FF0007F8
FF0007F8
FF0007F8
FF0007F8
FF0007F8
FF0007F8
FF0007F8
FF0007F8
FF0007F8
FF0007F8
FF0007F8
FF0007F8
FF0007F8
FF0007F8
FF0007F8
FF0007F8
FF0007F8
FF0007F8
FF0007F8
FF0007F8
FF0007F8
FF0007F8
FF0007F8
FF0007F8
FF0007F8
FF8007F8
FF800FF8
FF800FF8
7FC00FF0
7FC01FF0
7FF03FF0
3FFFFFE0
3FFFFFE0
1FFFFFC0
0FFFFF80
07FFFF00
03FFFE00
00FFF800
001FE000
ENDCHAR
STARTCHAR 0172
ENCODING 370
SWIDTH 525 0
DWIDTH 35 0
BBX 29 60 3 -13
BITMAP
FF0007F8
FF0007F8
FF0007F8
FF0007F8
FF0007F8
FF0007F8
FF0007F8
FF0007F8
FF0007F8
FF0007F8
FF0007F8
FF0007F8
FF0007F8
FF0007F8
FF0007F8
FF0007F8
FF0007F8
FF0007F8
FF0007F8
FF0007F8
FF0007F8
FF0007F8
FF0007F8
FF0007F8
FF0007F8
FF0007F8
FF0007F8
FF0007F8
FF0007F8
FF0007F8
FF0007F8
FF0007F8
FF0007F8
FF0007F8
FF8007F8
FF800FF8
FF800FF8
7FC00FF0
7FC01FF0
7FF03FF0
3FFFFFE0
3FFFFFE0
1FFFFFC0
0FFFFF80
07FFFF00
03FFFE00
00FFF800
001FE000
001F0000
003E0000
007C0000
00780000
00780000
00F80000
00781800
007C7C00
007FFE00
003FFC00
001FF800
0007E000
ENDCHAR
STARTCHAR 0173
ENCODING 371
SWIDTH 525 0
DWIDTH 35 0
BBX 29 60 3 -13
BITMAP
FF0007F8
FF0007F8
FF0007F8
FF0007F8
FF0007F8
FF0007F8
FF0007F8
FF0007F8
FF0007F8
FF0007F8
FF0007F8
FF0007F8
FF0007F8
FF0007F8
FF0007F8
FF0007F8
FF0007F8
FF0007F8
FF0007F8
FF0007F8
FF0007F8
FF0007F8
FF0007F8
FF0007F8
FF0007F8
FF0007F8
FF0007F8
FF0007F8
FF0007F8
FF0007F8
FF0007F8
FF0007F8
FF0007F8
FF0007F8
FF8007F8
FF800FF8
FF800FF8
7FC00FF0
7FC01FF0
7FF03FF0
3FFFFFE0
3FFFFFE0
1FFFFFC0
0FFFFF80
07FFFF00
03FFFE00
00FFF800
001FE000
001F0000
003E0000
007C0000
00780000
00780000
00F80000
00781800
007C7C00
007FFE00
003FFC00
001FF800
0007E000
ENDCHAR
STARTCHAR 0176
ENCODING 374
SWIDTH 510 0
DWIDTH 34 0
BBX 29 59 3 0
BITMAP
007FE000
007FF000
00FFF800
01FDFC00
03F9FC00
03F0FE00
07F07F00
0FE03F00
00000080
00000000
00000000
00000000
FF0007F8
FF0007F8
FF0007F8
FF0007F8
FF0007F8
FF0007F8
FF0007F8
FF0007F8
FF0007F8
FF0007F8
FF0007F8
FF0007F8
FF0007F8
FF0007F8
FF0007F8
FF0007F8
FF0007F8
FF0007F8
FF0007F8
FF0007F8
FF0007F8
FF0007F8
FF000FF8
FF000FF8
FF800FF8
FF800FF0
7FC01FF0
7FE03FF0
7FFFFFE0
3FFFFFE0
1FFFFFC0
1FFFFF80
0FFFFF00
07FFFE00
01FFFC00
007FE000
003FE000
003FE000
003FE000
003FE000
003FE000
003FE000
003FE000
003FE000
003FE000
003FE000
003FE000
ENDCHAR
STARTCHAR 0177
ENCODING 375
SWIDTH 510 0
DWIDTH 34 0
BBX 29 59 3 0
BITMAP
007FE000
007FF000
00FFF800
01FDFC00
03F9FC00
03F0FE00
07F07F00
0FE03F00
00000080
00000000
00000000
00000000
FF0007F8
FF0007F8
FF0007F8
FF0007F8
FF0007F8
FF0007F8
FF0007F8
FF0007F8
FF0007F8
FF0007F8
FF0007F8
FF0007F8
FF0007F8
FF0007F8
FF0007F8
FF0007F8
FF0007F8
FF0007F8
FF0007F8
FF0007F8
FF0007F8
FF0007F8
FF000FF8
FF000FF8
FF800FF8
FF800FF0
7FC01FF0
7FE03FF0
7FFFFFE0
3FFFFFE0
1FFFFFC0
1FFFFF80
0FFFFF00
07FFFE00
01FFFC00
007FE000
003FE000
003FE000
003FE000
003FE000
003FE000
003FE000
003FE000
003FE000
003FE000
003FE000
003FE000
ENDCHAR
STARTCHAR 0178
ENCODING 376
SWIDTH 510 0
DWIDTH 34 0
BBX 29 60 3 0
BITMAP
0FC01FC0
1FE03FE0
3FF03FE0
3FF07FF0
7FF07FF0
7FF07FF0
3FF07FF0
3FF03FE0
1FE03FE0
0FC00F80
00000000
00000000
00000000
FF0007F8
FF0007F8
FF0007F8
FF0007F8
FF0007F8
FF0007F8
FF0007F8
FF0007F8
FF0007F8
FF0007F8
FF0007F8
FF0007F8
FF0007F8
FF0007F8
FF0007F8
FF0007F8
FF0007F8
FF0007F8
FF0007F8
FF0007F8
FF0007F8
FF0007F8
FF000FF8
FF000FF8
FF800FF8
FF800FF0
7FC01FF0
7FE03FF0
7FFFFFE0
3FFFFFE0
1FFFFFC0
1FFFFF80
0FFFFF00
07FFFE00
01FFFC00
007FE000
003FE000
003FE000
003FE000
003FE000
003FE000
003FE000
003FE000
003FE000
003FE000
003FE000
003FE000
ENDCHAR
STARTCHAR 0179
ENCODING 377
SWIDTH 525 0
DWIDTH 35 0
BBX 31 59 2 0
BITMAP
00007E00
0000FC00
0000F800
0001F800
0001F000
0003E000
0003C000
0007C000
00000000
00000000
00000000
00000000
FFFFFFFE
FFFFFFFE
FFFFFFFE
FFFFFFFE
FFFFFFFE
FFFFFFFE
FFFFFFFC
FFFFFFF8
00000FF8
00001FF0
00001FF0
00003FE0
00007FC0
00007FC0
0000FF80
0000FF80
0001FF00
0003FE00
0003FE00
0007FC00
0007FC00
000FF800
001FF800
001FF000
003FE000
003FE000
007FC000
00FFC000
00FF8000
01FF0000
01FF0000
03FE0000
03FE0000
07FC0000
0FF80000
0FF80000
1FF00000
1FF00000
3FE00000
7FFFFFFC
7FFFFFFC
FFFFFFFC
FFFFFFFC
FFFFFFFC
FFFFFFFC
FFFFFFFC
FFFFFFFC
ENDCHAR
STARTCHAR 017A
ENCODING 378
SWIDTH 525 0
DWIDTH 35 0
BBX 31 59 2 0
BITMAP
00007E00
0000FC00
0000F800
0001F800
0001F000
0003E000
0003C000
0007C000
00000000
00000000
00000000
00000000
FFFFFFFE
FFFFFFFE
FFFFFFFE
FFFFFFFE
FFFFFFFE
FFFFFFFE
FFFFFFFC
FFFFFFF8
00000FF8
00001FF0
00001FF0
00003FE0
00007FC0
00007FC0
0000FF80
0000FF80
0001FF00
0003FE00
0003FE00
0007FC00
0007FC00
000FF800
001FF800
001FF000
003FE000
003FE000
007FC000
00FFC000
00FF8000
01FF0000
01FF0000
03FE0000
03FE0000
07FC0000
0FF80000
0FF80000
1FF00000
1FF00000
3FE00000
7FFFFFFC
7FFFFFFC
FFFFFFFC
FFFFFFFC
FFFFFFFC
FFFFFFFC
FFFFFFFC
FFFFFFFC
ENDCHAR
STARTCHAR 017B
ENCODING 379
SWIDTH 525 0
DWIDTH 35 0
BBX 31 62 2 0
BITMAP
00038000
0007F000
000FF000
001FF800
001FF800
001FF800
001FF800
001FF800
000FF800
000FF000
0003C000
00000000
00000000
00000000
00000000
FFFFFFFE
FFFFFFFE
FFFFFFFE
FFFFFFFE
FFFFFFFE
FFFFFFFE
FFFFFFFC
FFFFFFF8
00000FF8
00001FF0
00001FF0
00003FE0
00007FC0
00007FC0
0000FF80
0000FF80
0001FF00
0003FE00
0003FE00
0007FC00
0007FC00
000FF800
001FF800
001FF000
003FE000
003FE000
007FC000
00FFC000
00FF8000
01FF0000
01FF0000
03FE0000
03FE0000
07FC0000
0FF80000
0FF80000
1FF00000
1FF00000
3FE00000
7FFFFFFC
7FFFFFFC
FFFFFFFC
FFFFFFFC
FFFFFFFC
FFFFFFFC
FFFFFFFC
FFFFFFFC
ENDCHAR
STARTCHAR 017C
ENCODING 380
SWIDTH 525 0
DWIDTH 35 0
BBX 31 62 2 0
BITMAP
00038000
0007F000
000FF000
001FF800
001FF800
001FF800
001FF800
001FF800
000FF800
000FF000
0003C000
00000000
00000000
00000000
00000000
FFFFFFFE
FFFFFFFE
FFFFFFFE
FFFFFFFE
FFFFFFFE
FFFFFFFE
FFFFFFFC
FFFFFFF8
00000FF8
00001FF0
00001FF0
00003FE0
00007FC0
00007FC0
0000FF80
0000FF80
0001FF00
0003FE00
0003FE00
0007FC00
0007FC00
000FF800
001FF800
001FF000
003FE000
003FE000
007FC000
00FFC000
00FF8000
01FF0000
01FF0000
03FE0000
03FE0000
07FC0000
0FF80000
0FF80000
1FF00000
1FF00000
3FE00000
7FFFFFFC
7FFFFFFC
FFFFFFFC
FFFFFFFC
FFFFFFFC
FFFFFFFC
FFFFFFFC
FFFFFFFC
ENDCHAR
STARTCHAR 017D
ENCODING 381
SWIDTH 525 0
DWIDTH 35 0
BBX 31 60 2 0
BITMAP
07F01FC0
03F81F80
01FC3F00
00FE7F00
007EFE00
007FFC00
003FFC00
001FF800
00000000
00000000
00000000
00000000
00000000
FFFFFFFE
FFFFFFFE
FFFFFFFE
FFFFFFFE
FFFFFFFE
FFFFFFFE
FFFFFFFC
FFFFFFF8
00000FF8
00001FF0
00001FF0
00003FE0
00007FC0
00007FC0
0000FF80
0000FF80
0001FF00
0003FE00
0003FE00
0007FC00
0007FC00
000FF800
001FF800
001FF000
003FE000
003FE000
007FC000
00FFC000
00FF8000
01FF0000
01FF0000
03FE0000
03FE0000
07FC0000
0FF80000
0FF80000
1FF00000
1FF00000
3FE00000
7FFFFFFC
7FFFFFFC
FFFFFFFC
FFFFFFFC
FFFFFFFC
FFFFFFFC
FFFFFFFC
FFFFFFFC
ENDCHAR
STARTCHAR 017E
ENCODING 382
SWIDTH 525 0
DWIDTH 35 0
BBX 31 60 2 0
BITMAP
07F01FC0
03F81F80
01FC3F00
00FE7F00
007EFE00
007FFC00
003FFC00
001FF800
00000000
00000000
00000000
00000000
00000000
FFFFFFFE
FFFFFFFE
FFFFFFFE
FFFFFFFE
FFFFFFFE
FFFFFFFE
FFFFFFFC
FFFFFFF8
00000FF8
00001FF0
00001FF0
00003FE0
00007FC0
00007FC0
0000FF80
0000FF80
0001FF00
0003FE00
0003FE00
0007FC00
0007FC00
000FF800
001FF800
001FF000
003FE000
003FE000
007FC000
00FFC000
00FF8000
01FF0000
01FF0000
03FE0000
03FE0000
07FC0000
0FF80000
0FF80000
1FF00000
1FF00000
3FE00000
7FFFFFFC
7FFFFFFC
FFFFFFFC
FFFFFFFC
FFFFFFFC
FFFFFFFC
FFFFFFFC
FFFFFFFC
ENDCHAR
STARTCHAR 01A0
ENCODING 416
SWIDTH 810 0
DWIDTH 54 0
BBX 50 54 2 -1
BITMAP
00000000007E00
00000000007E00
00000000007E00
00000000007E00
00000000007C00
000000F000FC00
00007FFF81F800
0001FFFFFFF800
0007FFFFFFE000
001FFFFFFF8000
003FFFFFFF8000
00FFFFFFFFC000
01FFFFFFFFE000
03FFFC07FFF000
07FFC000FFF800
07FF00003FFC00
0FFE00000FFE00
1FFC000007FE00
1FF8000003FF00
3FF0000001FF00
3FE0000000FF80
3FE0000000FF80
7FC00000007F80
7FC00000007FC0
7F800000007FC0
7F800000003FC0
FF800000003FC0
FF800000003FC0
FF800000003FC0
FF800000003FC0
FF800000003FC0
FF800000003FC0
FF800000003FC0
7F800000003FC0
7F800000007FC0
7FC00000007FC0
7FC00000007FC0
3FE0000000FF80
3FE0000000FF80
3FF0000001FF00
1FF8000003FF00
1FF8000007FE00
0FFE00000FFE00
07FF00001FFC00
07FFC0007FFC00
03FFF003FFF800
01FFFFFFFFF000
00FFFFFFFFE000
007FFFFFFFC000
001FFFFFFF0000
000FFFFFFE0000
0003FFFFF80000
00007FFFC00000
00000FFE000000
ENDCHAR
STARTCHAR 01A1
ENCODING 417
SWIDTH 810 0
DWIDTH 54 0
BBX 50 54 2 -1
BITMAP
00000000007E00
00000000007E00
00000000007E00
00000000007E00
00000000007C00
000000F000FC00
00007FFF81F800
0001FFFFFFF800
0007FFFFFFE000
001FFFFFFF8000
003FFFFFFF8000
00FFFFFFFFC000
01FFFFFFFFE000
03FFFC07FFF000
07FFC000FFF800
07FF00003FFC00
0FFE00000FFE00
1FFC000007FE00
1FF8000003FF00
3FF0000001FF00
3FE0000000FF80
3FE0000000FF80
7FC00000007F80
7FC00000007FC0
7F800000007FC0
7F800000003FC0
FF800000003FC0
FF800000003FC0
FF800000003FC0
FF800000003FC0
FF800000003FC0
FF800000003FC0
FF800000003FC0
7F800000003FC0
7F800000007FC0
7FC00000007FC0
7FC00000007FC0
3FE0000000FF80
3FE0000000FF80
3FF0000001FF00
1FF8000003FF00
1FF8000007FE00
0FFE00000FFE00
07FF00001FFC00
07FFC0007FFC00
03FFF003FFF800
01FFFFFFFFF000
00FFFFFFFFE000
007FFFFFFFC000
001FFFFFFF0000
000FFFFFFE0000
0003FFFFF80000
00007FFFC00000
00000FFE000000
ENDCHAR
STARTCHAR 01AF
ENCODING 431
SWIDTH 525 0
DWIDTH 35 0
BBX 35 54 3 -1
BITMAP
00000003E0
00000003E0
00000003E0
00000007C0
00000007C0
00000007C0
FF0007FF80
FF0007FF00
FF0007FE00
FF0007F800
FF0007F800
FF0007F800
FF0007F800
FF0007F800
FF0007F800
FF0007F800
FF0007F800
FF0007F800
FF0007F800
FF0007F800
FF0007F800
FF0007F800
FF0007F800
FF0007F800
FF0007F800
FF0007F800
FF0007F800
FF0007F800
FF0007F800
FF0007F800
FF0007F800
FF0007F800
FF0007F800
FF0007F800
FF0007F800
FF0007F800
FF0007F800
FF0007F800
FF0007F800
FF0007F800
FF8007F800
FF800FF800
FF800FF800
7FC00FF000
7FC01FF000
7FF03FF000
3FFFFFE000
3FFFFFE000
1FFFFFC000
0FFFFF8000
07FFFF0000
03FFFE0000
00FFF80000
001FE00000
ENDCHAR
STARTCHAR 01B0
ENCODING 432
SWIDTH 525 0
DWIDTH 35 0
BBX 35 54 3 -1
BITMAP
00000003E0
00000003E0
00000003E0
00000007C0
00000007C0
00000007C0
FF0007FF80
FF0007FF00
FF0007FE00
FF0007F800
FF0007F800
FF0007F800
FF0007F800
FF0007F800
FF0007F800
FF0007F800
FF0007F800
FF0007F800
FF0007F800
FF0007F800
FF0007F800
FF0007F800
FF0007F800
FF0007F800
FF0007F800
FF0007F800
FF0007F800
FF0007F800
FF0007F800
FF0007F800
FF0007F800
FF0007F800
FF0007F800
FF0007F800
FF0007F800
FF0007F800
FF0007F800
FF0007F800
FF0007F800
FF0007F800
FF8007F800
FF800FF800
FF800FF800
7FC00FF000
7FC01FF000
7FF03FF000
3FFFFFE000
3FFFFFE000
1FFFFFC000
0FFFFF8000
07FFFF0000
03FFFE0000
00FFF80000
001FE00000
ENDCHAR
STARTCHAR 01CD
ENCODING 461
SWIDTH 555 0
DWIDTH 37 0
BBX 34 60 3 0
BITMAP
07F03F8000
03F03F0000
03F87F0000
01FCFE0000
00FFFC0000
00FFF80000
007FF80000
003FF00000
0000000000
0000000000
0000000000
0000000000
0007800000
007FF80000
01FFFE0000
03FFFF0000
07FFFF8000
0FFFFFC000
1FFFFFE000
3FFFFFE000
3FF87FF000
7FE01FF000
7FC00FF800
7FC00FF800
7F8007F800
7F8007F800
FF8007FC00
FF8007FC00
FF8007FC00
FF8007FC00
FF8007FC00
FF8007FC00
FF8007FC00
FF8007FC00
FF8007FC00
FF8007FC00
FF8007FC00
FF8007FC00
FF8007FC00
FF8007FC00
FF8007FC00
FF8007FC00
FF8007FC00
FF8007FC00
FF8007FC00
FF8007FC00
FF8007FC00
FF8007FC00
FF8007FC00
FF8007FC00
FF8007FC00
FF8007FC00
FFFFFFFFC0
FFFFFFFFC0
FFFFFFFFC0
FFFFFFFFC0
FFFFFFFFC0
FFFFFFFFC0
FFFFFFFFC0
FFFFFFFFC0
ENDCHAR
STARTCHAR 01CE
ENCODING 462
SWIDTH 555 0
DWIDTH 37 0
BBX 34 60 3 0
BITMAP
07F03F8000
03F03F0000
03F87F0000
01FCFE0000
00FFFC0000
00FFF80000
007FF80000
003FF00000
0000000000
0000000000
0000000000
0000000000
0007800000
007FF80000
01FFFE0000
03FFFF0000
07FFFF8000
0FFFFFC000
1FFFFFE000
3FFFFFE000
3FF87FF000
7FE01FF000
7FC00FF800
7FC00FF800
7F8007F800
7F8007F800
FF8007FC00
FF8007FC00
FF8007FC00
FF8007FC00
FF8007FC00
FF8007FC00
FF8007FC00
FF8007FC00
FF8007FC00
FF8007FC00
FF8007FC00
FF8007FC00
FF8007FC00
FF8007FC00
FF8007FC00
FF8007FC00
FF8007FC00
FF8007FC00
FF8007FC00
FF8007FC00
FF8007FC00
FF8007FC00
FF8007FC00
FF8007FC00
FF8007FC00
FF8007FC00
FFFFFFFFC0
FFFFFFFFC0
FFFFFFFFC0
FFFFFFFFC0
FFFFFFFFC0
FFFFFFFFC0
FFFFFFFFC0
FFFFFFFFC0
ENDCHAR
STARTCHAR 01CF
ENCODING 463
SWIDTH 225 0
DWIDTH 15 0
BBX 20 42 -2 0
BITMAP
FC07F0
FE07E0
7F0FE0
3F9FC0
1FFF80
1FFF00
0FFF00
07FE00
000000
000000
000000
000000
000000
03FC00
03FC00
03FC00
03FC00
03FC00
03FC00
03FC00
03FC00
03FC00
03FC00
03FC00
03FC00
03FC00
03FC00
03FC00
03FC00
03FC00
03FC00
03FC00
03FC00
03FC00
03FC00
03FC00
03FC00
03FC00
03FC00
03FC00
03FC00
03FC00
ENDCHAR
STARTCHAR 01D0
ENCODING 464
SWIDTH 225 0
DWIDTH 15 0
BBX 20 42 -2 0
BITMAP
FC07F0
FE07E0
7F0FE0
3F9FC0
1FFF80
1FFF00
0FFF00
07FE00
000000
000000
000000
000000
000000
03FC00
03FC00
03FC00
03FC00
03FC00
03FC00
03FC00
03FC00
03FC00
03FC00
03FC00
03FC00
03FC00
03FC00
03FC00
03FC00
03FC00
03FC00
03FC00
03FC00
03FC00
03FC00
03FC00
03FC00
03FC00
03FC00
03FC00
03FC00
03FC00
ENDCHAR
STARTCHAR 01D1
ENCODING 465
SWIDTH 810 0
DWIDTH 54 0
BBX 50 61 2 -1
BITMAP
0001FC07F00000
0000FE0FE00000
00007F1FC00000
00007F1F800000
00003FBF800000
00001FFF000000
00000FFE000000
00000FFE000000
00000000000000
00000000000000
00000000000000
00000000000000
000000F0000000
00007FFF800000
0001FFFFF00000
0007FFFFFC0000
001FFFFFFF0000
003FFFFFFF8000
00FFFFFFFFC000
01FFFFFFFFE000
03FFFC07FFF000
07FFC000FFF800
07FF00003FFC00
0FFE00000FFE00
1FFC000007FE00
1FF8000003FF00
3FF0000001FF00
3FE0000000FF80
3FE0000000FF80
7FC00000007F80
7FC00000007FC0
7F800000007FC0
7F800000003FC0
FF800000003FC0
FF800000003FC0
FF800000003FC0
FF800000003FC0
FF800000003FC0
FF800000003FC0
FF800000003FC0
7F800000003FC0
7F800000007FC0
7FC00000007FC0
7FC00000007FC0
3FE0000000FF80
3FE0000000FF80
3FF0000001FF00
1FF8000003FF00
1FF8000007FE00
0FFE00000FFE00
07FF00001FFC00
07FFC0007FFC00
03FFF003FFF800
01FFFFFFFFF000
00FFFFFFFFE000
007FFFFFFFC000
001FFFFFFF0000
000FFFFFFE0000
0003FFFFF80000
00007FFFC00000
00000FFE000000
ENDCHAR
STARTCHAR 01D2
ENCODING 466
SWIDTH 810 0
DWIDTH 54 0
BBX 50 61 2 -1
BITMAP
0001FC07F00000
0000FE0FE00000
00007F1FC00000
00007F1F800000
00003FBF800000
00001FFF000000
00000FFE000000
00000FFE000000
00000000000000
00000000000000
00000000000000
00000000000000
000000F0000000
00007FFF800000
0001FFFFF00000
0007FFFFFC0000
001FFFFFFF0000
003FFFFFFF8000
00FFFFFFFFC000
01FFFFFFFFE000
03FFFC07FFF000
07FFC000FFF800
07FF00003FFC00
0FFE00000FFE00
1FFC000007FE00
1FF8000003FF00
3FF0000001FF00
3FE0000000FF80
3FE0000000FF80
7FC00000007F80
7FC00000007FC0
7F800000007FC0
7F800000003FC0
FF800000003FC0
FF800000003FC0
FF800000003FC0
FF800000003FC0
FF800000003FC0
FF800000003FC0
FF800000003FC0
7F800000003FC0
7F800000007FC0
7FC00000007FC0
7FC00000007FC0
3FE0000000FF80
3FE0000000FF80
3FF0000001FF00
1FF8000003FF00
1FF8000007FE00
0FFE00000FFE00
07FF00001FFC00
07FFC0007FFC00
03FFF003FFF800
01FFFFFFFFF000
00FFFFFFFFE000
007FFFFFFFC000
001FFFFFFF0000
000FFFFFFE0000
0003FFFFF80000
00007FFFC00000
00000FFE000000
ENDCHAR
STARTCHAR 01D3
ENCODING 467
SWIDTH 525 0
DWIDTH 35 0
BBX 29 61 3 -1
BITMAP
0FE03F80
07F07F00
03F87E00
01FCFE00
01FDFC00
00FFF800
007FF000
003FF000
00000000
00000000
00000000
00000000
00000000
FF0007F8
FF0007F8
FF0007F8
FF0007F8
FF0007F8
FF0007F8
FF0007F8
FF0007F8
FF0007F8
FF0007F8
FF0007F8
FF0007F8
FF0007F8
FF0007F8
FF0007F8
FF0007F8
FF0007F8
FF0007F8
FF0007F8
FF0007F8
FF0007F8
FF0007F8
FF0007F8
FF0007F8
FF0007F8
FF0007F8
FF0007F8
FF0007F8
FF0007F8
FF0007F8
FF0007F8
FF0007F8
FF0007F8
FF0007F8
FF8007F8
FF800FF8
FF800FF8
7FC00FF0
7FC01FF0
7FF03FF0
3FFFFFE0
3FFFFFE0
1FFFFFC0
0FFFFF80
07FFFF00
03FFFE00
00FFF800
001FE000
ENDCHAR
STARTCHAR 01D4
ENCODING 468
SWIDTH 525 0
DWIDTH 35 0
BBX 29 61 3 -1
BITMAP
0FE03F80
07F07F00
03F87E00
01FCFE00
01FDFC00
00FFF800
007FF000
003FF000
00000000
00000000
00000000
00000000
00000000
FF0007F8
FF0007F8
FF0007F8
FF0007F8
FF0007F8
FF0007F8
FF0007F8
FF0007F8
FF0007F8
FF0007F8
FF0007F8
FF0007F8
FF0007F8
FF0007F8
FF0007F8
FF0007F8
FF0007F8
FF0007F8
FF0007F8
FF0007F8
FF0007F8
FF0007F8
FF0007F8
FF0007F8
FF0007F8
FF0007F8
FF0007F8
FF0007F8
FF0007F8
FF0007F8
FF0007F8
FF0007F8
FF0007F8
FF0007F8
FF8007F8
FF800FF8
FF800FF8
7FC00FF0
7FC01FF0
7FF03FF0
3FFFFFE0
3FFFFFE0
1FFFFFC0
0FFFFF80
07FFFF00
03FFFE00
00FFF800
001FE000
ENDCHAR
STARTCHAR 02C6
ENCODING 710
SWIDTH 315 0
DWIDTH 21 0
BBX 21 8 0 51
BITMAP
03FF00
07FF80
0FFF80
0FDFC0
1FCFE0
3F87E0
7F07F0
FE03F8
ENDCHAR
STARTCHAR 02C7
ENCODING 711
SWIDTH 315 0
DWIDTH 21 0
BBX 21 8 0 52
BITMAP
FE03F8
7F03F0
3F87E0
1FCFE0
0FDFC0
0FFF80
07FF80
03FF00
ENDCHAR
STARTCHAR 02D8
ENCODING 728
SWIDTH 285 0
DWIDTH 19 0
BBX 19 8 0 51
BITMAP
F803E0
FC07E0
7C07C0
7F1FC0
3FFF80
1FFF80
0FFE00
07FC00
ENDCHAR
STARTCHAR 02D9
ENCODING 729
SWIDTH 150 0
DWIDTH 10 0
BBX 11 11 0 51
BITMAP
1F00
3FC0
7FC0
7FE0
FFE0
FFE0
FFE0
7FE0
7FC0
3F80
0400
ENDCHAR
STARTCHAR 02DA
ENCODING 730
SWIDTH 195 0
DWIDTH 13 0
BBX 14 13 0 50
BITMAP
0FC0
3FE0
7FF0
7FF8
F878
F03C
F03C
F03C
F078
7CF8
7FF8
3FF0
1FE0
ENDCHAR
STARTCHAR 02DB
ENCODING 731
SWIDTH 210 0
DWIDTH 14 0
BBX 15 14 0 -13
BITMAP
07F0
1F80
3E00
7C00
7800
F800
F800
F000
F810
FC7C
7FFE
7FFC
3FF8
0FE0
ENDCHAR
STARTCHAR 02DC
ENCODING 732
SWIDTH 225 0
DWIDTH 15 0
BBX 16 6 0 53
BITMAP
FF81
FFFF
FFFF
FFFF
FFFF
00FE
ENDCHAR
STARTCHAR 02DD
ENCODING 733
SWIDTH 330 0
DWIDTH 22 0
BBX 22 8 0 51
BITMAP
0FC1FC
0FC1F8
1F83F0
1F03E0
3E07E0
7E07C0
7C0F80
F80F80
ENDCHAR
STARTCHAR 0300
ENCODING 768
SWIDTH 0 0
DWIDTH 0 0
BBX 10 8 -10 51
BITMAP
FC00
FC00
7E00
3F00
1F00
1F80
0F80
07C0
ENDCHAR
STARTCHAR 0301
ENCODING 769
SWIDTH 0 0
DWIDTH 0 0
BBX 10 8 -10 51
BITMAP
1FC0
1F80
3F00
3E00
7E00
7C00
F800
F000
ENDCHAR
STARTCHAR 0302
ENCODING 770
SWIDTH 0 0
DWIDTH 0 0
BBX 21 8 -21 51
BITMAP
07FE00
07FF00
0FFF80
1FFF80
3F9FC0
3F0FE0
7F07F0
FE03F8
ENDCHAR
STARTCHAR 0303
ENCODING 771
SWIDTH 0 0
DWIDTH 0 0
BBX 16 6 -16 53
BITMAP
FF81
FFFF
FFFF
FFFF
FFFF
00FE
ENDCHAR
STARTCHAR 0304
ENCODING 772
SWIDTH 0 0
DWIDTH 0 0
BBX 19 6 -19 52
BITMAP
FFFFE0
FFFFE0
FFFFE0
FFFFE0
FFFFE0
FFFFE0
ENDCHAR
STARTCHAR 0306
ENCODING 774
SWIDTH 0 0
DWIDTH 0 0
BBX 19 8 -19 51
BITMAP
F803E0
FC07E0
7C07C0
7F1FC0
3FFF80
1FFF80
0FFE00
07FC00
ENDCHAR
STARTCHAR 0307
ENCODING 775
SWIDTH 0 0
DWIDTH 0 0
BBX 10 11 -10 51
BITMAP
3E00
7F80
FFC0
FFC0
FFC0
FFC0
FFC0
FFC0
7F80
3F00
0800
ENDCHAR
STARTCHAR 0308
ENCODING 776
SWIDTH 0 0
DWIDTH 0 0
BBX 26 10 -26 50
BITMAP
3F003F00
7F807F80
FFC0FFC0
FFC0FFC0
FFE0FFC0
FFE0FFC0
FFC0FFC0
FFC0FFC0
7F807F80
3F003F00
ENDCHAR
STARTCHAR 0309
ENCODING 777
SWIDTH 0 0
DWIDTH 0 0
BBX 7 12 -7 51
BITMAP
3E
3E
3E
3E
3E
7C
7C
F8
F8
F8
7C
7C
ENDCHAR
STARTCHAR 030A
ENCODING 778
SWIDTH 0 0
DWIDTH 0 0
BBX 14 14 -14 50
BITMAP
0FC0
1FF0
3FF8
7FF8
787C
F03C
F03C
F03C
F83C
7CF8
7FF8
3FF0
1FE0
0300
ENDCHAR
STARTCHAR 030B
ENCODING 779
SWIDTH 0 0
DWIDTH 0 0
BBX 22 8 -22 51
BITMAP
0FC1FC
1F81F8
1F83F0
3F03E0
3E07E0
7E07C0
7C0F80
F80F00
ENDCHAR
STARTCHAR 030C
ENCODING 780
SWIDTH 0 0
DWIDTH 0 0
BBX 21 8 -21 52
BITMAP
FE03F8
7F07F0
3F0FE0
3F9FC0
1FDF80
0FFF80
0FFF00
07FE00
ENDCHAR
STARTCHAR 031B
ENCODING 795
SWIDTH 0 0
DWIDTH 0 0
BBX 9 9 -9 44
BITMAP
0F80
0F80
0F80
0F80
1F00
1F00
FE00
FE00
F800
ENDCHAR
STARTCHAR 0323
ENCODING 803
SWIDTH 0 0
DWIDTH 0 0
BBX 11 10 -11 -18
BITMAP
3F80
7FC0
7FC0
FFE0
FFE0
FFE0
FFE0
7FC0
3FC0
1F00
ENDCHAR
STARTCHAR 0326
ENCODING 806
SWIDTH 0 0
DWIDTH 0 0
BBX 10 11 -10 -15
BITMAP
1FC0
1F80
1F80
3F00
3F00
7E00
7E00
7C00
FC00
F800
F800
ENDCHAR
STARTCHAR 0327
ENCODING 807
SWIDTH 0 0
DWIDTH 0 0
BBX 15 15 -15 -15
BITMAP
01F0
01E0
01E0
01F8
01FC
003C
001E
001E
301E
783E
FFFE
7FFC
3FF8
1FF0
0180
ENDCHAR
STARTCHAR 0328
ENCODING 808
SWIDTH 0 0
DWIDTH 0 0
BBX 15 14 -15 -13
BITMAP
03F0
0FC0
1F00
3E00
7C00
7800
F800
F800
F818
7C7C
7FFE
3FFC
1FF8
07E0
ENDCHAR
STARTCHAR 0335
ENCODING 821
SWIDTH 0 0
DWIDTH 0 0
BBX 22 6 -22 11
BITMAP
FFFFFC
FFFFFC
FFFFFC
FFFFFC
FFFFFC
FFFFFC
ENDCHAR
STARTCHAR 1EA0
ENCODING 7840
SWIDTH 555 0
DWIDTH 37 0
BBX 34 66 3 -18
BITMAP
0007800000
007FF80000
01FFFE0000
03FFFF0000
07FFFF8000
0FFFFFC000
1FFFFFE000
3FFFFFE000
3FF87FF000
7FE01FF000
7FC00FF800
7FC00FF800
7F8007F800
7F8007F800
FF8007FC00
FF8007FC00
FF8007FC00
FF8007FC00
FF8007FC00
FF8007FC00
FF8007FC00
FF8007FC00
FF8007FC00
FF8007FC00
FF8007FC00
FF8007FC00
FF8007FC00
FF8007FC00
FF8007FC00
FF8007FC00
FF8007FC00
FF8007FC00
FF8007FC00
FF8007FC00
FF8007FC00
FF8007FC00
FF8007FC00
FF8007FC00
FF8007FC00
FF8007FC00
FFFFFFFFC0
FFFFFFFFC0
FFFFFFFFC0
FFFFFFFFC0
FFFFFFFFC0
FFFFFFFFC0
FFFFFFFFC0
FFFFFFFFC0
0000000000
0000000000
0000000000
0000000000
0000000000
0000000000
0000000000
0000000000
000FC00000
001FE00000
003FF00000
003FF00000
003FF80000
003FF00000
003FF00000
003FF00000
001FE00000
000FC00000
ENDCHAR
STARTCHAR 1EA1
ENCODING 7841
SWIDTH 555 0
DWIDTH 37 0
BBX 34 66 3 -18
BITMAP
0007800000
007FF80000
01FFFE0000
03FFFF0000
07FFFF8000
0FFFFFC000
1FFFFFE000
3FFFFFE000
3FF87FF000
7FE01FF000
7FC00FF800
7FC00FF800
7F8007F800
7F8007F800
FF8007FC00
FF8007FC00
FF8007FC00
FF8007FC00
FF8007FC00
FF8007FC00
FF8007FC00
FF8007FC00
FF8007FC00
FF8007FC00
FF8007FC00
FF8007FC00
FF8007FC00
FF8007FC00
FF8007FC00
FF8007FC00
FF8007FC00
FF8007FC00
FF8007FC00
FF8007FC00
FF8007FC00
FF8007FC00
FF8007FC00
FF8007FC00
FF8007FC00
FF8007FC00
FFFFFFFFC0
FFFFFFFFC0
FFFFFFFFC0
FFFFFFFFC0
FFFFFFFFC0
FFFFFFFFC0
FFFFFFFFC0
FFFFFFFFC0
0000000000
0000000000
0000000000
0000000000
0000000000
0000000000
0000000000
0000000000
000FC00000
001FE00000
003FF00000
003FF00000
003FF80000
003FF00000
003FF00000
003FF00000
001FE00000
000FC00000
ENDCHAR
STARTCHAR 1EA2
ENCODING 7842
SWIDTH 555 0
DWIDTH 37 0
BBX 34 63 3 0
BITMAP
0007C00000
0007C00000
0007C00000
0007C00000
0007C00000
000F800000
000F800000
000F800000
001F000000
001F800000
000F800000
000F800000
0000000000
0000000000
0000000000
0007800000
007FF80000
01FFFE0000
03FFFF0000
07FFFF8000
0FFFFFC000
1FFFFFE000
3FFFFFE000
3FF87FF000
7FE01FF000
7FC00FF800
7FC00FF800
7F8007F800
7F8007F800
FF8007FC00
FF8007FC00
FF8007FC00
FF8007FC00
FF8007FC00
FF8007FC00
FF8007FC00
FF8007FC00
FF8007FC00
FF8007FC00
FF8007FC00
FF8007FC00
FF8007FC00
FF8007FC00
FF8007FC00
FF8007FC00
FF8007FC00
FF8007FC00
FF8007FC00
FF8007FC00
FF8007FC00
FF8007FC00
FF8007FC00
FF8007FC00
FF8007FC00
FF8007FC00
FFFFFFFFC0
FFFFFFFFC0
FFFFFFFFC0
FFFFFFFFC0
FFFFFFFFC0
FFFFFFFFC0
FFFFFFFFC0
FFFFFFFFC0
ENDCHAR
STARTCHAR 1EA3
ENCODING 7843
SWIDTH 555 0
DWIDTH 37 0
BBX 34 63 3 0
BITMAP
0007C00000
0007C00000
0007C00000
0007C00000
0007C00000
000F800000
000F800000
000F800000
001F000000
001F800000
000F800000
000F800000
0000000000
0000000000
0000000000
0007800000
007FF80000
01FFFE0000
03FFFF0000
07FFFF8000
0FFFFFC000
1FFFFFE000
3FFFFFE000
3FF87FF000
7FE01FF000
7FC00FF800
7FC00FF800
7F8007F800
7F8007F800
FF8007FC00
FF8007FC00
FF8007FC00
FF8007FC00
FF8007FC00
FF8007FC00
FF8007FC00
FF8007FC00
FF8007FC00
FF8007FC00
FF8007FC00
FF8007FC00
FF8007FC00
FF8007FC00
FF8007FC00
FF8007FC00
FF8007FC00
FF8007FC00
FF8007FC00
FF8007FC00
FF8007FC00
FF8007FC00
FF8007FC00
FF8007FC00
FF8007FC00
FF8007FC00
FFFFFFFFC0
FFFFFFFFC0
FFFFFFFFC0
FFFFFFFFC0
FFFFFFFFC0
FFFFFFFFC0
FFFFFFFFC0
FFFFFFFFC0
ENDCHAR
STARTCHAR 1EA4
ENCODING 7844
SWIDTH 555 0
DWIDTH 37 0
BBX 34 66 3 0
BITMAP
0000000FC0
0000001FC0
0000001F80
0000003F00
0000003E00
0000007E00
0000007C00
003FF0F800
007FF8F800
007FF80000
00FFFC0000
01FCFE0000
03F87F0000
03F03F0000
07F03F8000
0000000000
0000000000
0000000000
0007800000
007FF80000
01FFFE0000
03FFFF0000
07FFFF8000
0FFFFFC000
1FFFFFE000
3FFFFFE000
3FF87FF000
7FE01FF000
7FC00FF800
7FC00FF800
7F8007F800
7F8007F800
FF8007FC00
FF8007FC00
FF8007FC00
FF8007FC00
FF8007FC00
FF8007FC00
FF8007FC00
FF8007FC00
FF8007FC00
FF8007FC00
FF8007FC00
FF8007FC00
FF8007FC00
FF8007FC00
FF8007FC00
FF8007FC00
FF8007FC00
FF8007FC00
FF8007FC00
FF8007FC00
FF8007FC00
FF8007FC00
FF8007FC00
FF8007FC00
FF8007FC00
FF8007FC00
FFFFFFFFC0
FFFFFFFFC0
FFFFFFFFC0
FFFFFFFFC0
FFFFFFFFC0
FFFFFFFFC0
FFFFFFFFC0
FFFFFFFFC0
ENDCHAR
STARTCHAR 1EA5
ENCODING 7845
SWIDTH 555 0
DWIDTH 37 0
BBX 34 66 3 0
BITMAP
0000000FC0
0000001FC0
0000001F80
0000003F00
0000003E00
0000007E00
0000007C00
003FF0F800
007FF8F800
007FF80000
00FFFC0000
01FCFE0000
03F87F0000
03F03F0000
07F03F8000
0000000000
0000000000
0000000000
0007800000
007FF80000
01FFFE0000
03FFFF0000
07FFFF8000
0FFFFFC000
1FFFFFE000
3FFFFFE000
3FF87FF000
7FE01FF000
7FC00FF800
7FC00FF800
7F8007F800
7F8007F800
FF8007FC00
FF8007FC00
FF8007FC00
FF8007FC00
FF8007FC00
FF8007FC00
FF8007FC00
FF8007FC00
FF8007FC00
FF8007FC00
FF8007FC00
FF8007FC00
FF8007FC00
FF8007FC00
FF8007FC00
FF8007FC00
FF8007FC00
FF8007FC00
FF8007FC00
FF8007FC00
FF8007FC00
FF8007FC00
FF8007FC00
FF8007FC00
FF8007FC00
FF8007FC00
FFFFFFFFC0
FFFFFFFFC0
FFFFFFFFC0
FFFFFFFFC0
FFFFFFFFC0
FFFFFFFFC0
FFFFFFFFC0
FFFFFFFFC0
ENDCHAR
STARTCHAR 1EA6
ENCODING 7846
SWIDTH 555 0
DWIDTH 37 0
BBX 40 66 -3 0
BITMAP
FC00000000
7E00000000
7E00000000
3F00000000
1F00000000
0F80000000
0F80000000
07C0FFC000
03C1FFE000
0003FFE000
0003FFF000
0007F3F800
000FE1FC00
000FC0FC00
001F80FE00
0000000000
0000000000
0000000000
00001E0000
0001FFE000
0007FFF800
000FFFFC00
001FFFFE00
003FFFFF00
007FFFFF80
00FFFFFF80
00FFE1FFC0
01FF807FC0
01FF003FE0
01FF003FE0
01FE001FE0
01FE001FE0
03FE001FF0
03FE001FF0
03FE001FF0
03FE001FF0
03FE001FF0
03FE001FF0
03FE001FF0
03FE001FF0
03FE001FF0
03FE001FF0
03FE001FF0
03FE001FF0
03FE001FF0
03FE001FF0
03FE001FF0
03FE001FF0
03FE001FF0
03FE001FF0
03FE001FF0
03FE001FF0
03FE001FF0
03FE001FF0
03FE001FF0
03FE001FF0
03FE001FF0
03FE001FF0
03FFFFFFFF
03FFFFFFFF
03FFFFFFFF
03FFFFFFFF
03FFFFFFFF
03FFFFFFFF
03FFFFFFFF
03FFFFFFFF
ENDCHAR
STARTCHAR 1EA7
ENCODING 7847
SWIDTH 555 0
DWIDTH 37 0
BBX 40 66 -3 0
BITMAP
FC00000000
7E00000000
7E00000000
3F00000000
1F00000000
0F80000000
0F80000000
07C0FFC000
03C1FFE000
0003FFE000
0003FFF000
0007F3F800
000FE1FC00
000FC0FC00
001F80FE00
0000000000
0000000000
0000000000
00001E0000
0001FFE000
0007FFF800
000FFFFC00
001FFFFE00
003FFFFF00
007FFFFF80
00FFFFFF80
00FFE1FFC0
01FF807FC0
01FF003FE0
01FF003FE0
01FE001FE0
01FE001FE0
03FE001FF0
03FE001FF0
03FE001FF0
03FE001FF0
03FE001FF0
03FE001FF0
03FE001FF0
03FE001FF0
03FE001FF0
03FE001FF0
03FE001FF0
03FE001FF0
03FE001FF0
03FE001FF0
03FE001FF0
03FE001FF0
03FE001FF0
03FE001FF0
03FE001FF0
03FE001FF0
03FE001FF0
03FE001FF0
03FE001FF0
03FE001FF0
03FE001FF0
03FE001FF0
03FFFFFFFF
03FFFFFFFF
03FFFFFFFF
03FFFFFFFF
03FFFFFFFF
03FFFFFFFF
03FFFFFFFF
03FFFFFFFF
ENDCHAR
STARTCHAR 1EA8
ENCODING 7848
SWIDTH 555 0
DWIDTH 37 0
BBX 34 69 3 0
BITMAP
000000F800
0000007C00
0000007C00
0000007C00
0000007C00
000000F800
000000F800
000000F800
000001F000
000001F000
003FF1F000
007FF8F800
007FF8F800
00FFFC0000
01FCFE0000
03F87F0000
03F03F0000
07F03F8000
0000000000
0000000000
0000000000
0007800000
007FF80000
01FFFE0000
03FFFF0000
07FFFF8000
0FFFFFC000
1FFFFFE000
3FFFFFE000
3FF87FF000
7FE01FF000
7FC00FF800
7FC00FF800
7F8007F800
7F8007F800
FF8007FC00
FF8007FC00
FF8007FC00
FF8007FC00
FF8007FC00
FF8007FC00
FF8007FC00
FF8007FC00
FF8007FC00
FF8007FC00
FF8007FC00
FF8007FC00
FF8007FC00
FF8007FC00
FF8007FC00
FF8007FC00
FF8007FC00
FF8007FC00
FF8007FC00
FF8007FC00
FF8007FC00
FF8007FC00
FF8007FC00
FF8007FC00
FF8007FC00
FF8007FC00
FFFFFFFFC0
FFFFFFFFC0
FFFFFFFFC0
FFFFFFFFC0
FFFFFFFFC0
FFFFFFFFC0
FFFFFFFFC0
FFFFFFFFC0
ENDCHAR
STARTCHAR 1EA9
ENCODING 7849
SWIDTH 555 0
DWIDTH 37 0
BBX 34 69 3 0
BITMAP
000000F800
0000007C00
0000007C00
0000007C00
0000007C00
000000F800
000000F800
000000F800
000001F000
000001F000
003FF1F000
007FF8F800
007FF8F800
00FFFC0000
01FCFE0000
03F87F0000
03F03F0000
07F03F8000
0000000000
0000000000
0000000000
0007800000
007FF80000
01FFFE0000
03FFFF0000
07FFFF8000
0FFFFFC000
1FFFFFE000
3FFFFFE000
3FF87FF000
7FE01FF000
7FC00FF800
7FC00FF800
7F8007F800
7F8007F800
FF8007FC00
FF8007FC00
FF8007FC00
FF8007FC00
FF8007FC00
FF8007FC00
FF8007FC00
FF8007FC00
FF8007FC00
FF8007FC00
FF8007FC00
FF8007FC00
FF8007FC00
FF8007FC00
FF8007FC00
FF8007FC00
FF8007FC00
FF8007FC00
FF8007FC00
FF8007FC00
FF8007FC00
FF8007FC00
FF8007FC00
FF8007FC00
FF8007FC00
FF8007FC00
FFFFFFFFC0
FFFFFFFFC0
FFFFFFFFC0
FFFFFFFFC0
FFFFFFFFC0
FFFFFFFFC0
FFFFFFFFC0
FFFFFFFFC0
ENDCHAR
STARTCHAR 1EAA
ENCODING 7850
SWIDTH 555 0
DWIDTH 37 0
BBX 34 68 3 0
BITMAP
0000200000
0003FE0400
0003FFFC00
0003FFFC00
0003FFFC00
0003FFFC00
000001FC00
0000000000
0000000000
003FF00000
007FF80000
007FF80000
00FFFC0000
01FCFE0000
03F87F0000
03F03F0000
07F03F8000
0000000000
0000000000
0000000000
0007800000
007FF80000
01FFFE0000
03FFFF0000
07FFFF8000
0FFFFFC000
1FFFFFE000
3FFFFFE000
3FF87FF000
7FE01FF000
7FC00FF800
7FC00FF800
7F8007F800
7F8007F800
FF8007FC00
FF8007FC00
FF8007FC00
FF8007FC00
FF8007FC00
FF8007FC00
FF8007FC00
FF8007FC00
FF8007FC00
FF8007FC00
FF8007FC00
FF8007FC00
FF8007FC00
FF8007FC00
FF8007FC00
FF8007FC00
FF8007FC00
FF8007FC00
FF8007FC00
FF8007FC00
FF8007FC00
FF8007FC00
FF8007FC00
FF8007FC00
FF8007FC00
FF8007FC00
FFFFFFFFC0
FFFFFFFFC0
FFFFFFFFC0
FFFFFFFFC0
FFFFFFFFC0
FFFFFFFFC0
FFFFFFFFC0
FFFFFFFFC0
ENDCHAR
STARTCHAR 1EAB
ENCODING 7851
SWIDTH 555 0
DWIDTH 37 0
BBX 34 68 3 0
BITMAP
0000200000
0003FE0400
0003FFFC00
0003FFFC00
0003FFFC00
0003FFFC00
000001FC00
0000000000
0000000000
003FF00000
007FF80000
007FF80000
00FFFC0000
01FCFE0000
03F87F0000
03F03F0000
07F03F8000
0000000000
0000000000
0000000000
0007800000
007FF80000
01FFFE0000
03FFFF0000
07FFFF8000
0FFFFFC000
1FFFFFE000
3FFFFFE000
3FF87FF000
7FE01FF000
7FC00FF800
7FC00FF800
7F8007F800
7F8007F800
FF8007FC00
FF8007FC00
FF8007FC00
FF8007FC00
FF8007FC00
FF8007FC00
FF8007FC00
FF8007FC00
FF8007FC00
FF8007FC00
FF8007FC00
FF8007FC00
FF8007FC00
FF8007FC00
FF8007FC00
FF8007FC00
FF8007FC00
FF8007FC00
FF8007FC00
FF8007FC00
FF8007FC00
FF8007FC00
FF8007FC00
FF8007FC00
FF8007FC00
FF8007FC00
FFFFFFFFC0
FFFFFFFFC0
FFFFFFFFC0
FFFFFFFFC0
FFFFFFFFC0
FFFFFFFFC0
FFFFFFFFC0
FFFFFFFFC0
ENDCHAR
STARTCHAR 1EAC
ENCODING 7852
SWIDTH 555 0
DWIDTH 37 0
BBX 34 77 3 -18
BITMAP
003FF00000
007FF80000
007FF80000
00FFFC0000
01FCFE0000
03F87F0000
03F03F0000
07F03F8000
0000000000
0000000000
0000000000
0007800000
007FF80000
01FFFE0000
03FFFF0000
07FFFF8000
0FFFFFC000
1FFFFFE000
3FFFFFE000
3FF87FF000
7FE01FF000
7FC00FF800
7FC00FF800
7F8007F800
7F8007F800
FF8007FC00
FF8007FC00
FF8007FC00
FF8007FC00
FF8007FC00
FF8007FC00
FF8007FC00
FF8007FC00
FF8007FC00
FF8007FC00
FF8007FC00
FF8007FC00
FF8007FC00
FF8007FC00
FF8007FC00
FF8007FC00
FF8007FC00
FF8007FC00
FF8007FC00
FF8007FC00
FF8007FC00
FF8007FC00
FF8007FC00
FF8007FC00
FF8007FC00
FF8007FC00
FFFFFFFFC0
FFFFFFFFC0
FFFFFFFFC0
FFFFFFFFC0
FFFFFFFFC0
FFFFFFFFC0
FFFFFFFFC0
FFFFFFFFC0
0000000000
0000000000
0000000000
0000000000
0000000000
0000000000
0000000000
0000000000
000FC00000
001FE00000
003FF00000
003FF00000
003FF80000
003FF00000
003FF00000
003FF00000
001FE00000
000FC00000
ENDCHAR
STARTCHAR 1EAD
ENCODING 7853
SWIDTH 555 0
DWIDTH 37 0
BBX 34 77 3 -18
BITMAP
003FF00000
007FF80000
007FF80000
00FFFC0000
01FCFE0000
03F87F0000
03F03F0000
07F03F8000
0000000000
0000000000
0000000000
0007800000
007FF80000
01FFFE0000
03FFFF0000
07FFFF8000
0FFFFFC000
1FFFFFE000
3FFFFFE000
3FF87FF000
7FE01FF000
7FC00FF800
7FC00FF800
7F8007F800
7F8007F800
FF8007FC00
FF8007FC00
FF8007FC00
FF8007FC00
FF8007FC00
FF8007FC00
FF8007FC00
FF8007FC00
FF8007FC00
FF8007FC00
FF8007FC00
FF8007FC00
FF8007FC00
FF8007FC00
FF8007FC00
FF8007FC00
FF8007FC00
FF8007FC00
FF8007FC00
FF8007FC00
FF8007FC00
FF8007FC00
FF8007FC00
FF8007FC00
FF8007FC00
FF8007FC00
FFFFFFFFC0
FFFFFFFFC0
FFFFFFFFC0
FFFFFFFFC0
FFFFFFFFC0
FFFFFFFFC0
FFFFFFFFC0
FFFFFFFFC0
0000000000
0000000000
0000000000
0000000000
0000000000
0000000000
0000000000
0000000000
000FC00000
001FE00000
003FF00000
003FF00000
003FF80000
003FF00000
003FF00000
003FF00000
001FE00000
000FC00000
ENDCHAR
STARTCHAR 1EAE
ENCODING 7854
SWIDTH 555 0
DWIDTH 37 0
BBX 34 69 3 0
BITMAP
00007E0000
00007E0000
0000FC0000
0000F80000
0001F80000
0003F00000
0003E00000
0007C00000
0007C00000
0000000000
07E01F0000
03E01F0000
03F03F0000
03F8FE0000
01FFFE0000
00FFFC0000
007FF80000
001FE00000
0000000000
0000000000
0000000000
0007800000
007FF80000
01FFFE0000
03FFFF0000
07FFFF8000
0FFFFFC000
1FFFFFE000
3FFFFFE000
3FF87FF000
7FE01FF000
7FC00FF800
7FC00FF800
7F8007F800
7F8007F800
FF8007FC00
FF8007FC00
FF8007FC00
FF8007FC00
FF8007FC00
FF8007FC00
FF8007FC00
FF8007FC00
FF8007FC00
FF8007FC00
FF8007FC00
FF8007FC00
FF8007FC00
FF8007FC00
FF8007FC00
FF8007FC00
FF8007FC00
FF8007FC00
FF8007FC00
FF8007FC00
FF8007FC00
FF8007FC00
FF8007FC00
FF8007FC00
FF8007FC00
FF8007FC00
FFFFFFFFC0
FFFFFFFFC0
FFFFFFFFC0
FFFFFFFFC0
FFFFFFFFC0
FFFFFFFFC0
FFFFFFFFC0
FFFFFFFFC0
ENDCHAR
STARTCHAR 1EAF
ENCODING 7855
SWIDTH 555 0
DWIDTH 37 0
BBX 34 69 3 0
BITMAP
00007E0000
00007E0000
0000FC0000
0000F80000
0001F80000
0003F00000
0003E00000
0007C00000
0007C00000
0000000000
07E01F0000
03E01F0000
03F03F0000
03F8FE0000
01FFFE0000
00FFFC0000
007FF80000
001FE00000
0000000000
0000000000
0000000000
0007800000
007FF80000
01FFFE0000
03FFFF0000
07FFFF8000
0FFFFFC000
1FFFFFE000
3FFFFFE000
3FF87FF000
7FE01FF000
7FC00FF800
7FC00FF800
7F8007F800
7F8007F800
FF8007FC00
FF8007FC00
FF8007FC00
FF8007FC00
FF8007FC00
FF8007FC00
FF8007FC00
FF8007FC00
FF8007FC00
FF8007FC00
FF8007FC00
FF8007FC00
FF8007FC00
FF8007FC00
FF8007FC00
FF8007FC00
FF8007FC00
FF8007FC00
FF8007FC00
FF8007FC00
FF8007FC00
FF8007FC00
FF8007FC00
FF8007FC00
FF8007FC00
FF8007FC00
FFFFFFFFC0
FFFFFFFFC0
FFFFFFFFC0
FFFFFFFFC0
FFFFFFFFC0
FFFFFFFFC0
FFFFFFFFC0
FFFFFFFFC0
ENDCHAR
STARTCHAR 1EB0
ENCODING 7856
SWIDTH 555 0
DWIDTH 37 0
BBX 34 68 3 0
BITMAP
03F8000000
01F8000000
00FC000000
007C000000
007E000000
003E000000
001F000000
000F000000
0000000000
07E01F0000
03E01F0000
03F03F0000
03F8FE0000
01FFFE0000
00FFFC0000
007FF80000
001FE00000
0000000000
0000000000
0000000000
0007800000
007FF80000
01FFFE0000
03FFFF0000
07FFFF8000
0FFFFFC000
1FFFFFE000
3FFFFFE000
3FF87FF000
7FE01FF000
7FC00FF800
7FC00FF800
7F8007F800
7F8007F800
FF8007FC00
FF8007FC00
FF8007FC00
FF8007FC00
FF8007FC00
FF8007FC00
FF8007FC00
FF8007FC00
FF8007FC00
FF8007FC00
FF8007FC00
FF8007FC00
FF8007FC00
FF8007FC00
FF8007FC00
FF8007FC00
FF8007FC00
FF8007FC00
FF8007FC00
FF8007FC00
FF8007FC00
FF8007FC00
FF8007FC00
FF8007FC00
FF8007FC00
FF8007FC00
FFFFFFFFC0
FFFFFFFFC0
FFFFFFFFC0
FFFFFFFFC0
FFFFFFFFC0
FFFFFFFFC0
FFFFFFFFC0
FFFFFFFFC0
ENDCHAR
STARTCHAR 1EB1
ENCODING 7857
SWIDTH 555 0
DWIDTH 37 0
BBX 34 68 3 0
BITMAP
03F8000000
01F8000000
00FC000000
007C000000
007E000000
003E000000
001F000000
000F000000
0000000000
07E01F0000
03E01F0000
03F03F0000
03F8FE0000
01FFFE0000
00FFFC0000
007FF80000
001FE00000
0000000000
0000000000
0000000000
0007800000
007FF80000
01FFFE0000
03FFFF0000
07FFFF8000
0FFFFFC000
1FFFFFE000
3FFFFFE000
3FF87FF000
7FE01FF000
7FC00FF800
7FC00FF800
7F8007F800
7F8007F800
FF8007FC00
FF8007FC00
FF8007FC00
FF8007FC00
FF8007FC00
FF8007FC00
FF8007FC00
FF8007FC00
FF8007FC00
FF8007FC00
FF8007FC00
FF8007FC00
FF8007FC00
FF8007FC00
FF8007FC00
FF8007FC00
FF8007FC00
FF8007FC00
FF8007FC00
FF8007FC00
FF8007FC00
FF8007FC00
FF8007FC00
FF8007FC00
FF8007FC00
FF8007FC00
FFFFFFFFC0
FFFFFFFFC0
FFFFFFFFC0
FFFFFFFFC0
FFFFFFFFC0
FFFFFFFFC0
FFFFFFFFC0
FFFFFFFFC0
ENDCHAR
STARTCHAR 1EB2
ENCODING 7858
SWIDTH 555 0
DWIDTH 37 0
BBX 34 71 3 0
BITMAP
0007C00000
0007E00000
0003E00000
0003E00000
0007C00000
0007C00000
0007C00000
000F800000
000F800000
000F800000
000F800000
000F800000
07E7DF0000
03E01F0000
03F03F0000
03F8FE0000
01FFFE0000
00FFFC0000
007FF80000
001FE00000
0000000000
0000000000
0000000000
0007800000
007FF80000
01FFFE0000
03FFFF0000
07FFFF8000
0FFFFFC000
1FFFFFE000
3FFFFFE000
3FF87FF000
7FE01FF000
7FC00FF800
7FC00FF800
7F8007F800
7F8007F800
FF8007FC00
FF8007FC00
FF8007FC00
FF8007FC00
FF8007FC00
FF8007FC00
FF8007FC00
FF8007FC00
FF8007FC00
FF8007FC00
FF8007FC00
FF8007FC00
FF8007FC00
FF8007FC00
FF8007FC00
FF8007FC00
FF8007FC00
FF8007FC00
FF8007FC00
FF8007FC00
FF8007FC00
FF8007FC00
FF8007FC00
FF8007FC00
FF8007FC00
FF8007FC00
FFFFFFFFC0
FFFFFFFFC0
FFFFFFFFC0
FFFFFFFFC0
FFFFFFFFC0
FFFFFFFFC0
FFFFFFFFC0
FFFFFFFFC0
ENDCHAR
STARTCHAR 1EB3
ENCODING 7859
SWIDTH 555 0
DWIDTH 37 0
BBX 34 71 3 0
BITMAP
0007C00000
0007E00000
0003E00000
0003E00000
0007C00000
0007C00000
0007C00000
000F800000
000F800000
000F800000
000F800000
000F800000
07E7DF0000
03E01F0000
03F03F0000
03F8FE0000
01FFFE0000
00FFFC0000
007FF80000
001FE00000
0000000000
0000000000
0000000000
0007800000
007FF80000
01FFFE0000
03FFFF0000
07FFFF8000
0FFFFFC000
1FFFFFE000
3FFFFFE000
3FF87FF000
7FE01FF000
7FC00FF800
7FC00FF800
7F8007F800
7F8007F800
FF8007FC00
FF8007FC00
FF8007FC00
FF8007FC00
FF8007FC00
FF8007FC00
FF8007FC00
FF8007FC00
FF8007FC00
FF8007FC00
FF8007FC00
FF8007FC00
FF8007FC00
FF8007FC00
FF8007FC00
FF8007FC00
FF8007FC00
FF8007FC00
FF8007FC00
FF8007FC00
FF8007FC00
FF8007FC00
FF8007FC00
FF8007FC00
FF8007FC00
FF8007FC00
FFFFFFFFC0
FFFFFFFFC0
FFFFFFFFC0
FFFFFFFFC0
FFFFFFFFC0
FFFFFFFFC0
FFFFFFFFC0
FFFFFFFFC0
ENDCHAR
STARTCHAR 1EB4
ENCODING 7860
SWIDTH 555 0
DWIDTH 37 0
BBX 34 68 3 0
BITMAP
00FC000000
01FFFE0000
01FFFE0000
01FFFE0000
01FFFE0000
0103FE0000
0000300000
0000000000
0000000000
07E01F0000
03E01F0000
03F03F0000
03F8FE0000
01FFFE0000
00FFFC0000
007FF80000
001FE00000
0000000000
0000000000
0000000000
0007800000
007FF80000
01FFFE0000
03FFFF0000
07FFFF8000
0FFFFFC000
1FFFFFE000
3FFFFFE000
3FF87FF000
7FE01FF000
7FC00FF800
7FC00FF800
7F8007F800
7F8007F800
FF8007FC00
FF8007FC00
FF8007FC00
FF8007FC00
FF8007FC00
FF8007FC00
FF8007FC00
FF8007FC00
FF8007FC00
FF8007FC00
FF8007FC00
FF8007FC00
FF8007FC00
FF8007FC00
FF8007FC00
FF8007FC00
FF8007FC00
FF8007FC00
FF8007FC00
FF8007FC00
FF8007FC00
FF8007FC00
FF8007FC00
FF8007FC00
FF8007FC00
FF8007FC00
FFFFFFFFC0
FFFFFFFFC0
FFFFFFFFC0
FFFFFFFFC0
FFFFFFFFC0
FFFFFFFFC0
FFFFFFFFC0
FFFFFFFFC0
ENDCHAR
STARTCHAR 1EB5
ENCODING 7861
SWIDTH 555 0
DWIDTH 37 0
BBX 34 68 3 0
BITMAP
00FC000000
01FFFE0000
01FFFE0000
01FFFE0000
01FFFE0000
0103FE0000
0000300000
0000000000
0000000000
07E01F0000
03E01F0000
03F03F0000
03F8FE0000
01FFFE0000
00FFFC0000
007FF80000
001FE00000
0000000000
0000000000
0000000000
0007800000
007FF80000
01FFFE0000
03FFFF0000
07FFFF8000
0FFFFFC000
1FFFFFE000
3FFFFFE000
3FF87FF000
7FE01FF000
7FC00FF800
7FC00FF800
7F8007F800
7F8007F800
FF8007FC00
FF8007FC00
FF8007FC00
FF8007FC00
FF8007FC00
FF8007FC00
FF8007FC00
FF8007FC00
FF8007FC00
FF8007FC00
FF8007FC00
FF8007FC00
FF8007FC00
FF8007FC00
FF8007FC00
FF8007FC00
FF8007FC00
FF8007FC00
FF8007FC00
FF8007FC00
FF8007FC00
FF8007FC00
FF8007FC00
FF8007FC00
FF8007FC00
FF8007FC00
FFFFFFFFC0
FFFFFFFFC0
FFFFFFFFC0
FFFFFFFFC0
FFFFFFFFC0
FFFFFFFFC0
FFFFFFFFC0
FFFFFFFFC0
ENDCHAR
STARTCHAR 1EB6
ENCODING 7862
SWIDTH 555 0
DWIDTH 37 0
BBX 34 77 3 -18
BITMAP
07E01F0000
03E01F0000
03F03F0000
03F8FE0000
01FFFE0000
00FFFC0000
007FF80000
001FE00000
0000000000
0000000000
0000000000
0007800000
007FF80000
01FFFE0000
03FFFF0000
07FFFF8000
0FFFFFC000
1FFFFFE000
3FFFFFE000
3FF87FF000
7FE01FF000
7FC00FF800
7FC00FF800
7F8007F800
7F8007F800
FF8007FC00
FF8007FC00
FF8007FC00
FF8007FC00
FF8007FC00
FF8007FC00
FF8007FC00
FF8007FC00
FF8007FC00
FF8007FC00
FF8007FC00
FF8007FC00
FF8007FC00
FF8007FC00
FF8007FC00
FF8007FC00
FF8007FC00
FF8007FC00
FF8007FC00
FF8007FC00
FF8007FC00
FF8007FC00
FF8007FC00
FF8007FC00
FF8007FC00
FF8007FC00
FFFFFFFFC0
FFFFFFFFC0
FFFFFFFFC0
FFFFFFFFC0
FFFFFFFFC0
FFFFFFFFC0
FFFFFFFFC0
FFFFFFFFC0
0000000000
0000000000
0000000000
0000000000
0000000000
0000000000
0000000000
0000000000
000FC00000
001FE00000
003FF00000
003FF00000
003FF80000
003FF00000
003FF00000
003FF00000
001FE00000
000FC00000
ENDCHAR
STARTCHAR 1EB7
ENCODING 7863
SWIDTH 555 0
DWIDTH 37 0
BBX 34 77 3 -18
BITMAP
07E01F0000
03E01F0000
03F03F0000
03F8FE0000
01FFFE0000
00FFFC0000
007FF80000
001FE00000
0000000000
0000000000
0000000000
0007800000
007FF80000
01FFFE0000
03FFFF0000
07FFFF8000
0FFFFFC000
1FFFFFE000
3FFFFFE000
3FF87FF000
7FE01FF000
7FC00FF800
7FC00FF800
7F8007F800
7F8007F800
FF8007FC00
FF8007FC00
FF8007FC00
FF8007FC00
FF8007FC00
FF8007FC00
FF8007FC00
FF8007FC00
FF8007FC00
FF8007FC00
FF8007FC00
FF8007FC00
FF8007FC00
FF8007FC00
FF8007FC00
FF8007FC00
FF8007FC00
FF8007FC00
FF8007FC00
FF8007FC00
FF8007FC00
FF8007FC00
FF8007FC00
FF8007FC00
FF8007FC00
FF8007FC00
FFFFFFFFC0
FFFFFFFFC0
FFFFFFFFC0
FFFFFFFFC0
FFFFFFFFC0
FFFFFFFFC0
FFFFFFFFC0
FFFFFFFFC0
0000000000
0000000000
0000000000
0000000000
0000000000
0000000000
0000000000
0000000000
000FC00000
001FE00000
003FF00000
003FF00000
003FF80000
003FF00000
003FF00000
003FF00000
001FE00000
000FC00000
ENDCHAR
STARTCHAR 1EB8
ENCODING 7864
SWIDTH 510 0
DWIDTH 34 0
BBX 32 65 2 -18
BITMAP
0FFFFF00
0FFFFF00
0FFFFF00
0FFFFF00
0FFFFF00
0FFFFF00
0FFFFF00
0FFFFF00
0FF00000
0FF00000
0FF00000
0FF00000
0FF00000
0FF00000
0FF00000
0FF00000
0FF00000
0FF00000
0FF00000
0FF00000
FFFFFFC0
FFFFFFC0
FFFFFFC0
FFFFFFC0
FFFFFFC0
FFFFFFC0
FFFFFFC0
0FF00000
0FF00000
0FF00000
0FF00000
0FF00000
0FF00000
0FF00000
0FF00000
0FF00000
0FF00000
0FF00000
0FF00000
0FFFFFFF
0FFFFFFF
0FFFFFFF
0FFFFFFF
0FFFFFFF
0FFFFFFF
0FFFFFFF
0FFFFFFF
00000000
00000000
00000000
00000000
00000000
00000000
00000000
00000000
0001F800
0003FE00
0007FE00
0007FF00
0007FF00
0007FF00
0007FE00
0003FE00
0003FC00
0000F800
ENDCHAR
STARTCHAR 1EB9
ENCODING 7865
SWIDTH 510 0
DWIDTH 34 0
BBX 32 65 2 -18
BITMAP
0FFFFF00
0FFFFF00
0FFFFF00
0FFFFF00
0FFFFF00
0FFFFF00
0FFFFF00
0FFFFF00
0FF00000
0FF00000
0FF00000
0FF00000
0FF00000
0FF00000
0FF00000
0FF00000
0FF00000
0FF00000
0FF00000
0FF00000
FFFFFFC0
FFFFFFC0
FFFFFFC0
FFFFFFC0
FFFFFFC0
FFFFFFC0
FFFFFFC0
0FF00000
0FF00000
0FF00000
0FF00000
0FF00000
0FF00000
0FF00000
0FF00000
0FF00000
0FF00000
0FF00000
0FF00000
0FFFFFFF
0FFFFFFF
0FFFFFFF
0FFFFFFF
0FFFFFFF
0FFFFFFF
0FFFFFFF
0FFFFFFF
00000000
00000000
00000000
00000000
00000000
00000000
00000000
00000000
0001F800
0003FE00
0007FE00
0007FF00
0007FF00
0007FF00
0007FE00
0003FE00
0003FC00
0000F800
ENDCHAR
STARTCHAR 1EBA
ENCODING 7866
SWIDTH 510 0
DWIDTH 34 0
BBX 32 63 2 0
BITMAP
001F0000
000F8000
000F8000
000F8000
000F8000
001F0000
001F0000
003E0000
003E0000
003E0000
003E0000
001F0000
00000000
00000000
00000000
00000000
0FFFFF00
0FFFFF00
0FFFFF00
0FFFFF00
0FFFFF00
0FFFFF00
0FFFFF00
0FFFFF00
0FF00000
0FF00000
0FF00000
0FF00000
0FF00000
0FF00000
0FF00000
0FF00000
0FF00000
0FF00000
0FF00000
0FF00000
FFFFFFC0
FFFFFFC0
FFFFFFC0
FFFFFFC0
FFFFFFC0
FFFFFFC0
FFFFFFC0
0FF00000
0FF00000
0FF00000
0FF00000
0FF00000
0FF00000
0FF00000
0FF00000
0FF00000
0FF00000
0FF00000
0FF00000
0FFFFFFF
0FFFFFFF
0FFFFFFF
0FFFFFFF
0FFFFFFF
0FFFFFFF
0FFFFFFF
0FFFFFFF
ENDCHAR
STARTCHAR 1EBB
ENCODING 7867
SWIDTH 510 0
DWIDTH 34 0
BBX 32 63 2 0
BITMAP
001F0000
000F8000
000F8000
000F8000
000F8000
001F0000
001F0000
003E0000
003E0000
003E0000
003E0000
001F0000
00000000
00000000
00000000
00000000
0FFFFF00
0FFFFF00
0FFFFF00
0FFFFF00
0FFFFF00
0FFFFF00
0FFFFF00
0FFFFF00
0FF00000
0FF00000
0FF00000
0FF00000
0FF00000
0FF00000
0FF00000
0FF00000
0FF00000
0FF00000
0FF00000
0FF00000
FFFFFFC0
FFFFFFC0
FFFFFFC0
FFFFFFC0
FFFFFFC0
FFFFFFC0
FFFFFFC0
0FF00000
0FF00000
0FF00000
0FF00000
0FF00000
0FF00000
0FF00000
0FF00000
0FF00000
0FF00000
0FF00000
0FF00000
0FFFFFFF
0FFFFFFF
0FFFFFFF
0FFFFFFF
0FFFFFFF
0FFFFFFF
0FFFFFFF
0FFFFFFF
ENDCHAR
STARTCHAR 1EBC
ENCODING 7868
SWIDTH 510 0
DWIDTH 34 0
BBX 32 59 2 0
BITMAP
07F80800
07FFF800
07FFF800
07FFF800
07FFF800
0007F000
00000000
00000000
00000000
00000000
00000000
00000000
0FFFFF00
0FFFFF00
0FFFFF00
0FFFFF00
0FFFFF00
0FFFFF00
0FFFFF00
0FFFFF00
0FF00000
0FF00000
0FF00000
0FF00000
0FF00000
0FF00000
0FF00000
0FF00000
0FF00000
0FF00000
0FF00000
0FF00000
FFFFFFC0
FFFFFFC0
FFFFFFC0
FFFFFFC0
FFFFFFC0
FFFFFFC0
FFFFFFC0
0FF00000
0FF00000
0FF00000
0FF00000
0FF00000
0FF00000
0FF00000
0FF00000
0FF00000
0FF00000
0FF00000
0FF00000
0FFFFFFF
0FFFFFFF
0FFFFFFF
0FFFFFFF
0FFFFFFF
0FFFFFFF
0FFFFFFF
0FFFFFFF
ENDCHAR
STARTCHAR 1EBD
ENCODING 7869
SWIDTH 510 0
DWIDTH 34 0
BBX 32 59 2 0
BITMAP
07F80800
07FFF800
07FFF800
07FFF800
07FFF800
0007F000
00000000
00000000
00000000
00000000
00000000
00000000
0FFFFF00
0FFFFF00
0FFFFF00
0FFFFF00
0FFFFF00
0FFFFF00
0FFFFF00
0FFFFF00
0FF00000
0FF00000
0FF00000
0FF00000
0FF00000
0FF00000
0FF00000
0FF00000
0FF00000
0FF00000
0FF00000
0FF00000
FFFFFFC0
FFFFFFC0
FFFFFFC0
FFFFFFC0
FFFFFFC0
FFFFFFC0
FFFFFFC0
0FF00000
0FF00000
0FF00000
0FF00000
0FF00000
0FF00000
0FF00000
0FF00000
0FF00000
0FF00000
0FF00000
0FF00000
0FFFFFFF
0FFFFFFF
0FFFFFFF
0FFFFFFF
0FFFFFFF
0FFFFFFF
0FFFFFFF
0FFFFFFF
ENDCHAR
STARTCHAR 1EBE
ENCODING 7870
SWIDTH 510 0
DWIDTH 34 0
BBX 33 66 2 0
BITMAP
0000001F80
0000003F00
0000003F00
0000007E00
0000007C00
000000F800
000000F800
007FE1F000
00FFF1E000
01FFF00000
01FBF80000
03F9FC0000
07F0FC0000
0FE0FE0000
0FC07F0000
1000000000
0000000000
0000000000
0000000000
0FFFFF0000
0FFFFF0000
0FFFFF0000
0FFFFF0000
0FFFFF0000
0FFFFF0000
0FFFFF0000
0FFFFF0000
0FF0000000
0FF0000000
0FF0000000
0FF0000000
0FF0000000
0FF0000000
0FF0000000
0FF0000000
0FF0000000
0FF0000000
0FF0000000
0FF0000000
FFFFFFC000
FFFFFFC000
FFFFFFC000
FFFFFFC000
FFFFFFC000
FFFFFFC000
FFFFFFC000
0FF0000000
0FF0000000
0FF0000000
0FF0000000
0FF0000000
0FF0000000
0FF0000000
0FF0000000
0FF0000000
0FF0000000
0FF0000000
0FF0000000
0FFFFFFF00
0FFFFFFF00
0FFFFFFF00
0FFFFFFF00
0FFFFFFF00
0FFFFFFF00
0FFFFFFF00
0FFFFFFF00
ENDCHAR
STARTCHAR 1EBF
ENCODING 7871
SWIDTH 510 0
DWIDTH 34 0
BBX 33 66 2 0
BITMAP
0000001F80
0000003F00
0000003F00
0000007E00
0000007C00
000000F800
000000F800
007FE1F000
00FFF1E000
01FFF00000
01FBF80000
03F9FC0000
07F0FC0000
0FE0FE0000
0FC07F0000
1000000000
0000000000
0000000000
0000000000
0FFFFF0000
0FFFFF0000
0FFFFF0000
0FFFFF0000
0FFFFF0000
0FFFFF0000
0FFFFF0000
0FFFFF0000
0FF0000000
0FF0000000
0FF0000000
0FF0000000
0FF0000000
0FF0000000
0FF0000000
0FF0000000
0FF0000000
0FF0000000
0FF0000000
0FF0000000
FFFFFFC000
FFFFFFC000
FFFFFFC000
FFFFFFC000
FFFFFFC000
FFFFFFC000
FFFFFFC000
0FF0000000
0FF0000000
0FF0000000
0FF0000000
0FF0000000
0FF0000000
0FF0000000
0FF0000000
0FF0000000
0FF0000000
0FF0000000
0FF0000000
0FFFFFFF00
0FFFFFFF00
0FFFFFFF00
0FFFFFFF00
0FFFFFFF00
0FFFFFFF00
0FFFFFFF00
0FFFFFFF00
ENDCHAR
STARTCHAR 1EC0
ENCODING 7872
SWIDTH 510 0
DWIDTH 34 0
BBX 39 66 -5 0
BITMAP
FC00000000
FE00000000
7E00000000
3F00000000
1F00000000
1F80000000
0F80000000
07C0FFC000
07C1FFC000
0003FFE000
0003F7F000
0007F3F800
000FE1F800
001FC1FC00
001F80FE00
0020000000
0000000000
0000000000
0000000000
001FFFFE00
001FFFFE00
001FFFFE00
001FFFFE00
001FFFFE00
001FFFFE00
001FFFFE00
001FFFFE00
001FE00000
001FE00000
001FE00000
001FE00000
001FE00000
001FE00000
001FE00000
001FE00000
001FE00000
001FE00000
001FE00000
001FE00000
01FFFFFF80
01FFFFFF80
01FFFFFF80
01FFFFFF80
01FFFFFF80
01FFFFFF80
01FFFFFF80
001FE00000
001FE00000
001FE00000
001FE00000
001FE00000
001FE00000
001FE00000
001FE00000
001FE00000
001FE00000
001FE00000
001FE00000
001FFFFFFE
001FFFFFFE
001FFFFFFE
001FFFFFFE
001FFFFFFE
001FFFFFFE
001FFFFFFE
001FFFFFFE
ENDCHAR
STARTCHAR 1EC1
ENCODING 7873
SWIDTH 510 0
DWIDTH 34 0
BBX 39 66 -5 0
BITMAP
FC00000000
FE00000000
7E00000000
3F00000000
1F00000000
1F80000000
0F80000000
07C0FFC000
07C1FFC000
0003FFE000
0003F7F000
0007F3F800
000FE1F800
001FC1FC00
001F80FE00
0020000000
0000000000
0000000000
0000000000
001FFFFE00
001FFFFE00
001FFFFE00
001FFFFE00
001FFFFE00
001FFFFE00
001FFFFE00
001FFFFE00
001FE00000
001FE00000
001FE00000
001FE00000
001FE00000
001FE00000
001FE00000
001FE00000
001FE00000
001FE00000
001FE00000
001FE00000
01FFFFFF80
01FFFFFF80
01FFFFFF80
01FFFFFF80
01FFFFFF80
01FFFFFF80
01FFFFFF80
001FE00000
001FE00000
001FE00000
001FE00000
001FE00000
001FE00000
001FE00000
001FE00000
001FE00000
001FE00000
001FE00000
001FE00000
001FFFFFFE
001FFFFFFE
001FFFFFFE
001FFFFFFE
001FFFFFFE
001FFFFFFE
001FFFFFFE
001FFFFFFE
ENDCHAR
STARTCHAR 1EC2
ENCODING 7874
SWIDTH 510 0
DWIDTH 34 0
BBX 32 69 2 0
BITMAP
000001F0
000001F0
000000F8
000000F8
000001F8
000001F0
000001F0
000003E0
000003E0
000003E0
007FE3E0
00FFF3E0
01FFF1F0
01FBF800
03F9FC00
07F0FC00
0FE0FE00
0FC07F00
10000000
00000000
00000000
00000000
0FFFFF00
0FFFFF00
0FFFFF00
0FFFFF00
0FFFFF00
0FFFFF00
0FFFFF00
0FFFFF00
0FF00000
0FF00000
0FF00000
0FF00000
0FF00000
0FF00000
0FF00000
0FF00000
0FF00000
0FF00000
0FF00000
0FF00000
FFFFFFC0
FFFFFFC0
FFFFFFC0
FFFFFFC0
FFFFFFC0
FFFFFFC0
FFFFFFC0
0FF00000
0FF00000
0FF00000
0FF00000
0FF00000
0FF00000
0FF00000
0FF00000
0FF00000
0FF00000
0FF00000
0FF00000
0FFFFFFF
0FFFFFFF
0FFFFFFF
0FFFFFFF
0FFFFFFF
0FFFFFFF
0FFFFFFF
0FFFFFFF
ENDCHAR
STARTCHAR 1EC3
ENCODING 7875
SWIDTH 510 0
DWIDTH 34 0
BBX 32 69 2 0
BITMAP
000001F0
000001F0
000000F8
000000F8
000001F8
000001F0
000001F0
000003E0
000003E0
000003E0
007FE3E0
00FFF3E0
01FFF1F0
01FBF800
03F9FC00
07F0FC00
0FE0FE00
0FC07F00
10000000
00000000
00000000
00000000
0FFFFF00
0FFFFF00
0FFFFF00
0FFFFF00
0FFFFF00
0FFFFF00
0FFFFF00
0FFFFF00
0FF00000
0FF00000
0FF00000
0FF00000
0FF00000
0FF00000
0FF00000
0FF00000
0FF00000
0FF00000
0FF00000
0FF00000
FFFFFFC0
FFFFFFC0
FFFFFFC0
FFFFFFC0
FFFFFFC0
FFFFFFC0
FFFFFFC0
0FF00000
0FF00000
0FF00000
0FF00000
0FF00000
0FF00000
0FF00000
0FF00000
0FF00000
0FF00000
0FF00000
0FF00000
0FFFFFFF
0FFFFFFF
0FFFFFFF
0FFFFFFF
0FFFFFFF
0FFFFFFF
0FFFFFFF
0FFFFFFF
ENDCHAR
STARTCHAR 1EC4
ENCODING 7876
SWIDTH 510 0
DWIDTH 34 0
BBX 32 68 2 0
BITMAP
00004000
0007FC08
0007FFF8
0007FFF8
0007FFF8
0007FFF8
000007F0
00000000
00000000
007FE000
00FFF000
01FFF000
01FBF800
03F9FC00
07F0FC00
0FE0FE00
0FC07F00
10000000
00000000
00000000
00000000
0FFFFF00
0FFFFF00
0FFFFF00
0FFFFF00
0FFFFF00
0FFFFF00
0FFFFF00
0FFFFF00
0FF00000
0FF00000
0FF00000
0FF00000
0FF00000
0FF00000
0FF00000
0FF00000
0FF00000
0FF00000
0FF00000
0FF00000
FFFFFFC0
FFFFFFC0
FFFFFFC0
FFFFFFC0
FFFFFFC0
FFFFFFC0
FFFFFFC0
0FF00000
0FF00000
0FF00000
0FF00000
0FF00000
0FF00000
0FF00000
0FF00000
0FF00000
0FF00000
0FF00000
0FF00000
0FFFFFFF
0FFFFFFF
0FFFFFFF
0FFFFFFF
0FFFFFFF
0FFFFFFF
0FFFFFFF
0FFFFFFF
ENDCHAR
STARTCHAR 1EC5
ENCODING 7877
SWIDTH 510 0
DWIDTH 34 0
BBX 32 68 2 0
BITMAP
00004000
0007FC08
0007FFF8
0007FFF8
0007FFF8
0007FFF8
000007F0
00000000
00000000
007FE000
00FFF000
01FFF000
01FBF800
03F9FC00
07F0FC00
0FE0FE00
0FC07F00
10000000
00000000
00000000
00000000
0FFFFF00
0FFFFF00
0FFFFF00
0FFFFF00
0FFFFF00
0FFFFF00
0FFFFF00
0FFFFF00
0FF00000
0FF00000
0FF00000
0FF00000
0FF00000
0FF00000
0FF00000
0FF00000
0FF00000
0FF00000
0FF00000
0FF00000
FFFFFFC0
FFFFFFC0
FFFFFFC0
FFFFFFC0
FFFFFFC0
FFFFFFC0
FFFFFFC0
0FF00000
0FF00000
0FF00000
0FF00000
0FF00000
0FF00000
0FF00000
0FF00000
0FF00000
0FF00000
0FF00000
0FF00000
0FFFFFFF
0FFFFFFF
0FFFFFFF
0FFFFFFF
0FFFFFFF
0FFFFFFF
0FFFFFFF
0FFFFFFF
ENDCHAR
STARTCHAR 1EC6
ENCODING 7878
SWIDTH 510 0
DWIDTH 34 0
BBX 32 77 2 -18
BITMAP
007FE000
00FFF000
01FFF000
01FBF800
03F9FC00
07F0FC00
0FE0FE00
0FC07F00
10000000
00000000
00000000
00000000
0FFFFF00
0FFFFF00
0FFFFF00
0FFFFF00
0FFFFF00
0FFFFF00
0FFFFF00
0FFFFF00
0FF00000
0FF00000
0FF00000
0FF00000
0FF00000
0FF00000
0FF00000
0FF00000
0FF00000
0FF00000
0FF00000
0FF00000
FFFFFFC0
FFFFFFC0
FFFFFFC0
FFFFFFC0
FFFFFFC0
FFFFFFC0
FFFFFFC0
0FF00000
0FF00000
0FF00000
0FF00000
0FF00000
0FF00000
0FF00000
0FF00000
0FF00000
0FF00000
0FF00000
0FF00000
0FFFFFFF
0FFFFFFF
0FFFFFFF
0FFFFFFF
0FFFFFFF
0FFFFFFF
0FFFFFFF
0FFFFFFF
00000000
00000000
00000000
00000000
00000000
00000000
00000000
00000000
0001F800
0003FE00
0007FE00
0007FF00
0007FF00
0007FF00
0007FE00
0003FE00
0003FC00
0000F800
ENDCHAR
STARTCHAR 1EC7
ENCODING 7879
SWIDTH 510 0
DWIDTH 34 0
BBX 32 77 2 -18
BITMAP
007FE000
00FFF000
01FFF000
01FBF800
03F9FC00
07F0FC00
0FE0FE00
0FC07F00
10000000
00000000
00000000
00000000
0FFFFF00
0FFFFF00
0FFFFF00
0FFFFF00
0FFFFF00
0FFFFF00
0FFFFF00
0FFFFF00
0FF00000
0FF00000
0FF00000
0FF00000
0FF00000
0FF00000
0FF00000
0FF00000
0FF00000
0FF00000
0FF00000
0FF00000
FFFFFFC0
FFFFFFC0
FFFFFFC0
FFFFFFC0
FFFFFFC0
FFFFFFC0
FFFFFFC0
0FF00000
0FF00000
0FF00000
0FF00000
0FF00000
0FF00000
0FF00000
0FF00000
0FF00000
0FF00000
0FF00000
0FF00000
0FFFFFFF
0FFFFFFF
0FFFFFFF
0FFFFFFF
0FFFFFFF
0FFFFFFF
0FFFFFFF
0FFFFFFF
00000000
00000000
00000000
00000000
00000000
00000000
00000000
00000000
0001F800
0003FE00
0007FE00
0007FF00
0007FF00
0007FF00
0007FE00
0003FE00
0003FC00
0000F800
ENDCHAR
STARTCHAR 1EC8
ENCODING 7880
SWIDTH 225 0
DWIDTH 15 0
BBX 8 45 4 0
BITMAP
3E
3E
3E
3E
3E
7C
7C
F8
F8
F8
7C
7C
00
00
00
00
FF
FF
FF
FF
FF
FF
FF
FF
FF
FF
FF
FF
FF
FF
FF
FF
FF
FF
FF
FF
FF
FF
FF
FF
FF
FF
FF
FF
FF
ENDCHAR
STARTCHAR 1EC9
ENCODING 7881
SWIDTH 225 0
DWIDTH 15 0
BBX 8 45 4 0
BITMAP
3E
3E
3E
3E
3E
7C
7C
F8
F8
F8
7C
7C
00
00
00
00
FF
FF
FF
FF
FF
FF
FF
FF
FF
FF
FF
FF
FF
FF
FF
FF
FF
FF
FF
FF
FF
FF
FF
FF
FF
FF
FF
FF
FF
ENDCHAR
STARTCHAR 1ECA
ENCODING 7882
SWIDTH 225 0
DWIDTH 15 0
BBX 19 72 -2 -18
BITMAP
004000
004000
004000
00E000
00E000
00E000
01F000
FFFFE0
7FFFC0
3FFF80
1FFE00
07FC00
07FC00
07FC00
07FC00
0FBE00
0E0E00
0C0600
000000
000000
000000
000000
000000
000000
000000
07FC00
07FC00
07FC00
07FC00
07FC00
07FC00
07FC00
07FC00
07FC00
07FC00
07FC00
07FC00
07FC00
07FC00
07FC00
07FC00
07FC00
07FC00
07FC00
07FC00
07FC00
07FC00
07FC00
07FC00
07FC00
07FC00
07FC00
07FC00
07FC00
000000
000000
000000
000000
000000
000000
000000
000000
03F800
07FC00
07FC00
0FFE00
0FFE00
0FFE00
0FFE00
07FC00
03FC00
01F000
ENDCHAR
STARTCHAR 1ECB
ENCODING 7883
SWIDTH 225 0
DWIDTH 15 0
BBX 19 72 -2 -18
BITMAP
004000
004000
004000
00E000
00E000
00E000
01F000
FFFFE0
7FFFC0
3FFF80
1FFE00
07FC00
07FC00
07FC00
07FC00
0FBE00
0E0E00
0C0600
000000
000000
000000
000000
000000
000000
000000
07FC00
07FC00
07FC00
07FC00
07FC00
07FC00
07FC00
07FC00
07FC00
07FC00
07FC00
07FC00
07FC00
07FC00
07FC00
07FC00
07FC00
07FC00
07FC00
07FC00
07FC00
07FC00
07FC00
07FC00
07FC00
07FC00
07FC00
07FC00
07FC00
000000
000000
000000
000000
000000
000000
000000
000000
03F800
07FC00
07FC00
0FFE00
0FFE00
0FFE00
0FFE00
07FC00
03FC00
01F000
ENDCHAR
STARTCHAR 1ECC
ENCODING 7884
SWIDTH 810 0
DWIDTH 54 0
BBX 50 66 2 -18
BITMAP
000000F0000000
00007FFF800000
0001FFFFF00000
0007FFFFFC0000
001FFFFFFF0000
003FFFFFFF8000
00FFFFFFFFC000
01FFFFFFFFE000
03FFFC07FFF000
07FFC000FFF800
07FF00003FFC00
0FFE00000FFE00
1FFC000007FE00
1FF8000003FF00
3FF0000001FF00
3FE0000000FF80
3FE0000000FF80
7FC00000007F80
7FC00000007FC0
7F800000007FC0
7F800000003FC0
FF800000003FC0
FF800000003FC0
FF800000003FC0
FF800000003FC0
FF800000003FC0
FF800000003FC0
FF800000003FC0
7F800000003FC0
7F800000007FC0
7FC00000007FC0
7FC00000007FC0
3FE0000000FF80
3FE0000000FF80
3FF0000001FF00
1FF8000003FF00
1FF8000007FE00
0FFE00000FFE00
07FF00001FFC00
07FFC0007FFC00
03FFF003FFF800
01FFFFFFFFF000
00FFFFFFFFE000
007FFFFFFFC000
001FFFFFFF0000
000FFFFFFE0000
0003FFFFF80000
00007FFFC00000
00000FFE000000
00000000000000
00000000000000
00000000000000
00000000000000
00000000000000
00000000000000
00000000000000
000003F8000000
000007FC000000
000007FC000000
00000FFE000000
00000FFE000000
00000FFE000000
00000FFE000000
000007FC000000
000007F8000000
000001F0000000
ENDCHAR
ENDFONT
